%TF.GenerationSoftware,KiCad,Pcbnew,9.0.7*%
%TF.CreationDate,2026-02-22T20:08:30-06:00*%
%TF.ProjectId,sata-backplane,73617461-2d62-4616-936b-706c616e652e,rev?*%
%TF.SameCoordinates,Original*%
%TF.FileFunction,Legend,Bot*%
%TF.FilePolarity,Positive*%
%FSLAX46Y46*%
G04 Gerber Fmt 4.6, Leading zero omitted, Abs format (unit mm)*
G04 Created by KiCad (PCBNEW 9.0.7) date 2026-02-22 20:08:30*
%MOMM*%
%LPD*%
G01*
G04 APERTURE LIST*
%ADD10C,0.150000*%
%ADD11C,0.508000*%
%ADD12C,0.000000*%
%ADD13C,0.152400*%
G04 APERTURE END LIST*
D10*
X56758333Y-79554819D02*
X56758333Y-80269104D01*
X56758333Y-80269104D02*
X56805952Y-80411961D01*
X56805952Y-80411961D02*
X56901190Y-80507200D01*
X56901190Y-80507200D02*
X57044047Y-80554819D01*
X57044047Y-80554819D02*
X57139285Y-80554819D01*
X56329761Y-79650057D02*
X56282142Y-79602438D01*
X56282142Y-79602438D02*
X56186904Y-79554819D01*
X56186904Y-79554819D02*
X55948809Y-79554819D01*
X55948809Y-79554819D02*
X55853571Y-79602438D01*
X55853571Y-79602438D02*
X55805952Y-79650057D01*
X55805952Y-79650057D02*
X55758333Y-79745295D01*
X55758333Y-79745295D02*
X55758333Y-79840533D01*
X55758333Y-79840533D02*
X55805952Y-79983390D01*
X55805952Y-79983390D02*
X56377380Y-80554819D01*
X56377380Y-80554819D02*
X55758333Y-80554819D01*
X59299999Y-81054819D02*
X59299999Y-81292914D01*
X59538094Y-81197676D02*
X59299999Y-81292914D01*
X59299999Y-81292914D02*
X59061904Y-81197676D01*
X59442856Y-81483390D02*
X59299999Y-81292914D01*
X59299999Y-81292914D02*
X59157142Y-81483390D01*
X56758333Y-35554819D02*
X56758333Y-36269104D01*
X56758333Y-36269104D02*
X56805952Y-36411961D01*
X56805952Y-36411961D02*
X56901190Y-36507200D01*
X56901190Y-36507200D02*
X57044047Y-36554819D01*
X57044047Y-36554819D02*
X57139285Y-36554819D01*
X55853571Y-35888152D02*
X55853571Y-36554819D01*
X56091666Y-35507200D02*
X56329761Y-36221485D01*
X56329761Y-36221485D02*
X55710714Y-36221485D01*
X73299999Y-37054819D02*
X73299999Y-37292914D01*
X73538094Y-37197676D02*
X73299999Y-37292914D01*
X73299999Y-37292914D02*
X73061904Y-37197676D01*
X73442856Y-37483390D02*
X73299999Y-37292914D01*
X73299999Y-37292914D02*
X73157142Y-37483390D01*
X59299999Y-37054819D02*
X59299999Y-37292914D01*
X59538094Y-37197676D02*
X59299999Y-37292914D01*
X59299999Y-37292914D02*
X59061904Y-37197676D01*
X59442856Y-37483390D02*
X59299999Y-37292914D01*
X59299999Y-37292914D02*
X59157142Y-37483390D01*
D11*
%TO.C,J1*%
X123521086Y-67350000D02*
G75*
G02*
X122759086Y-67350000I-381000J0D01*
G01*
X122759086Y-67350000D02*
G75*
G02*
X123521086Y-67350000I381000J0D01*
G01*
%TO.C,J3*%
X123521086Y-35070000D02*
G75*
G02*
X122759086Y-35070000I-381000J0D01*
G01*
X122759086Y-35070000D02*
G75*
G02*
X123521086Y-35070000I381000J0D01*
G01*
D12*
%TO.C,kibuzzard-63B1B175*%
G36*
X55589918Y-42199956D02*
G01*
X55635638Y-42377121D01*
X55675643Y-42552857D01*
X55711361Y-42735737D01*
X55365604Y-42735737D01*
X55399894Y-42552857D01*
X55438470Y-42377121D01*
X55484190Y-42199956D01*
X55537054Y-42009932D01*
X55589918Y-42199956D01*
G37*
G36*
X58447418Y-42199956D02*
G01*
X58493138Y-42377121D01*
X58533143Y-42552857D01*
X58568861Y-42735737D01*
X58223104Y-42735737D01*
X58257394Y-42552857D01*
X58295970Y-42377121D01*
X58341690Y-42199956D01*
X58394554Y-42009932D01*
X58447418Y-42199956D01*
G37*
G36*
X61926805Y-44068285D02*
G01*
X61015834Y-44068285D01*
X60420521Y-44068285D01*
X59871881Y-44068285D01*
X58080229Y-44068285D01*
X56785781Y-44068285D01*
X55222729Y-44068285D01*
X52079479Y-44068285D01*
X51484166Y-44068285D01*
X51206988Y-43144360D01*
X52079479Y-43144360D01*
X52079479Y-43435825D01*
X53153899Y-43435825D01*
X54845539Y-43435825D01*
X55222729Y-43435825D01*
X55305596Y-43027202D01*
X55777084Y-43027202D01*
X55857094Y-43435825D01*
X56222854Y-43435825D01*
X56172447Y-43230371D01*
X56121813Y-43032346D01*
X56070949Y-42841751D01*
X56019857Y-42658585D01*
X55968536Y-42482849D01*
X55904778Y-42270590D01*
X55842092Y-42063868D01*
X55809821Y-41958497D01*
X56320009Y-41958497D01*
X56785781Y-41958497D01*
X56785781Y-43435825D01*
X57140111Y-43435825D01*
X57703039Y-43435825D01*
X58080229Y-43435825D01*
X58163096Y-43027202D01*
X58634584Y-43027202D01*
X58714594Y-43435825D01*
X59080354Y-43435825D01*
X59029947Y-43230371D01*
X58979313Y-43032346D01*
X58958113Y-42952907D01*
X59220371Y-42952907D01*
X59260733Y-43173292D01*
X59381820Y-43337241D01*
X59508026Y-43412647D01*
X59671380Y-43457891D01*
X59871881Y-43472972D01*
X60069763Y-43461185D01*
X60223354Y-43425824D01*
X60420521Y-43338670D01*
X60317651Y-43052920D01*
X60133343Y-43138645D01*
X60014399Y-43168649D01*
X59871881Y-43178650D01*
X59724720Y-43160076D01*
X59631851Y-43108641D01*
X59584703Y-43034346D01*
X59571844Y-42950050D01*
X59603276Y-42852895D01*
X59683286Y-42777171D01*
X59791871Y-42717164D01*
X59911886Y-42667157D01*
X60077621Y-42601435D01*
X60233355Y-42507137D01*
X60349084Y-42365691D01*
X60394804Y-42155665D01*
X60354442Y-41934209D01*
X60233355Y-41767045D01*
X60112229Y-41689257D01*
X59964115Y-41642585D01*
X59789014Y-41627027D01*
X59636495Y-41636314D01*
X59504693Y-41664175D01*
X59300381Y-41747042D01*
X59403251Y-42018505D01*
X59561843Y-41949925D01*
X59763296Y-41921350D01*
X59918871Y-41943892D01*
X60012216Y-42011520D01*
X60043331Y-42124232D01*
X60014756Y-42214244D01*
X59941890Y-42282824D01*
X59841878Y-42335687D01*
X59731864Y-42378550D01*
X59558985Y-42448559D01*
X59393250Y-42551429D01*
X59268949Y-42711449D01*
X59232516Y-42819677D01*
X59220371Y-42952907D01*
X58958113Y-42952907D01*
X58928449Y-42841751D01*
X58877357Y-42658585D01*
X58826036Y-42482849D01*
X58762278Y-42270590D01*
X58699592Y-42063868D01*
X58637977Y-41862682D01*
X58577434Y-41667032D01*
X58194529Y-41667032D01*
X58131753Y-41864289D01*
X58069156Y-42067440D01*
X58006737Y-42276484D01*
X57944498Y-42491421D01*
X57895063Y-42668643D01*
X57846199Y-42851695D01*
X57797908Y-43040576D01*
X57750188Y-43235286D01*
X57703039Y-43435825D01*
X57140111Y-43435825D01*
X57140111Y-41958497D01*
X57605884Y-41958497D01*
X57605884Y-41667032D01*
X56320009Y-41667032D01*
X56320009Y-41958497D01*
X55809821Y-41958497D01*
X55780477Y-41862682D01*
X55719934Y-41667032D01*
X55337029Y-41667032D01*
X55274253Y-41864289D01*
X55211656Y-42067440D01*
X55149237Y-42276484D01*
X55086997Y-42491421D01*
X55037563Y-42668643D01*
X54988699Y-42851695D01*
X54940408Y-43040576D01*
X54892687Y-43235286D01*
X54845539Y-43435825D01*
X53153899Y-43435825D01*
X53153899Y-43144360D01*
X52782424Y-43144360D01*
X52782424Y-42155665D01*
X52965304Y-42257106D01*
X53139611Y-42327115D01*
X53253911Y-42035650D01*
X53105321Y-41969927D01*
X52945301Y-41881345D01*
X52793854Y-41778475D01*
X52670981Y-41667032D01*
X52430951Y-41667032D01*
X52430951Y-43144360D01*
X52079479Y-43144360D01*
X51206988Y-43144360D01*
X50573195Y-41031715D01*
X51484166Y-41031715D01*
X52079479Y-41031715D01*
X60420521Y-41031715D01*
X61015834Y-41031715D01*
X61926805Y-44068285D01*
G37*
D13*
%TO.C,J2*%
X34936600Y-78971100D02*
X77913400Y-78971100D01*
X34936600Y-84228900D02*
X34936600Y-78971100D01*
X56298000Y-78971100D02*
X56552000Y-78971100D01*
X56298000Y-79225100D02*
X56298000Y-78971100D01*
X56552000Y-78971100D02*
X56552000Y-79225100D01*
X56552000Y-79225100D02*
X56298000Y-79225100D01*
X77913400Y-78971100D02*
X77913400Y-84228900D01*
X77913400Y-84228900D02*
X34936600Y-84228900D01*
D12*
%TO.C,kibuzzard-63B1B17B*%
G36*
X55594204Y-76199956D02*
G01*
X55639924Y-76377121D01*
X55679929Y-76552857D01*
X55715647Y-76735737D01*
X55369890Y-76735737D01*
X55404180Y-76552857D01*
X55442756Y-76377121D01*
X55488476Y-76199956D01*
X55541340Y-76009932D01*
X55594204Y-76199956D01*
G37*
G36*
X58451704Y-76199956D02*
G01*
X58497424Y-76377121D01*
X58537429Y-76552857D01*
X58573147Y-76735737D01*
X58227390Y-76735737D01*
X58261680Y-76552857D01*
X58300256Y-76377121D01*
X58345976Y-76199956D01*
X58398840Y-76009932D01*
X58451704Y-76199956D01*
G37*
G36*
X61931091Y-78068285D02*
G01*
X61020120Y-78068285D01*
X60424807Y-78068285D01*
X59876167Y-78068285D01*
X58084515Y-78068285D01*
X56790067Y-78068285D01*
X55227015Y-78068285D01*
X52075192Y-78068285D01*
X51479880Y-78068285D01*
X51202702Y-77144360D01*
X52075192Y-77144360D01*
X52075192Y-77435825D01*
X53229622Y-77435825D01*
X54849825Y-77435825D01*
X55227015Y-77435825D01*
X55309882Y-77027202D01*
X55781370Y-77027202D01*
X55861380Y-77435825D01*
X56227140Y-77435825D01*
X56176734Y-77230371D01*
X56126099Y-77032346D01*
X56075235Y-76841751D01*
X56024143Y-76658585D01*
X55972822Y-76482849D01*
X55909065Y-76270590D01*
X55846378Y-76063868D01*
X55814107Y-75958497D01*
X56324295Y-75958497D01*
X56790067Y-75958497D01*
X56790067Y-77435825D01*
X57144397Y-77435825D01*
X57707325Y-77435825D01*
X58084515Y-77435825D01*
X58167382Y-77027202D01*
X58638870Y-77027202D01*
X58718880Y-77435825D01*
X59084640Y-77435825D01*
X59034234Y-77230371D01*
X58983599Y-77032346D01*
X58962399Y-76952907D01*
X59224657Y-76952907D01*
X59265020Y-77173292D01*
X59386106Y-77337241D01*
X59512312Y-77412647D01*
X59675666Y-77457891D01*
X59876167Y-77472972D01*
X60074049Y-77461185D01*
X60227640Y-77425824D01*
X60424807Y-77338670D01*
X60321937Y-77052920D01*
X60137629Y-77138645D01*
X60018685Y-77168649D01*
X59876167Y-77178650D01*
X59729006Y-77160076D01*
X59636137Y-77108641D01*
X59588989Y-77034346D01*
X59576130Y-76950050D01*
X59607562Y-76852895D01*
X59687572Y-76777171D01*
X59796157Y-76717164D01*
X59916172Y-76667157D01*
X60081908Y-76601435D01*
X60237641Y-76507137D01*
X60353370Y-76365691D01*
X60399090Y-76155665D01*
X60358728Y-75934209D01*
X60237641Y-75767045D01*
X60116515Y-75689257D01*
X59968401Y-75642585D01*
X59793300Y-75627027D01*
X59640781Y-75636314D01*
X59508979Y-75664175D01*
X59304667Y-75747042D01*
X59407537Y-76018505D01*
X59566129Y-75949925D01*
X59767582Y-75921350D01*
X59923157Y-75943892D01*
X60016502Y-76011520D01*
X60047617Y-76124232D01*
X60019042Y-76214244D01*
X59946176Y-76282824D01*
X59846164Y-76335687D01*
X59736150Y-76378550D01*
X59563271Y-76448559D01*
X59397536Y-76551429D01*
X59273235Y-76711449D01*
X59236802Y-76819677D01*
X59224657Y-76952907D01*
X58962399Y-76952907D01*
X58932735Y-76841751D01*
X58881643Y-76658585D01*
X58830322Y-76482849D01*
X58766565Y-76270590D01*
X58703878Y-76063868D01*
X58642263Y-75862682D01*
X58581720Y-75667032D01*
X58198815Y-75667032D01*
X58136039Y-75864289D01*
X58073442Y-76067440D01*
X58011024Y-76276484D01*
X57948784Y-76491421D01*
X57899349Y-76668643D01*
X57850486Y-76851695D01*
X57802194Y-77040576D01*
X57754474Y-77235286D01*
X57707325Y-77435825D01*
X57144397Y-77435825D01*
X57144397Y-75958497D01*
X57610170Y-75958497D01*
X57610170Y-75667032D01*
X56324295Y-75667032D01*
X56324295Y-75958497D01*
X55814107Y-75958497D01*
X55784763Y-75862682D01*
X55724220Y-75667032D01*
X55341315Y-75667032D01*
X55278539Y-75864289D01*
X55215942Y-76067440D01*
X55153524Y-76276484D01*
X55091284Y-76491421D01*
X55041849Y-76668643D01*
X54992986Y-76851695D01*
X54944694Y-77040576D01*
X54896974Y-77235286D01*
X54849825Y-77435825D01*
X53229622Y-77435825D01*
X53236766Y-77364387D01*
X53235337Y-77304380D01*
X53222122Y-77167220D01*
X53182474Y-77041490D01*
X53122466Y-76926118D01*
X53048171Y-76820034D01*
X52963875Y-76722164D01*
X52873864Y-76631439D01*
X52783852Y-76546071D01*
X52699556Y-76464275D01*
X52565254Y-76309970D01*
X52512390Y-76158522D01*
X52578112Y-75991359D01*
X52743847Y-75932780D01*
X52918155Y-75972785D01*
X53098177Y-76107087D01*
X53272485Y-75861342D01*
X53149255Y-75757044D01*
X53008166Y-75684177D01*
X52858505Y-75641315D01*
X52709557Y-75627027D01*
X52500960Y-75658460D01*
X52323795Y-75752757D01*
X52200922Y-75911349D01*
X52155202Y-76132805D01*
X52189492Y-76308541D01*
X52280932Y-76472847D01*
X52409520Y-76627152D01*
X52555252Y-76770027D01*
X52640977Y-76851466D01*
X52732417Y-76948621D01*
X52805284Y-77050062D01*
X52835287Y-77144360D01*
X52075192Y-77144360D01*
X51202702Y-77144360D01*
X50568909Y-75031715D01*
X51479880Y-75031715D01*
X52075192Y-75031715D01*
X60424807Y-75031715D01*
X61020120Y-75031715D01*
X61931091Y-78068285D01*
G37*
D13*
%TO.C,J4*%
X34936600Y-34971100D02*
X77913400Y-34971100D01*
X34936600Y-40228900D02*
X34936600Y-34971100D01*
X56298000Y-34971100D02*
X56552000Y-34971100D01*
X56298000Y-35225100D02*
X56298000Y-34971100D01*
X56552000Y-34971100D02*
X56552000Y-35225100D01*
X56552000Y-35225100D02*
X56298000Y-35225100D01*
X77913400Y-34971100D02*
X77913400Y-40228900D01*
X77913400Y-40228900D02*
X34936600Y-40228900D01*
%TD*%
M02*
