%TF.GenerationSoftware,KiCad,Pcbnew,9.0.7*%
%TF.CreationDate,2026-02-22T17:51:24-06:00*%
%TF.ProjectId,sata-backplane,73617461-2d62-4616-936b-706c616e652e,rev?*%
%TF.SameCoordinates,Original*%
%TF.FileFunction,Copper,L4,Bot*%
%TF.FilePolarity,Positive*%
%FSLAX46Y46*%
G04 Gerber Fmt 4.6, Leading zero omitted, Abs format (unit mm)*
G04 Created by KiCad (PCBNEW 9.0.7) date 2026-02-22 17:51:24*
%MOMM*%
%LPD*%
G01*
G04 APERTURE LIST*
%TA.AperFunction,ComponentPad*%
%ADD10R,2.057400X2.362200*%
%TD*%
%TA.AperFunction,WasherPad*%
%ADD11C,2.600000*%
%TD*%
%TA.AperFunction,ComponentPad*%
%ADD12O,1.168400X1.270000*%
%TD*%
%TA.AperFunction,ComponentPad*%
%ADD13C,3.600000*%
%TD*%
%TA.AperFunction,ConnectorPad*%
%ADD14C,6.400000*%
%TD*%
%TA.AperFunction,WasherPad*%
%ADD15C,2.200000*%
%TD*%
%TA.AperFunction,ComponentPad*%
%ADD16O,1.400000X1.000000*%
%TD*%
%TA.AperFunction,ViaPad*%
%ADD17C,0.800000*%
%TD*%
%TA.AperFunction,Conductor*%
%ADD18C,0.205000*%
%TD*%
%TA.AperFunction,Conductor*%
%ADD19C,0.800000*%
%TD*%
%TA.AperFunction,Conductor*%
%ADD20C,0.300000*%
%TD*%
G04 APERTURE END LIST*
D10*
%TO.P,J1,8*%
%TO.N,N/C*%
X125500000Y-81720000D03*
%TO.P,J1,9*%
X125500000Y-68980000D03*
%TD*%
%TO.P,J3,8*%
%TO.N,N/C*%
X125500000Y-49440000D03*
%TO.P,J3,9*%
X125500000Y-36700000D03*
%TD*%
D11*
%TO.P,J2,*%
%TO.N,*%
X75800000Y-81600000D03*
X37060002Y-81600000D03*
D12*
%TO.P,J2,P1,P1*%
%TO.N,/3V3_A*%
X58330000Y-81600000D03*
%TO.P,J2,P2,P2*%
%TO.N,/3V3_B*%
X57060000Y-81600000D03*
%TO.P,J2,P3,P3*%
%TO.N,/PW_DIS*%
X55790000Y-81600000D03*
%TO.P,J2,P4,P4*%
%TO.N,GND*%
X54520000Y-81600000D03*
%TO.P,J2,P5,P5*%
X53250000Y-81600000D03*
%TO.P,J2,P6,P6*%
X51980000Y-81600000D03*
%TO.P,J2,P7,P7*%
%TO.N,/5V_PRE*%
X50710000Y-81600000D03*
%TO.P,J2,P8,P8*%
%TO.N,/5V_A*%
X49440000Y-81600000D03*
%TO.P,J2,P9,P9*%
%TO.N,/5V_B*%
X48170000Y-81600000D03*
%TO.P,J2,P10,P10*%
%TO.N,GND*%
X46900000Y-81600000D03*
%TO.P,J2,P11,P11*%
%TO.N,/SS{slash}ACT*%
X45630000Y-81600000D03*
%TO.P,J2,P12,P12*%
%TO.N,GND*%
X44360000Y-81600000D03*
%TO.P,J2,P13,P13*%
%TO.N,/12V_PRE*%
X43090000Y-81600000D03*
%TO.P,J2,P14,P14*%
%TO.N,/12V_A*%
X41820000Y-81600000D03*
%TO.P,J2,P15,P15*%
%TO.N,/12V_B*%
X40550000Y-81600000D03*
%TO.P,J2,S1,S1*%
%TO.N,GND*%
X72300000Y-81600000D03*
%TO.P,J2,S2,S2*%
%TO.N,/SATA1_A+*%
X71030000Y-81600000D03*
%TO.P,J2,S3,S3*%
%TO.N,/SATA1_A-*%
X69760000Y-81600000D03*
%TO.P,J2,S4,S4*%
%TO.N,GND*%
X68490000Y-81600000D03*
%TO.P,J2,S5,S5*%
%TO.N,/SATA1_B+*%
X67220000Y-81600000D03*
%TO.P,J2,S6,S6*%
%TO.N,/SATA1_B-*%
X65950000Y-81600000D03*
%TO.P,J2,S7,S7*%
%TO.N,GND*%
X64680000Y-81600000D03*
%TD*%
D11*
%TO.P,J4,*%
%TO.N,*%
X75800000Y-37600000D03*
X37060002Y-37600000D03*
D12*
%TO.P,J4,P1,P1*%
%TO.N,/3V3_A*%
X58330000Y-37600000D03*
%TO.P,J4,P2,P2*%
%TO.N,/3V3_B*%
X57060000Y-37600000D03*
%TO.P,J4,P3,P3*%
%TO.N,/PW_DIS*%
X55790000Y-37600000D03*
%TO.P,J4,P4,P4*%
%TO.N,GND*%
X54520000Y-37600000D03*
%TO.P,J4,P5,P5*%
X53250000Y-37600000D03*
%TO.P,J4,P6,P6*%
X51980000Y-37600000D03*
%TO.P,J4,P7,P7*%
%TO.N,/5V_PRE*%
X50710000Y-37600000D03*
%TO.P,J4,P8,P8*%
%TO.N,/5V_A*%
X49440000Y-37600000D03*
%TO.P,J4,P9,P9*%
%TO.N,/5V_B*%
X48170000Y-37600000D03*
%TO.P,J4,P10,P10*%
%TO.N,GND*%
X46900000Y-37600000D03*
%TO.P,J4,P11,P11*%
%TO.N,/SS{slash}ACT*%
X45630000Y-37600000D03*
%TO.P,J4,P12,P12*%
%TO.N,GND*%
X44360000Y-37600000D03*
%TO.P,J4,P13,P13*%
%TO.N,/12V_PRE*%
X43090000Y-37600000D03*
%TO.P,J4,P14,P14*%
%TO.N,/12V_A*%
X41820000Y-37600000D03*
%TO.P,J4,P15,P15*%
%TO.N,/12V_B*%
X40550000Y-37600000D03*
%TO.P,J4,S1,S1*%
%TO.N,GND*%
X72300000Y-37600000D03*
%TO.P,J4,S2,S2*%
%TO.N,/SATA2_A+*%
X71030000Y-37600000D03*
%TO.P,J4,S3,S3*%
%TO.N,/SATA2_A-*%
X69760000Y-37600000D03*
%TO.P,J4,S4,S4*%
%TO.N,GND*%
X68490000Y-37600000D03*
%TO.P,J4,S5,S5*%
%TO.N,/SATA2_B+*%
X67220000Y-37600000D03*
%TO.P,J4,S6,S6*%
%TO.N,/SATA2_B-*%
X65950000Y-37600000D03*
%TO.P,J4,S7,S7*%
%TO.N,GND*%
X64680000Y-37600000D03*
%TD*%
D13*
%TO.P,H4,1,1*%
%TO.N,GND*%
X66750000Y-73900000D03*
D14*
X66750000Y-73900000D03*
%TD*%
D13*
%TO.P,H2,1,1*%
%TO.N,GND*%
X117063086Y-50436200D03*
D14*
X117063086Y-50436200D03*
%TD*%
D13*
%TO.P,H1,1,1*%
%TO.N,GND*%
X66750000Y-45150000D03*
D14*
X66750000Y-45150000D03*
%TD*%
D13*
%TO.P,H3,1,1*%
%TO.N,GND*%
X117063086Y-67983800D03*
D14*
X117063086Y-67983800D03*
%TD*%
D15*
%TO.P,J5,*%
%TO.N,*%
X84400000Y-71690000D03*
X84400000Y-47190000D03*
D16*
%TO.P,J5,1,V3.3*%
%TO.N,/3V3_A*%
X84400000Y-68090000D03*
%TO.P,J5,2,V3.3*%
%TO.N,/3V3_B*%
X84400000Y-66820000D03*
%TO.P,J5,3,PWDIS*%
%TO.N,/PW_DIS*%
X84400000Y-65550000D03*
%TO.P,J5,4,GND*%
%TO.N,GND*%
X84400000Y-64280000D03*
%TO.P,J5,5,GND*%
X84400000Y-63010000D03*
%TO.P,J5,6,GND*%
X84400000Y-61740000D03*
%TO.P,J5,7,V5.0*%
%TO.N,/5V_PRE*%
X84400000Y-60470000D03*
%TO.P,J5,8,V5.0*%
%TO.N,/5V_A*%
X84400000Y-59200000D03*
%TO.P,J5,9,V5.0*%
%TO.N,/5V_B*%
X84400000Y-57930000D03*
%TO.P,J5,10,GND*%
%TO.N,GND*%
X84400000Y-56660000D03*
%TO.P,J5,11,ACT*%
%TO.N,/SS{slash}ACT*%
X84400000Y-55390000D03*
%TO.P,J5,12,GND*%
%TO.N,GND*%
X84400000Y-54120000D03*
%TO.P,J5,13,V12*%
%TO.N,/12V_PRE*%
X84400000Y-52850000D03*
%TO.P,J5,14,V12*%
%TO.N,/12V_A*%
X84400000Y-51580000D03*
%TO.P,J5,15,V12*%
%TO.N,/12V_B*%
X84400000Y-50310000D03*
%TD*%
D17*
%TO.N,GND*%
X123140086Y-38760001D03*
X123140086Y-42570001D03*
X123140086Y-74850001D03*
X123140086Y-78660001D03*
X123140086Y-46380001D03*
X123140086Y-71040001D03*
%TO.N,/SATA1_A+*%
X123140086Y-72310001D03*
%TO.N,/SATA1_A-*%
X123140086Y-73580001D03*
%TO.N,/3V3_B*%
X57050000Y-66820000D03*
%TO.N,/12V_A*%
X41820000Y-51600000D03*
%TO.N,/SS{slash}ACT*%
X45630000Y-55400000D03*
%TO.N,/PW_DIS*%
X55790000Y-65550000D03*
%TO.N,/12V_PRE*%
X43090000Y-52850000D03*
%TO.N,/3V3_A*%
X58330000Y-68100000D03*
%TO.N,/5V_PRE*%
X50710000Y-60450000D03*
%TO.N,/12V_B*%
X40560000Y-50310000D03*
%TO.N,/5V_B*%
X48170000Y-57900000D03*
%TO.N,/5V_A*%
X49450000Y-59200000D03*
%TD*%
D18*
%TO.N,/SATA1_A+*%
X93715732Y-83066650D02*
G75*
G02*
X94319832Y-82462632I604068J-50D01*
G01*
%TO.N,/SATA1_A-*%
X97400787Y-83954100D02*
X109984542Y-83954100D01*
X94123932Y-83066650D02*
G75*
G02*
X94319832Y-82870832I195868J-50D01*
G01*
%TO.N,/SATA1_A+*%
X95519832Y-83545900D02*
X97400787Y-83545900D01*
%TO.N,/SATA1_A-*%
X92715732Y-83350000D02*
G75*
G03*
X93319832Y-83954068I604068J0D01*
G01*
X92123932Y-83066650D02*
G75*
G02*
X92319832Y-82870832I195868J-50D01*
G01*
X90123932Y-83066650D02*
G75*
G02*
X90319832Y-82870832I195868J-50D01*
G01*
X91519832Y-83954100D02*
G75*
G03*
X92123900Y-83350000I-32J604100D01*
G01*
%TO.N,/SATA1_A+*%
X93319832Y-83545900D02*
X93519832Y-83545900D01*
X91715732Y-83350000D02*
X91715732Y-83066650D01*
%TO.N,/SATA1_A-*%
X90123932Y-83350000D02*
X90123932Y-83066650D01*
%TO.N,/SATA1_A+*%
X93123932Y-83066650D02*
X93123932Y-83350000D01*
%TO.N,/SATA1_A-*%
X90519832Y-82870750D02*
G75*
G02*
X90715750Y-83066650I-32J-195950D01*
G01*
X94715732Y-83066650D02*
X94715732Y-83350000D01*
X94123932Y-83350000D02*
X94123932Y-83066650D01*
%TO.N,/SATA1_A+*%
X122709186Y-72740901D02*
X123140086Y-72310001D01*
%TO.N,/SATA1_A-*%
X93319832Y-83954100D02*
X93519832Y-83954100D01*
%TO.N,/SATA1_A+*%
X71030000Y-82292718D02*
X72283182Y-83545900D01*
X92319832Y-82462550D02*
X92519832Y-82462550D01*
X95319832Y-83545900D02*
X95519832Y-83545900D01*
X91519832Y-83545900D02*
G75*
G03*
X91715700Y-83350000I-32J195900D01*
G01*
X90519832Y-82462550D02*
G75*
G02*
X91123950Y-83066650I-32J-604150D01*
G01*
X94319832Y-82462550D02*
X94519832Y-82462550D01*
X71030000Y-81600000D02*
X71030000Y-82292718D01*
%TO.N,/SATA1_A-*%
X91319832Y-83954100D02*
X91519832Y-83954100D01*
%TO.N,/SATA1_A+*%
X91319832Y-83545900D02*
X91519832Y-83545900D01*
%TO.N,/SATA1_A-*%
X92715732Y-83066650D02*
X92715732Y-83350000D01*
X69760000Y-81600000D02*
X72114100Y-83954100D01*
X109984542Y-83954100D02*
X120789541Y-73149101D01*
X120789541Y-73149101D02*
X122709186Y-73149101D01*
X90715732Y-83350000D02*
G75*
G03*
X91319832Y-83954068I604068J0D01*
G01*
%TO.N,/SATA1_A+*%
X91715732Y-83066650D02*
G75*
G02*
X92319832Y-82462632I604068J-50D01*
G01*
X94519832Y-82462550D02*
G75*
G02*
X95123950Y-83066650I-32J-604150D01*
G01*
X97400787Y-83545900D02*
X109815458Y-83545900D01*
X90319832Y-82462550D02*
X90519832Y-82462550D01*
%TO.N,/SATA1_A-*%
X92123932Y-83350000D02*
X92123932Y-83066650D01*
%TO.N,/SATA1_A+*%
X91123932Y-83066650D02*
X91123932Y-83350000D01*
X93715732Y-83350000D02*
X93715732Y-83066650D01*
%TO.N,/SATA1_A-*%
X122709186Y-73149101D02*
X123140086Y-73580001D01*
%TO.N,/SATA1_A+*%
X89715732Y-83066650D02*
G75*
G02*
X90319832Y-82462632I604068J-50D01*
G01*
%TO.N,/SATA1_A-*%
X72114100Y-83954100D02*
X89519832Y-83954100D01*
X94715732Y-83350000D02*
G75*
G03*
X95319832Y-83954068I604068J0D01*
G01*
%TO.N,/SATA1_A+*%
X91123932Y-83350000D02*
G75*
G03*
X91319832Y-83545868I195868J0D01*
G01*
%TO.N,/SATA1_A-*%
X94519832Y-82870750D02*
G75*
G02*
X94715750Y-83066650I-32J-195950D01*
G01*
%TO.N,/SATA1_A+*%
X93123932Y-83350000D02*
G75*
G03*
X93319832Y-83545868I195868J0D01*
G01*
%TO.N,/SATA1_A-*%
X93519832Y-83954100D02*
G75*
G03*
X94123900Y-83350000I-32J604100D01*
G01*
%TO.N,/SATA1_A+*%
X95123932Y-83350000D02*
G75*
G03*
X95319832Y-83545868I195868J0D01*
G01*
X120620457Y-72740901D02*
X122709186Y-72740901D01*
%TO.N,/SATA1_A-*%
X95519832Y-83954100D02*
X97400787Y-83954100D01*
X90319832Y-82870750D02*
X90519832Y-82870750D01*
X95319832Y-83954100D02*
X95519832Y-83954100D01*
X90715732Y-83066650D02*
X90715732Y-83350000D01*
%TO.N,/SATA1_A+*%
X109815458Y-83545900D02*
X120620457Y-72740901D01*
%TO.N,/SATA1_A-*%
X92519832Y-82870750D02*
G75*
G02*
X92715750Y-83066650I-32J-195950D01*
G01*
%TO.N,/SATA1_A+*%
X95123932Y-83066650D02*
X95123932Y-83350000D01*
%TO.N,/SATA1_A-*%
X89519832Y-83954100D02*
G75*
G03*
X90123900Y-83350000I-32J604100D01*
G01*
%TO.N,/SATA1_A+*%
X72283182Y-83545900D02*
X89519832Y-83545900D01*
X89519832Y-83545900D02*
G75*
G03*
X89715700Y-83350000I-32J195900D01*
G01*
X89715732Y-83350000D02*
X89715732Y-83066650D01*
X92519832Y-82462550D02*
G75*
G02*
X93123950Y-83066650I-32J-604150D01*
G01*
%TO.N,/SATA1_A-*%
X92319832Y-82870750D02*
X92519832Y-82870750D01*
X94319832Y-82870750D02*
X94519832Y-82870750D01*
%TO.N,/SATA1_A+*%
X93519832Y-83545900D02*
G75*
G03*
X93715700Y-83350000I-32J195900D01*
G01*
D19*
%TO.N,/3V3_B*%
X57050000Y-66820000D02*
X84400000Y-66820000D01*
%TO.N,/12V_A*%
X41820000Y-51600000D02*
X41840000Y-51580000D01*
X41840000Y-51580000D02*
X84400000Y-51580000D01*
%TO.N,/SS{slash}ACT*%
X45630000Y-55400000D02*
X45640000Y-55390000D01*
X45640000Y-55390000D02*
X84400000Y-55390000D01*
%TO.N,/PW_DIS*%
X55790000Y-65550000D02*
X84400000Y-65550000D01*
%TO.N,/12V_PRE*%
X43090000Y-52850000D02*
X84400000Y-52850000D01*
D20*
%TO.N,/3V3_A*%
X58330000Y-68100000D02*
X58340000Y-68090000D01*
D19*
X58340000Y-68090000D02*
X84400000Y-68090000D01*
%TO.N,/5V_PRE*%
X50730000Y-60470000D02*
X84400000Y-60470000D01*
D20*
X50710000Y-60450000D02*
X50730000Y-60470000D01*
D19*
%TO.N,/12V_B*%
X40560000Y-50310000D02*
X84400000Y-50310000D01*
%TO.N,/5V_B*%
X48170000Y-57900000D02*
X48200000Y-57930000D01*
X48200000Y-57930000D02*
X84400000Y-57930000D01*
%TO.N,/5V_A*%
X49450000Y-59200000D02*
X84400000Y-59200000D01*
%TD*%
%TA.AperFunction,Conductor*%
%TO.N,GND*%
G36*
X134042539Y-34020185D02*
G01*
X134088294Y-34072989D01*
X134099500Y-34124500D01*
X134099500Y-84275500D01*
X134079815Y-84342539D01*
X134027011Y-84388294D01*
X133975500Y-84399500D01*
X110267012Y-84399500D01*
X110245768Y-84393262D01*
X110223681Y-84391683D01*
X110212895Y-84383609D01*
X110199973Y-84379815D01*
X110185475Y-84363083D01*
X110167747Y-84349813D01*
X110163038Y-84337190D01*
X110154218Y-84327011D01*
X110151066Y-84305095D01*
X110143328Y-84284349D01*
X110146191Y-84271185D01*
X110144274Y-84257853D01*
X110153471Y-84237712D01*
X110158178Y-84216076D01*
X110171448Y-84198348D01*
X110173299Y-84194297D01*
X110179314Y-84187835D01*
X110227003Y-84140147D01*
X110227004Y-84140144D01*
X113848001Y-80519147D01*
X124270800Y-80519147D01*
X124270800Y-82920852D01*
X124282431Y-82979329D01*
X124282432Y-82979330D01*
X124326747Y-83045652D01*
X124393069Y-83089967D01*
X124393070Y-83089968D01*
X124451547Y-83101599D01*
X124451550Y-83101600D01*
X124451552Y-83101600D01*
X126548450Y-83101600D01*
X126548451Y-83101599D01*
X126563268Y-83098652D01*
X126606929Y-83089968D01*
X126606929Y-83089967D01*
X126606931Y-83089967D01*
X126673252Y-83045652D01*
X126717567Y-82979331D01*
X126717567Y-82979329D01*
X126717568Y-82979329D01*
X126726252Y-82935668D01*
X126729200Y-82920848D01*
X126729200Y-80519152D01*
X126729200Y-80519149D01*
X126729199Y-80519147D01*
X126717568Y-80460670D01*
X126717567Y-80460669D01*
X126673252Y-80394347D01*
X126606930Y-80350032D01*
X126606929Y-80350031D01*
X126548452Y-80338400D01*
X126548448Y-80338400D01*
X124451552Y-80338400D01*
X124451547Y-80338400D01*
X124393070Y-80350031D01*
X124393069Y-80350032D01*
X124326747Y-80394347D01*
X124282432Y-80460669D01*
X124282431Y-80460670D01*
X124270800Y-80519147D01*
X113848001Y-80519147D01*
X120878728Y-73488420D01*
X120940051Y-73454935D01*
X120966409Y-73452101D01*
X122415586Y-73452101D01*
X122482625Y-73471786D01*
X122528380Y-73524590D01*
X122539586Y-73576101D01*
X122539586Y-73659057D01*
X122580509Y-73811784D01*
X122580512Y-73811791D01*
X122659561Y-73948710D01*
X122659565Y-73948715D01*
X122659566Y-73948717D01*
X122771370Y-74060521D01*
X122771372Y-74060522D01*
X122771376Y-74060525D01*
X122908295Y-74139574D01*
X122908302Y-74139578D01*
X123061029Y-74180501D01*
X123061031Y-74180501D01*
X123219141Y-74180501D01*
X123219143Y-74180501D01*
X123371870Y-74139578D01*
X123508802Y-74060521D01*
X123620606Y-73948717D01*
X123699663Y-73811785D01*
X123740586Y-73659058D01*
X123740586Y-73500944D01*
X123699663Y-73348217D01*
X123699659Y-73348210D01*
X123620610Y-73211291D01*
X123620604Y-73211283D01*
X123508803Y-73099482D01*
X123508802Y-73099481D01*
X123427234Y-73052388D01*
X123379019Y-73001822D01*
X123365795Y-72933215D01*
X123391763Y-72868350D01*
X123427233Y-72837613D01*
X123508802Y-72790521D01*
X123620606Y-72678717D01*
X123699663Y-72541785D01*
X123740586Y-72389058D01*
X123740586Y-72230944D01*
X123699663Y-72078217D01*
X123651349Y-71994534D01*
X123620610Y-71941291D01*
X123620604Y-71941283D01*
X123508803Y-71829482D01*
X123508795Y-71829476D01*
X123371876Y-71750427D01*
X123371872Y-71750425D01*
X123371870Y-71750424D01*
X123219143Y-71709501D01*
X123061029Y-71709501D01*
X122908302Y-71750424D01*
X122908295Y-71750427D01*
X122771376Y-71829476D01*
X122771368Y-71829482D01*
X122659567Y-71941283D01*
X122659561Y-71941291D01*
X122580512Y-72078210D01*
X122580509Y-72078217D01*
X122539586Y-72230944D01*
X122539586Y-72313901D01*
X122519901Y-72380940D01*
X122467097Y-72426695D01*
X122415586Y-72437901D01*
X120660352Y-72437901D01*
X120660348Y-72437900D01*
X120580566Y-72437900D01*
X120519789Y-72454186D01*
X120509255Y-72457008D01*
X120503504Y-72458549D01*
X120503502Y-72458550D01*
X120434411Y-72498439D01*
X120374870Y-72557980D01*
X109726270Y-83206581D01*
X109664947Y-83240066D01*
X109638589Y-83242900D01*
X95550937Y-83242900D01*
X95542316Y-83240368D01*
X95533426Y-83241657D01*
X95509314Y-83230678D01*
X95483898Y-83223215D01*
X95478015Y-83216426D01*
X95469838Y-83212703D01*
X95455488Y-83190428D01*
X95438143Y-83170411D01*
X95435865Y-83159968D01*
X95431999Y-83153967D01*
X95426937Y-83119037D01*
X95426936Y-83118135D01*
X95426978Y-83117989D01*
X95426954Y-83117990D01*
X95426943Y-82977287D01*
X95415976Y-82922171D01*
X95392073Y-82802044D01*
X95323688Y-82636971D01*
X95316751Y-82626590D01*
X95224421Y-82488416D01*
X95224419Y-82488413D01*
X95224416Y-82488409D01*
X95146233Y-82410228D01*
X95098076Y-82362072D01*
X95098071Y-82362068D01*
X95058309Y-82335500D01*
X94949568Y-82262841D01*
X94949504Y-82262798D01*
X94784431Y-82194419D01*
X94784423Y-82194417D01*
X94609190Y-82159554D01*
X94609184Y-82159553D01*
X94564854Y-82159551D01*
X94564854Y-82159550D01*
X94559723Y-82159550D01*
X94519848Y-82159550D01*
X94519837Y-82159549D01*
X94461893Y-82159546D01*
X94461843Y-82159550D01*
X94272502Y-82159550D01*
X94271289Y-82159628D01*
X94230511Y-82159627D01*
X94055270Y-82194474D01*
X94055265Y-82194476D01*
X93890191Y-82262840D01*
X93890189Y-82262841D01*
X93741624Y-82362095D01*
X93615275Y-82488429D01*
X93522942Y-82626590D01*
X93469326Y-82671390D01*
X93400001Y-82680092D01*
X93336976Y-82649932D01*
X93316751Y-82626590D01*
X93224416Y-82488409D01*
X93146233Y-82410228D01*
X93098076Y-82362072D01*
X93098071Y-82362068D01*
X93058309Y-82335500D01*
X92949568Y-82262841D01*
X92949504Y-82262798D01*
X92784431Y-82194419D01*
X92784423Y-82194417D01*
X92609190Y-82159554D01*
X92609184Y-82159553D01*
X92564854Y-82159551D01*
X92564854Y-82159550D01*
X92559723Y-82159550D01*
X92519848Y-82159550D01*
X92519837Y-82159549D01*
X92461893Y-82159546D01*
X92461843Y-82159550D01*
X92272502Y-82159550D01*
X92271289Y-82159628D01*
X92230511Y-82159627D01*
X92055270Y-82194474D01*
X92055265Y-82194476D01*
X91890191Y-82262840D01*
X91890189Y-82262841D01*
X91741624Y-82362095D01*
X91615275Y-82488429D01*
X91522942Y-82626590D01*
X91469326Y-82671390D01*
X91400001Y-82680092D01*
X91336976Y-82649932D01*
X91316751Y-82626590D01*
X91224416Y-82488409D01*
X91146233Y-82410228D01*
X91098076Y-82362072D01*
X91098071Y-82362068D01*
X91058309Y-82335500D01*
X90949568Y-82262841D01*
X90949504Y-82262798D01*
X90784431Y-82194419D01*
X90784423Y-82194417D01*
X90609190Y-82159554D01*
X90609184Y-82159553D01*
X90564854Y-82159551D01*
X90564854Y-82159550D01*
X90559723Y-82159550D01*
X90519848Y-82159550D01*
X90519837Y-82159549D01*
X90461893Y-82159546D01*
X90461843Y-82159550D01*
X90272502Y-82159550D01*
X90271289Y-82159628D01*
X90230511Y-82159627D01*
X90055270Y-82194474D01*
X90055265Y-82194476D01*
X89890191Y-82262840D01*
X89890189Y-82262841D01*
X89741624Y-82362095D01*
X89615276Y-82488428D01*
X89515996Y-82636984D01*
X89515996Y-82636985D01*
X89447611Y-82802046D01*
X89447610Y-82802048D01*
X89423970Y-82920848D01*
X89412740Y-82977286D01*
X89412738Y-82977294D01*
X89412735Y-83019136D01*
X89412735Y-83026747D01*
X89412732Y-83026759D01*
X89412732Y-83066573D01*
X89412732Y-83066607D01*
X89412732Y-83066627D01*
X89412727Y-83118912D01*
X89393036Y-83185949D01*
X89340228Y-83231699D01*
X89288727Y-83242900D01*
X76497263Y-83242900D01*
X76430224Y-83223215D01*
X76384469Y-83170411D01*
X76374525Y-83101253D01*
X76403550Y-83037697D01*
X76440968Y-83008415D01*
X76455357Y-83001083D01*
X76610228Y-82922172D01*
X76807086Y-82779146D01*
X76979146Y-82607086D01*
X77122172Y-82410228D01*
X77232642Y-82193420D01*
X77307835Y-81961999D01*
X77316549Y-81906981D01*
X77345900Y-81721670D01*
X77345900Y-81478329D01*
X77307835Y-81238000D01*
X77281718Y-81157621D01*
X77232642Y-81006580D01*
X77122172Y-80789772D01*
X76979146Y-80592914D01*
X76807086Y-80420854D01*
X76610228Y-80277828D01*
X76393420Y-80167358D01*
X76333402Y-80147857D01*
X76161999Y-80092164D01*
X75921670Y-80054100D01*
X75921665Y-80054100D01*
X75678335Y-80054100D01*
X75678330Y-80054100D01*
X75438000Y-80092164D01*
X75206577Y-80167359D01*
X74989771Y-80277828D01*
X74877457Y-80359429D01*
X74792914Y-80420854D01*
X74792912Y-80420856D01*
X74792911Y-80420856D01*
X74620856Y-80592911D01*
X74620856Y-80592912D01*
X74620854Y-80592914D01*
X74559429Y-80677457D01*
X74477828Y-80789771D01*
X74367359Y-81006577D01*
X74292164Y-81238000D01*
X74254100Y-81478329D01*
X74254100Y-81721670D01*
X74292164Y-81961999D01*
X74332868Y-82087270D01*
X74367358Y-82193420D01*
X74477828Y-82410228D01*
X74620854Y-82607086D01*
X74792914Y-82779146D01*
X74989772Y-82922172D01*
X75097954Y-82977294D01*
X75159032Y-83008415D01*
X75209828Y-83056390D01*
X75226623Y-83124211D01*
X75204085Y-83190346D01*
X75149370Y-83233797D01*
X75102737Y-83242900D01*
X72460051Y-83242900D01*
X72393012Y-83223215D01*
X72372370Y-83206581D01*
X71495132Y-82329343D01*
X71461647Y-82268020D01*
X71466631Y-82198328D01*
X71495132Y-82153981D01*
X71561838Y-82087274D01*
X71561841Y-82087271D01*
X71636773Y-81975127D01*
X71688387Y-81850520D01*
X71696997Y-81807231D01*
X71714700Y-81718239D01*
X71714700Y-81481760D01*
X71688388Y-81349485D01*
X71688387Y-81349484D01*
X71688387Y-81349480D01*
X71636773Y-81224873D01*
X71636772Y-81224872D01*
X71636769Y-81224866D01*
X71561841Y-81112729D01*
X71561838Y-81112725D01*
X71466474Y-81017361D01*
X71466470Y-81017358D01*
X71354333Y-80942430D01*
X71354324Y-80942425D01*
X71229720Y-80890813D01*
X71229714Y-80890811D01*
X71097439Y-80864500D01*
X71097437Y-80864500D01*
X70962563Y-80864500D01*
X70962561Y-80864500D01*
X70830285Y-80890811D01*
X70830279Y-80890813D01*
X70705675Y-80942425D01*
X70705666Y-80942430D01*
X70593529Y-81017358D01*
X70593525Y-81017361D01*
X70498161Y-81112725D01*
X70498154Y-81112734D01*
X70498097Y-81112820D01*
X70498055Y-81112854D01*
X70494295Y-81117437D01*
X70493425Y-81116723D01*
X70444482Y-81157621D01*
X70375156Y-81166324D01*
X70312131Y-81136165D01*
X70295821Y-81117341D01*
X70295705Y-81117437D01*
X70292148Y-81113103D01*
X70291903Y-81112820D01*
X70291845Y-81112734D01*
X70291838Y-81112725D01*
X70196474Y-81017361D01*
X70196470Y-81017358D01*
X70084333Y-80942430D01*
X70084324Y-80942425D01*
X69959720Y-80890813D01*
X69959714Y-80890811D01*
X69827439Y-80864500D01*
X69827437Y-80864500D01*
X69692563Y-80864500D01*
X69692561Y-80864500D01*
X69560285Y-80890811D01*
X69560279Y-80890813D01*
X69435675Y-80942425D01*
X69435666Y-80942430D01*
X69323529Y-81017358D01*
X69323525Y-81017361D01*
X69228161Y-81112725D01*
X69228158Y-81112729D01*
X69153230Y-81224866D01*
X69153225Y-81224875D01*
X69101613Y-81349479D01*
X69101611Y-81349485D01*
X69075300Y-81481760D01*
X69075300Y-81481763D01*
X69075300Y-81718237D01*
X69075300Y-81718239D01*
X69075299Y-81718239D01*
X69101611Y-81850514D01*
X69101613Y-81850520D01*
X69153225Y-81975124D01*
X69153230Y-81975133D01*
X69228158Y-82087270D01*
X69228161Y-82087274D01*
X69323525Y-82182638D01*
X69323529Y-82182641D01*
X69435666Y-82257569D01*
X69435675Y-82257574D01*
X69448391Y-82262841D01*
X69560280Y-82309187D01*
X69560284Y-82309187D01*
X69560285Y-82309188D01*
X69692560Y-82335500D01*
X69692563Y-82335500D01*
X69827438Y-82335500D01*
X69863890Y-82328248D01*
X69959720Y-82309187D01*
X69959722Y-82309185D01*
X69962241Y-82308685D01*
X70031832Y-82314912D01*
X70074114Y-82342621D01*
X70971560Y-83240066D01*
X71871636Y-84140142D01*
X71871639Y-84140147D01*
X71919314Y-84187822D01*
X71944404Y-84233772D01*
X71952796Y-84249141D01*
X71952795Y-84249142D01*
X71952797Y-84249144D01*
X71951583Y-84266109D01*
X71947812Y-84318832D01*
X71947811Y-84318833D01*
X71947811Y-84318836D01*
X71905939Y-84374769D01*
X71862192Y-84391084D01*
X71840477Y-84399184D01*
X71831630Y-84399500D01*
X34674500Y-84399500D01*
X34607461Y-84379815D01*
X34561706Y-84327011D01*
X34550500Y-84275500D01*
X34550500Y-81478329D01*
X35514102Y-81478329D01*
X35514102Y-81721670D01*
X35552166Y-81961999D01*
X35592870Y-82087270D01*
X35627360Y-82193420D01*
X35737830Y-82410228D01*
X35880856Y-82607086D01*
X36052916Y-82779146D01*
X36249774Y-82922172D01*
X36466582Y-83032642D01*
X36642309Y-83089739D01*
X36698002Y-83107835D01*
X36938332Y-83145900D01*
X36938337Y-83145900D01*
X37181672Y-83145900D01*
X37422001Y-83107835D01*
X37442258Y-83101253D01*
X37653422Y-83032642D01*
X37870230Y-82922172D01*
X38067088Y-82779146D01*
X38239148Y-82607086D01*
X38382174Y-82410228D01*
X38492644Y-82193420D01*
X38567837Y-81961999D01*
X38576551Y-81906981D01*
X38605902Y-81721670D01*
X38605902Y-81718239D01*
X39865299Y-81718239D01*
X39891611Y-81850514D01*
X39891613Y-81850520D01*
X39943225Y-81975124D01*
X39943230Y-81975133D01*
X40018158Y-82087270D01*
X40018161Y-82087274D01*
X40113525Y-82182638D01*
X40113529Y-82182641D01*
X40225666Y-82257569D01*
X40225675Y-82257574D01*
X40238391Y-82262841D01*
X40350280Y-82309187D01*
X40350284Y-82309187D01*
X40350285Y-82309188D01*
X40482560Y-82335500D01*
X40482563Y-82335500D01*
X40617439Y-82335500D01*
X40706431Y-82317797D01*
X40749720Y-82309187D01*
X40874327Y-82257573D01*
X40986471Y-82182641D01*
X41081841Y-82087271D01*
X41081863Y-82087237D01*
X41081897Y-82087188D01*
X41081936Y-82087154D01*
X41085705Y-82082563D01*
X41086575Y-82083277D01*
X41135508Y-82042382D01*
X41204833Y-82033673D01*
X41267861Y-82063827D01*
X41284178Y-82082658D01*
X41284295Y-82082563D01*
X41287867Y-82086916D01*
X41288103Y-82087188D01*
X41288157Y-82087269D01*
X41288161Y-82087274D01*
X41383525Y-82182638D01*
X41383529Y-82182641D01*
X41495666Y-82257569D01*
X41495675Y-82257574D01*
X41508391Y-82262841D01*
X41620280Y-82309187D01*
X41620284Y-82309187D01*
X41620285Y-82309188D01*
X41752560Y-82335500D01*
X41752563Y-82335500D01*
X41887439Y-82335500D01*
X41976431Y-82317797D01*
X42019720Y-82309187D01*
X42144327Y-82257573D01*
X42256471Y-82182641D01*
X42351841Y-82087271D01*
X42351863Y-82087237D01*
X42351897Y-82087188D01*
X42351936Y-82087154D01*
X42355705Y-82082563D01*
X42356575Y-82083277D01*
X42405508Y-82042382D01*
X42474833Y-82033673D01*
X42537861Y-82063827D01*
X42554178Y-82082658D01*
X42554295Y-82082563D01*
X42557867Y-82086916D01*
X42558103Y-82087188D01*
X42558157Y-82087269D01*
X42558161Y-82087274D01*
X42653525Y-82182638D01*
X42653529Y-82182641D01*
X42765666Y-82257569D01*
X42765675Y-82257574D01*
X42778391Y-82262841D01*
X42890280Y-82309187D01*
X42890284Y-82309187D01*
X42890285Y-82309188D01*
X43022560Y-82335500D01*
X43022563Y-82335500D01*
X43157439Y-82335500D01*
X43246431Y-82317797D01*
X43289720Y-82309187D01*
X43414327Y-82257573D01*
X43526471Y-82182641D01*
X43621841Y-82087271D01*
X43696773Y-81975127D01*
X43748387Y-81850520D01*
X43756997Y-81807231D01*
X43774700Y-81718239D01*
X44945299Y-81718239D01*
X44971611Y-81850514D01*
X44971613Y-81850520D01*
X45023225Y-81975124D01*
X45023230Y-81975133D01*
X45098158Y-82087270D01*
X45098161Y-82087274D01*
X45193525Y-82182638D01*
X45193529Y-82182641D01*
X45305666Y-82257569D01*
X45305675Y-82257574D01*
X45318391Y-82262841D01*
X45430280Y-82309187D01*
X45430284Y-82309187D01*
X45430285Y-82309188D01*
X45562560Y-82335500D01*
X45562563Y-82335500D01*
X45697439Y-82335500D01*
X45786431Y-82317797D01*
X45829720Y-82309187D01*
X45954327Y-82257573D01*
X46066471Y-82182641D01*
X46161841Y-82087271D01*
X46236773Y-81975127D01*
X46288387Y-81850520D01*
X46296997Y-81807231D01*
X46314700Y-81718239D01*
X47485299Y-81718239D01*
X47511611Y-81850514D01*
X47511613Y-81850520D01*
X47563225Y-81975124D01*
X47563230Y-81975133D01*
X47638158Y-82087270D01*
X47638161Y-82087274D01*
X47733525Y-82182638D01*
X47733529Y-82182641D01*
X47845666Y-82257569D01*
X47845675Y-82257574D01*
X47858391Y-82262841D01*
X47970280Y-82309187D01*
X47970284Y-82309187D01*
X47970285Y-82309188D01*
X48102560Y-82335500D01*
X48102563Y-82335500D01*
X48237439Y-82335500D01*
X48326431Y-82317797D01*
X48369720Y-82309187D01*
X48494327Y-82257573D01*
X48606471Y-82182641D01*
X48701841Y-82087271D01*
X48701863Y-82087237D01*
X48701897Y-82087188D01*
X48701936Y-82087154D01*
X48705705Y-82082563D01*
X48706575Y-82083277D01*
X48755508Y-82042382D01*
X48824833Y-82033673D01*
X48887861Y-82063827D01*
X48904178Y-82082658D01*
X48904295Y-82082563D01*
X48907867Y-82086916D01*
X48908103Y-82087188D01*
X48908157Y-82087269D01*
X48908161Y-82087274D01*
X49003525Y-82182638D01*
X49003529Y-82182641D01*
X49115666Y-82257569D01*
X49115675Y-82257574D01*
X49128391Y-82262841D01*
X49240280Y-82309187D01*
X49240284Y-82309187D01*
X49240285Y-82309188D01*
X49372560Y-82335500D01*
X49372563Y-82335500D01*
X49507439Y-82335500D01*
X49596431Y-82317797D01*
X49639720Y-82309187D01*
X49764327Y-82257573D01*
X49876471Y-82182641D01*
X49971841Y-82087271D01*
X49971863Y-82087237D01*
X49971897Y-82087188D01*
X49971936Y-82087154D01*
X49975705Y-82082563D01*
X49976575Y-82083277D01*
X50025508Y-82042382D01*
X50094833Y-82033673D01*
X50157861Y-82063827D01*
X50174178Y-82082658D01*
X50174295Y-82082563D01*
X50177867Y-82086916D01*
X50178103Y-82087188D01*
X50178157Y-82087269D01*
X50178161Y-82087274D01*
X50273525Y-82182638D01*
X50273529Y-82182641D01*
X50385666Y-82257569D01*
X50385675Y-82257574D01*
X50398391Y-82262841D01*
X50510280Y-82309187D01*
X50510284Y-82309187D01*
X50510285Y-82309188D01*
X50642560Y-82335500D01*
X50642563Y-82335500D01*
X50777439Y-82335500D01*
X50866431Y-82317797D01*
X50909720Y-82309187D01*
X51034327Y-82257573D01*
X51146471Y-82182641D01*
X51241841Y-82087271D01*
X51316773Y-81975127D01*
X51368387Y-81850520D01*
X51376997Y-81807231D01*
X51394700Y-81718239D01*
X55105299Y-81718239D01*
X55131611Y-81850514D01*
X55131613Y-81850520D01*
X55183225Y-81975124D01*
X55183230Y-81975133D01*
X55258158Y-82087270D01*
X55258161Y-82087274D01*
X55353525Y-82182638D01*
X55353529Y-82182641D01*
X55465666Y-82257569D01*
X55465675Y-82257574D01*
X55478391Y-82262841D01*
X55590280Y-82309187D01*
X55590284Y-82309187D01*
X55590285Y-82309188D01*
X55722560Y-82335500D01*
X55722563Y-82335500D01*
X55857439Y-82335500D01*
X55946431Y-82317797D01*
X55989720Y-82309187D01*
X56114327Y-82257573D01*
X56226471Y-82182641D01*
X56321841Y-82087271D01*
X56321863Y-82087237D01*
X56321897Y-82087188D01*
X56321936Y-82087154D01*
X56325705Y-82082563D01*
X56326575Y-82083277D01*
X56375508Y-82042382D01*
X56444833Y-82033673D01*
X56507861Y-82063827D01*
X56524178Y-82082658D01*
X56524295Y-82082563D01*
X56527867Y-82086916D01*
X56528103Y-82087188D01*
X56528157Y-82087269D01*
X56528161Y-82087274D01*
X56623525Y-82182638D01*
X56623529Y-82182641D01*
X56735666Y-82257569D01*
X56735675Y-82257574D01*
X56748391Y-82262841D01*
X56860280Y-82309187D01*
X56860284Y-82309187D01*
X56860285Y-82309188D01*
X56992560Y-82335500D01*
X56992563Y-82335500D01*
X57127439Y-82335500D01*
X57216431Y-82317797D01*
X57259720Y-82309187D01*
X57384327Y-82257573D01*
X57496471Y-82182641D01*
X57591841Y-82087271D01*
X57591863Y-82087237D01*
X57591897Y-82087188D01*
X57591936Y-82087154D01*
X57595705Y-82082563D01*
X57596575Y-82083277D01*
X57645508Y-82042382D01*
X57714833Y-82033673D01*
X57777861Y-82063827D01*
X57794178Y-82082658D01*
X57794295Y-82082563D01*
X57797867Y-82086916D01*
X57798103Y-82087188D01*
X57798157Y-82087269D01*
X57798161Y-82087274D01*
X57893525Y-82182638D01*
X57893529Y-82182641D01*
X58005666Y-82257569D01*
X58005675Y-82257574D01*
X58018391Y-82262841D01*
X58130280Y-82309187D01*
X58130284Y-82309187D01*
X58130285Y-82309188D01*
X58262560Y-82335500D01*
X58262563Y-82335500D01*
X58397439Y-82335500D01*
X58486431Y-82317797D01*
X58529720Y-82309187D01*
X58654327Y-82257573D01*
X58766471Y-82182641D01*
X58861841Y-82087271D01*
X58936773Y-81975127D01*
X58988387Y-81850520D01*
X58996997Y-81807231D01*
X59014700Y-81718239D01*
X65265299Y-81718239D01*
X65291611Y-81850514D01*
X65291613Y-81850520D01*
X65343225Y-81975124D01*
X65343230Y-81975133D01*
X65418158Y-82087270D01*
X65418161Y-82087274D01*
X65513525Y-82182638D01*
X65513529Y-82182641D01*
X65625666Y-82257569D01*
X65625675Y-82257574D01*
X65638391Y-82262841D01*
X65750280Y-82309187D01*
X65750284Y-82309187D01*
X65750285Y-82309188D01*
X65882560Y-82335500D01*
X65882563Y-82335500D01*
X66017439Y-82335500D01*
X66106431Y-82317797D01*
X66149720Y-82309187D01*
X66274327Y-82257573D01*
X66386471Y-82182641D01*
X66481841Y-82087271D01*
X66481863Y-82087237D01*
X66481897Y-82087188D01*
X66481936Y-82087154D01*
X66485705Y-82082563D01*
X66486575Y-82083277D01*
X66535508Y-82042382D01*
X66604833Y-82033673D01*
X66667861Y-82063827D01*
X66684178Y-82082658D01*
X66684295Y-82082563D01*
X66687867Y-82086916D01*
X66688103Y-82087188D01*
X66688157Y-82087269D01*
X66688161Y-82087274D01*
X66783525Y-82182638D01*
X66783529Y-82182641D01*
X66895666Y-82257569D01*
X66895675Y-82257574D01*
X66908391Y-82262841D01*
X67020280Y-82309187D01*
X67020284Y-82309187D01*
X67020285Y-82309188D01*
X67152560Y-82335500D01*
X67152563Y-82335500D01*
X67287439Y-82335500D01*
X67376431Y-82317797D01*
X67419720Y-82309187D01*
X67544327Y-82257573D01*
X67656471Y-82182641D01*
X67751841Y-82087271D01*
X67826773Y-81975127D01*
X67878387Y-81850520D01*
X67886997Y-81807231D01*
X67904700Y-81718239D01*
X67904700Y-81481760D01*
X67878388Y-81349485D01*
X67878387Y-81349484D01*
X67878387Y-81349480D01*
X67826773Y-81224873D01*
X67826772Y-81224872D01*
X67826769Y-81224866D01*
X67751841Y-81112729D01*
X67751838Y-81112725D01*
X67656474Y-81017361D01*
X67656470Y-81017358D01*
X67544333Y-80942430D01*
X67544324Y-80942425D01*
X67419720Y-80890813D01*
X67419714Y-80890811D01*
X67287439Y-80864500D01*
X67287437Y-80864500D01*
X67152563Y-80864500D01*
X67152561Y-80864500D01*
X67020285Y-80890811D01*
X67020279Y-80890813D01*
X66895675Y-80942425D01*
X66895666Y-80942430D01*
X66783529Y-81017358D01*
X66783525Y-81017361D01*
X66688161Y-81112725D01*
X66688154Y-81112734D01*
X66688097Y-81112820D01*
X66688055Y-81112854D01*
X66684295Y-81117437D01*
X66683425Y-81116723D01*
X66634482Y-81157621D01*
X66565156Y-81166324D01*
X66502131Y-81136165D01*
X66485821Y-81117341D01*
X66485705Y-81117437D01*
X66482148Y-81113103D01*
X66481903Y-81112820D01*
X66481845Y-81112734D01*
X66481838Y-81112725D01*
X66386474Y-81017361D01*
X66386470Y-81017358D01*
X66274333Y-80942430D01*
X66274324Y-80942425D01*
X66149720Y-80890813D01*
X66149714Y-80890811D01*
X66017439Y-80864500D01*
X66017437Y-80864500D01*
X65882563Y-80864500D01*
X65882561Y-80864500D01*
X65750285Y-80890811D01*
X65750279Y-80890813D01*
X65625675Y-80942425D01*
X65625666Y-80942430D01*
X65513529Y-81017358D01*
X65513525Y-81017361D01*
X65418161Y-81112725D01*
X65418158Y-81112729D01*
X65343230Y-81224866D01*
X65343225Y-81224875D01*
X65291613Y-81349479D01*
X65291611Y-81349485D01*
X65265300Y-81481760D01*
X65265300Y-81481763D01*
X65265300Y-81718237D01*
X65265300Y-81718239D01*
X65265299Y-81718239D01*
X59014700Y-81718239D01*
X59014700Y-81481760D01*
X58988388Y-81349485D01*
X58988387Y-81349484D01*
X58988387Y-81349480D01*
X58936773Y-81224873D01*
X58936772Y-81224872D01*
X58936769Y-81224866D01*
X58861841Y-81112729D01*
X58861838Y-81112725D01*
X58766474Y-81017361D01*
X58766470Y-81017358D01*
X58654333Y-80942430D01*
X58654324Y-80942425D01*
X58529720Y-80890813D01*
X58529714Y-80890811D01*
X58397439Y-80864500D01*
X58397437Y-80864500D01*
X58262563Y-80864500D01*
X58262561Y-80864500D01*
X58130285Y-80890811D01*
X58130279Y-80890813D01*
X58005675Y-80942425D01*
X58005666Y-80942430D01*
X57893529Y-81017358D01*
X57893525Y-81017361D01*
X57798161Y-81112725D01*
X57798154Y-81112734D01*
X57798097Y-81112820D01*
X57798055Y-81112854D01*
X57794295Y-81117437D01*
X57793425Y-81116723D01*
X57744482Y-81157621D01*
X57675156Y-81166324D01*
X57612131Y-81136165D01*
X57595821Y-81117341D01*
X57595705Y-81117437D01*
X57592148Y-81113103D01*
X57591903Y-81112820D01*
X57591845Y-81112734D01*
X57591838Y-81112725D01*
X57496474Y-81017361D01*
X57496470Y-81017358D01*
X57384333Y-80942430D01*
X57384324Y-80942425D01*
X57259720Y-80890813D01*
X57259714Y-80890811D01*
X57127439Y-80864500D01*
X57127437Y-80864500D01*
X56992563Y-80864500D01*
X56992561Y-80864500D01*
X56860285Y-80890811D01*
X56860279Y-80890813D01*
X56735675Y-80942425D01*
X56735666Y-80942430D01*
X56623529Y-81017358D01*
X56623525Y-81017361D01*
X56528161Y-81112725D01*
X56528154Y-81112734D01*
X56528097Y-81112820D01*
X56528055Y-81112854D01*
X56524295Y-81117437D01*
X56523425Y-81116723D01*
X56474482Y-81157621D01*
X56405156Y-81166324D01*
X56342131Y-81136165D01*
X56325821Y-81117341D01*
X56325705Y-81117437D01*
X56322148Y-81113103D01*
X56321903Y-81112820D01*
X56321845Y-81112734D01*
X56321838Y-81112725D01*
X56226474Y-81017361D01*
X56226470Y-81017358D01*
X56114333Y-80942430D01*
X56114324Y-80942425D01*
X55989720Y-80890813D01*
X55989714Y-80890811D01*
X55857439Y-80864500D01*
X55857437Y-80864500D01*
X55722563Y-80864500D01*
X55722561Y-80864500D01*
X55590285Y-80890811D01*
X55590279Y-80890813D01*
X55465675Y-80942425D01*
X55465666Y-80942430D01*
X55353529Y-81017358D01*
X55353525Y-81017361D01*
X55258161Y-81112725D01*
X55258158Y-81112729D01*
X55183230Y-81224866D01*
X55183225Y-81224875D01*
X55131613Y-81349479D01*
X55131611Y-81349485D01*
X55105300Y-81481760D01*
X55105300Y-81481763D01*
X55105300Y-81718237D01*
X55105300Y-81718239D01*
X55105299Y-81718239D01*
X51394700Y-81718239D01*
X51394700Y-81481760D01*
X51368388Y-81349485D01*
X51368387Y-81349484D01*
X51368387Y-81349480D01*
X51316773Y-81224873D01*
X51316772Y-81224872D01*
X51316769Y-81224866D01*
X51241841Y-81112729D01*
X51241838Y-81112725D01*
X51146474Y-81017361D01*
X51146470Y-81017358D01*
X51034333Y-80942430D01*
X51034324Y-80942425D01*
X50909720Y-80890813D01*
X50909714Y-80890811D01*
X50777439Y-80864500D01*
X50777437Y-80864500D01*
X50642563Y-80864500D01*
X50642561Y-80864500D01*
X50510285Y-80890811D01*
X50510279Y-80890813D01*
X50385675Y-80942425D01*
X50385666Y-80942430D01*
X50273529Y-81017358D01*
X50273525Y-81017361D01*
X50178161Y-81112725D01*
X50178154Y-81112734D01*
X50178097Y-81112820D01*
X50178055Y-81112854D01*
X50174295Y-81117437D01*
X50173425Y-81116723D01*
X50124482Y-81157621D01*
X50055156Y-81166324D01*
X49992131Y-81136165D01*
X49975821Y-81117341D01*
X49975705Y-81117437D01*
X49972148Y-81113103D01*
X49971903Y-81112820D01*
X49971845Y-81112734D01*
X49971838Y-81112725D01*
X49876474Y-81017361D01*
X49876470Y-81017358D01*
X49764333Y-80942430D01*
X49764324Y-80942425D01*
X49639720Y-80890813D01*
X49639714Y-80890811D01*
X49507439Y-80864500D01*
X49507437Y-80864500D01*
X49372563Y-80864500D01*
X49372561Y-80864500D01*
X49240285Y-80890811D01*
X49240279Y-80890813D01*
X49115675Y-80942425D01*
X49115666Y-80942430D01*
X49003529Y-81017358D01*
X49003525Y-81017361D01*
X48908161Y-81112725D01*
X48908154Y-81112734D01*
X48908097Y-81112820D01*
X48908055Y-81112854D01*
X48904295Y-81117437D01*
X48903425Y-81116723D01*
X48854482Y-81157621D01*
X48785156Y-81166324D01*
X48722131Y-81136165D01*
X48705821Y-81117341D01*
X48705705Y-81117437D01*
X48702148Y-81113103D01*
X48701903Y-81112820D01*
X48701845Y-81112734D01*
X48701838Y-81112725D01*
X48606474Y-81017361D01*
X48606470Y-81017358D01*
X48494333Y-80942430D01*
X48494324Y-80942425D01*
X48369720Y-80890813D01*
X48369714Y-80890811D01*
X48237439Y-80864500D01*
X48237437Y-80864500D01*
X48102563Y-80864500D01*
X48102561Y-80864500D01*
X47970285Y-80890811D01*
X47970279Y-80890813D01*
X47845675Y-80942425D01*
X47845666Y-80942430D01*
X47733529Y-81017358D01*
X47733525Y-81017361D01*
X47638161Y-81112725D01*
X47638158Y-81112729D01*
X47563230Y-81224866D01*
X47563225Y-81224875D01*
X47511613Y-81349479D01*
X47511611Y-81349485D01*
X47485300Y-81481760D01*
X47485300Y-81481763D01*
X47485300Y-81718237D01*
X47485300Y-81718239D01*
X47485299Y-81718239D01*
X46314700Y-81718239D01*
X46314700Y-81481760D01*
X46288388Y-81349485D01*
X46288387Y-81349484D01*
X46288387Y-81349480D01*
X46236773Y-81224873D01*
X46236772Y-81224872D01*
X46236769Y-81224866D01*
X46161841Y-81112729D01*
X46161838Y-81112725D01*
X46066474Y-81017361D01*
X46066470Y-81017358D01*
X45954333Y-80942430D01*
X45954324Y-80942425D01*
X45829720Y-80890813D01*
X45829714Y-80890811D01*
X45697439Y-80864500D01*
X45697437Y-80864500D01*
X45562563Y-80864500D01*
X45562561Y-80864500D01*
X45430285Y-80890811D01*
X45430279Y-80890813D01*
X45305675Y-80942425D01*
X45305666Y-80942430D01*
X45193529Y-81017358D01*
X45193525Y-81017361D01*
X45098161Y-81112725D01*
X45098158Y-81112729D01*
X45023230Y-81224866D01*
X45023225Y-81224875D01*
X44971613Y-81349479D01*
X44971611Y-81349485D01*
X44945300Y-81481760D01*
X44945300Y-81481763D01*
X44945300Y-81718237D01*
X44945300Y-81718239D01*
X44945299Y-81718239D01*
X43774700Y-81718239D01*
X43774700Y-81481760D01*
X43748388Y-81349485D01*
X43748387Y-81349484D01*
X43748387Y-81349480D01*
X43696773Y-81224873D01*
X43696772Y-81224872D01*
X43696769Y-81224866D01*
X43621841Y-81112729D01*
X43621838Y-81112725D01*
X43526474Y-81017361D01*
X43526470Y-81017358D01*
X43414333Y-80942430D01*
X43414324Y-80942425D01*
X43289720Y-80890813D01*
X43289714Y-80890811D01*
X43157439Y-80864500D01*
X43157437Y-80864500D01*
X43022563Y-80864500D01*
X43022561Y-80864500D01*
X42890285Y-80890811D01*
X42890279Y-80890813D01*
X42765675Y-80942425D01*
X42765666Y-80942430D01*
X42653529Y-81017358D01*
X42653525Y-81017361D01*
X42558161Y-81112725D01*
X42558154Y-81112734D01*
X42558097Y-81112820D01*
X42558055Y-81112854D01*
X42554295Y-81117437D01*
X42553425Y-81116723D01*
X42504482Y-81157621D01*
X42435156Y-81166324D01*
X42372131Y-81136165D01*
X42355821Y-81117341D01*
X42355705Y-81117437D01*
X42352148Y-81113103D01*
X42351903Y-81112820D01*
X42351845Y-81112734D01*
X42351838Y-81112725D01*
X42256474Y-81017361D01*
X42256470Y-81017358D01*
X42144333Y-80942430D01*
X42144324Y-80942425D01*
X42019720Y-80890813D01*
X42019714Y-80890811D01*
X41887439Y-80864500D01*
X41887437Y-80864500D01*
X41752563Y-80864500D01*
X41752561Y-80864500D01*
X41620285Y-80890811D01*
X41620279Y-80890813D01*
X41495675Y-80942425D01*
X41495666Y-80942430D01*
X41383529Y-81017358D01*
X41383525Y-81017361D01*
X41288161Y-81112725D01*
X41288154Y-81112734D01*
X41288097Y-81112820D01*
X41288055Y-81112854D01*
X41284295Y-81117437D01*
X41283425Y-81116723D01*
X41234482Y-81157621D01*
X41165156Y-81166324D01*
X41102131Y-81136165D01*
X41085821Y-81117341D01*
X41085705Y-81117437D01*
X41082148Y-81113103D01*
X41081903Y-81112820D01*
X41081845Y-81112734D01*
X41081838Y-81112725D01*
X40986474Y-81017361D01*
X40986470Y-81017358D01*
X40874333Y-80942430D01*
X40874324Y-80942425D01*
X40749720Y-80890813D01*
X40749714Y-80890811D01*
X40617439Y-80864500D01*
X40617437Y-80864500D01*
X40482563Y-80864500D01*
X40482561Y-80864500D01*
X40350285Y-80890811D01*
X40350279Y-80890813D01*
X40225675Y-80942425D01*
X40225666Y-80942430D01*
X40113529Y-81017358D01*
X40113525Y-81017361D01*
X40018161Y-81112725D01*
X40018158Y-81112729D01*
X39943230Y-81224866D01*
X39943225Y-81224875D01*
X39891613Y-81349479D01*
X39891611Y-81349485D01*
X39865300Y-81481760D01*
X39865300Y-81481763D01*
X39865300Y-81718237D01*
X39865300Y-81718239D01*
X39865299Y-81718239D01*
X38605902Y-81718239D01*
X38605902Y-81478329D01*
X38567837Y-81238000D01*
X38541720Y-81157621D01*
X38492644Y-81006580D01*
X38382174Y-80789772D01*
X38239148Y-80592914D01*
X38067088Y-80420854D01*
X37870230Y-80277828D01*
X37653422Y-80167358D01*
X37593404Y-80147857D01*
X37422001Y-80092164D01*
X37181672Y-80054100D01*
X37181667Y-80054100D01*
X36938337Y-80054100D01*
X36938332Y-80054100D01*
X36698002Y-80092164D01*
X36466579Y-80167359D01*
X36249773Y-80277828D01*
X36137459Y-80359429D01*
X36052916Y-80420854D01*
X36052914Y-80420856D01*
X36052913Y-80420856D01*
X35880858Y-80592911D01*
X35880858Y-80592912D01*
X35880856Y-80592914D01*
X35819431Y-80677457D01*
X35737830Y-80789771D01*
X35627361Y-81006577D01*
X35552166Y-81238000D01*
X35514102Y-81478329D01*
X34550500Y-81478329D01*
X34550500Y-71587648D01*
X83099500Y-71587648D01*
X83099500Y-71792351D01*
X83131522Y-71994534D01*
X83194781Y-72189223D01*
X83287715Y-72371613D01*
X83408028Y-72537213D01*
X83552786Y-72681971D01*
X83702193Y-72790519D01*
X83718390Y-72802287D01*
X83834607Y-72861503D01*
X83900776Y-72895218D01*
X83900778Y-72895218D01*
X83900781Y-72895220D01*
X83998430Y-72926948D01*
X84095465Y-72958477D01*
X84196557Y-72974488D01*
X84297648Y-72990500D01*
X84297649Y-72990500D01*
X84502351Y-72990500D01*
X84502352Y-72990500D01*
X84704534Y-72958477D01*
X84899219Y-72895220D01*
X85081610Y-72802287D01*
X85174590Y-72734732D01*
X85247213Y-72681971D01*
X85247215Y-72681968D01*
X85247219Y-72681966D01*
X85391966Y-72537219D01*
X85391968Y-72537215D01*
X85391971Y-72537213D01*
X85449123Y-72458549D01*
X85512287Y-72371610D01*
X85605220Y-72189219D01*
X85668477Y-71994534D01*
X85700500Y-71792352D01*
X85700500Y-71587648D01*
X85668477Y-71385466D01*
X85605220Y-71190781D01*
X85605218Y-71190778D01*
X85605218Y-71190776D01*
X85571503Y-71124607D01*
X85512287Y-71008390D01*
X85504556Y-70997749D01*
X85391971Y-70842786D01*
X85247213Y-70698028D01*
X85081613Y-70577715D01*
X85081612Y-70577714D01*
X85081610Y-70577713D01*
X85024653Y-70548691D01*
X84899223Y-70484781D01*
X84704534Y-70421522D01*
X84529995Y-70393878D01*
X84502352Y-70389500D01*
X84297648Y-70389500D01*
X84273329Y-70393351D01*
X84095465Y-70421522D01*
X83900776Y-70484781D01*
X83718386Y-70577715D01*
X83552786Y-70698028D01*
X83408028Y-70842786D01*
X83287715Y-71008386D01*
X83194781Y-71190776D01*
X83131522Y-71385465D01*
X83099500Y-71587648D01*
X34550500Y-71587648D01*
X34550500Y-65470943D01*
X55189500Y-65470943D01*
X55189500Y-65629057D01*
X55223068Y-65754332D01*
X55230423Y-65781783D01*
X55230426Y-65781790D01*
X55309475Y-65918709D01*
X55309479Y-65918714D01*
X55309480Y-65918716D01*
X55421284Y-66030520D01*
X55421286Y-66030521D01*
X55421290Y-66030524D01*
X55531433Y-66094114D01*
X55558216Y-66109577D01*
X55710943Y-66150500D01*
X56570902Y-66150500D01*
X56637941Y-66170185D01*
X56683696Y-66222989D01*
X56693640Y-66292147D01*
X56664615Y-66355703D01*
X56658583Y-66362181D01*
X56569481Y-66451282D01*
X56569475Y-66451290D01*
X56490426Y-66588209D01*
X56490423Y-66588216D01*
X56449500Y-66740943D01*
X56449500Y-66899057D01*
X56483068Y-67024332D01*
X56490423Y-67051783D01*
X56490426Y-67051790D01*
X56569475Y-67188709D01*
X56569479Y-67188714D01*
X56569480Y-67188716D01*
X56681284Y-67300520D01*
X56681286Y-67300521D01*
X56681290Y-67300524D01*
X56791433Y-67364114D01*
X56818216Y-67379577D01*
X56970943Y-67420500D01*
X57860902Y-67420500D01*
X57927941Y-67440185D01*
X57973696Y-67492989D01*
X57983640Y-67562147D01*
X57954615Y-67625703D01*
X57948583Y-67632181D01*
X57849481Y-67731282D01*
X57849475Y-67731290D01*
X57770426Y-67868209D01*
X57770423Y-67868216D01*
X57729500Y-68020943D01*
X57729500Y-68179056D01*
X57770423Y-68331783D01*
X57770426Y-68331790D01*
X57849475Y-68468709D01*
X57849479Y-68468714D01*
X57849480Y-68468716D01*
X57961284Y-68580520D01*
X57961286Y-68580521D01*
X57961290Y-68580524D01*
X58054107Y-68634111D01*
X58098216Y-68659577D01*
X58250943Y-68700500D01*
X58250945Y-68700500D01*
X58409055Y-68700500D01*
X58409057Y-68700500D01*
X58430610Y-68694724D01*
X58462702Y-68690500D01*
X83800230Y-68690500D01*
X83862369Y-68708746D01*
X83862819Y-68707905D01*
X83866859Y-68710064D01*
X83867269Y-68710185D01*
X83868087Y-68710721D01*
X83868190Y-68710776D01*
X83995667Y-68763578D01*
X83995672Y-68763580D01*
X83995676Y-68763580D01*
X83995677Y-68763581D01*
X84131004Y-68790500D01*
X84131007Y-68790500D01*
X84668995Y-68790500D01*
X84760041Y-68772389D01*
X84804328Y-68763580D01*
X84931811Y-68710775D01*
X85046542Y-68634114D01*
X85144114Y-68536542D01*
X85220775Y-68421811D01*
X85273580Y-68294328D01*
X85296509Y-68179057D01*
X85300500Y-68158995D01*
X85300500Y-68021004D01*
X85273581Y-67885677D01*
X85273580Y-67885676D01*
X85273580Y-67885672D01*
X85237258Y-67797983D01*
X85229456Y-67779147D01*
X124270800Y-67779147D01*
X124270800Y-70180852D01*
X124282431Y-70239329D01*
X124282432Y-70239330D01*
X124326747Y-70305652D01*
X124393069Y-70349967D01*
X124393070Y-70349968D01*
X124451547Y-70361599D01*
X124451550Y-70361600D01*
X124451552Y-70361600D01*
X126548450Y-70361600D01*
X126548451Y-70361599D01*
X126563268Y-70358652D01*
X126606929Y-70349968D01*
X126606929Y-70349967D01*
X126606931Y-70349967D01*
X126673252Y-70305652D01*
X126717567Y-70239331D01*
X126717567Y-70239329D01*
X126717568Y-70239329D01*
X126729199Y-70180852D01*
X126729200Y-70180850D01*
X126729200Y-67779149D01*
X126729199Y-67779147D01*
X126717568Y-67720670D01*
X126717567Y-67720669D01*
X126673252Y-67654347D01*
X126606930Y-67610032D01*
X126606929Y-67610031D01*
X126548452Y-67598400D01*
X126548448Y-67598400D01*
X124451552Y-67598400D01*
X124451547Y-67598400D01*
X124393070Y-67610031D01*
X124393069Y-67610032D01*
X124326747Y-67654347D01*
X124282432Y-67720669D01*
X124282431Y-67720670D01*
X124270800Y-67779147D01*
X85229456Y-67779147D01*
X85220778Y-67758194D01*
X85220771Y-67758182D01*
X85144114Y-67643458D01*
X85144111Y-67643454D01*
X85043338Y-67542681D01*
X85009853Y-67481358D01*
X85014837Y-67411666D01*
X85043338Y-67367319D01*
X85144111Y-67266545D01*
X85144114Y-67266542D01*
X85220775Y-67151811D01*
X85273580Y-67024328D01*
X85298498Y-66899057D01*
X85300500Y-66888995D01*
X85300500Y-66751004D01*
X85273581Y-66615677D01*
X85273580Y-66615676D01*
X85273580Y-66615672D01*
X85273578Y-66615667D01*
X85220778Y-66488195D01*
X85220771Y-66488182D01*
X85144114Y-66373458D01*
X85144111Y-66373454D01*
X85043338Y-66272681D01*
X85009853Y-66211358D01*
X85014837Y-66141666D01*
X85043338Y-66097319D01*
X85144111Y-65996545D01*
X85144114Y-65996542D01*
X85220775Y-65881811D01*
X85273580Y-65754328D01*
X85298498Y-65629057D01*
X85300500Y-65618995D01*
X85300500Y-65481004D01*
X85273581Y-65345677D01*
X85273580Y-65345676D01*
X85273580Y-65345672D01*
X85273578Y-65345667D01*
X85220778Y-65218195D01*
X85220771Y-65218182D01*
X85144114Y-65103458D01*
X85144111Y-65103454D01*
X85046545Y-65005888D01*
X85046541Y-65005885D01*
X84931817Y-64929228D01*
X84931804Y-64929221D01*
X84804332Y-64876421D01*
X84804322Y-64876418D01*
X84668995Y-64849500D01*
X84668993Y-64849500D01*
X84131007Y-64849500D01*
X84131005Y-64849500D01*
X83995677Y-64876418D01*
X83995667Y-64876421D01*
X83868190Y-64929223D01*
X83862819Y-64932095D01*
X83862123Y-64930794D01*
X83802438Y-64949480D01*
X83800230Y-64949500D01*
X55710943Y-64949500D01*
X55558216Y-64990423D01*
X55558209Y-64990426D01*
X55421290Y-65069475D01*
X55421282Y-65069481D01*
X55309481Y-65181282D01*
X55309475Y-65181290D01*
X55230426Y-65318209D01*
X55230423Y-65318216D01*
X55189500Y-65470943D01*
X34550500Y-65470943D01*
X34550500Y-57979054D01*
X47569498Y-57979054D01*
X47610424Y-58131789D01*
X47610425Y-58131790D01*
X47627742Y-58161783D01*
X47627743Y-58161784D01*
X47689477Y-58268712D01*
X47689479Y-58268715D01*
X47689480Y-58268716D01*
X47719480Y-58298716D01*
X47831284Y-58410520D01*
X47831286Y-58410521D01*
X47831290Y-58410524D01*
X47941433Y-58474114D01*
X47968216Y-58489577D01*
X48080019Y-58519534D01*
X48120942Y-58530500D01*
X48120943Y-58530500D01*
X48970902Y-58530500D01*
X49037941Y-58550185D01*
X49083696Y-58602989D01*
X49093640Y-58672147D01*
X49064615Y-58735703D01*
X49058583Y-58742181D01*
X48969481Y-58831282D01*
X48969475Y-58831290D01*
X48890426Y-58968209D01*
X48890423Y-58968216D01*
X48849500Y-59120943D01*
X48849500Y-59279057D01*
X48883068Y-59404332D01*
X48890423Y-59431783D01*
X48890426Y-59431790D01*
X48969475Y-59568709D01*
X48969479Y-59568714D01*
X48969480Y-59568716D01*
X49081284Y-59680520D01*
X49081286Y-59680521D01*
X49081290Y-59680524D01*
X49191433Y-59744114D01*
X49218216Y-59759577D01*
X49370943Y-59800500D01*
X50210902Y-59800500D01*
X50277941Y-59820185D01*
X50323696Y-59872989D01*
X50333640Y-59942147D01*
X50304615Y-60005703D01*
X50298583Y-60012181D01*
X50229481Y-60081282D01*
X50229475Y-60081290D01*
X50150426Y-60218209D01*
X50150423Y-60218216D01*
X50109500Y-60370943D01*
X50109500Y-60529057D01*
X50148427Y-60674332D01*
X50150423Y-60681783D01*
X50150426Y-60681790D01*
X50229475Y-60818709D01*
X50229479Y-60818714D01*
X50229480Y-60818716D01*
X50249480Y-60838716D01*
X50361284Y-60950520D01*
X50361286Y-60950521D01*
X50361290Y-60950524D01*
X50471428Y-61014111D01*
X50498216Y-61029577D01*
X50650943Y-61070500D01*
X83800230Y-61070500D01*
X83862369Y-61088746D01*
X83862819Y-61087905D01*
X83866859Y-61090064D01*
X83867269Y-61090185D01*
X83868087Y-61090721D01*
X83868190Y-61090776D01*
X83995667Y-61143578D01*
X83995672Y-61143580D01*
X83995676Y-61143580D01*
X83995677Y-61143581D01*
X84131004Y-61170500D01*
X84131007Y-61170500D01*
X84668995Y-61170500D01*
X84760041Y-61152389D01*
X84804328Y-61143580D01*
X84931811Y-61090775D01*
X85046542Y-61014114D01*
X85144114Y-60916542D01*
X85220775Y-60801811D01*
X85273580Y-60674328D01*
X85300500Y-60538993D01*
X85300500Y-60401007D01*
X85300500Y-60401004D01*
X85273581Y-60265677D01*
X85273580Y-60265676D01*
X85273580Y-60265672D01*
X85253920Y-60218209D01*
X85220778Y-60138195D01*
X85220771Y-60138182D01*
X85144114Y-60023458D01*
X85144111Y-60023454D01*
X85043338Y-59922681D01*
X85009853Y-59861358D01*
X85014837Y-59791666D01*
X85043338Y-59747319D01*
X85144111Y-59646545D01*
X85144114Y-59646542D01*
X85220775Y-59531811D01*
X85273580Y-59404328D01*
X85298498Y-59279057D01*
X85300500Y-59268995D01*
X85300500Y-59131004D01*
X85273581Y-58995677D01*
X85273580Y-58995676D01*
X85273580Y-58995672D01*
X85273578Y-58995667D01*
X85220778Y-58868195D01*
X85220771Y-58868182D01*
X85144114Y-58753458D01*
X85144111Y-58753454D01*
X85043338Y-58652681D01*
X85009853Y-58591358D01*
X85014837Y-58521666D01*
X85043338Y-58477319D01*
X85144111Y-58376545D01*
X85144114Y-58376542D01*
X85220775Y-58261811D01*
X85273580Y-58134328D01*
X85300500Y-57998993D01*
X85300500Y-57861007D01*
X85300500Y-57861004D01*
X85273581Y-57725677D01*
X85273580Y-57725676D01*
X85273580Y-57725672D01*
X85249780Y-57668213D01*
X85220778Y-57598195D01*
X85220771Y-57598182D01*
X85144114Y-57483458D01*
X85144111Y-57483454D01*
X85046545Y-57385888D01*
X85046541Y-57385885D01*
X84931817Y-57309228D01*
X84931804Y-57309221D01*
X84804332Y-57256421D01*
X84804322Y-57256418D01*
X84668995Y-57229500D01*
X84668993Y-57229500D01*
X84131007Y-57229500D01*
X84131005Y-57229500D01*
X83995677Y-57256418D01*
X83995667Y-57256421D01*
X83868190Y-57309223D01*
X83862819Y-57312095D01*
X83862123Y-57310794D01*
X83802438Y-57329480D01*
X83800230Y-57329500D01*
X48377346Y-57329500D01*
X48345252Y-57325275D01*
X48249057Y-57299499D01*
X48090943Y-57299499D01*
X47983587Y-57328265D01*
X47938210Y-57340424D01*
X47938209Y-57340425D01*
X47888096Y-57369359D01*
X47888095Y-57369360D01*
X47844689Y-57394420D01*
X47801285Y-57419479D01*
X47801282Y-57419481D01*
X47689481Y-57531282D01*
X47689477Y-57531287D01*
X47672161Y-57561282D01*
X47672160Y-57561284D01*
X47610423Y-57668215D01*
X47569499Y-57820943D01*
X47569499Y-57820945D01*
X47569499Y-57979054D01*
X47569498Y-57979054D01*
X34550500Y-57979054D01*
X34550500Y-55479054D01*
X45029498Y-55479054D01*
X45070422Y-55631783D01*
X45096304Y-55676611D01*
X45096306Y-55676614D01*
X45149479Y-55768714D01*
X45149481Y-55768717D01*
X45261284Y-55880520D01*
X45348095Y-55930639D01*
X45348097Y-55930641D01*
X45386151Y-55952611D01*
X45398215Y-55959577D01*
X45550943Y-56000501D01*
X45550946Y-56000501D01*
X45709055Y-56000501D01*
X45709057Y-56000501D01*
X45725669Y-55996049D01*
X45730614Y-55994725D01*
X45762706Y-55990500D01*
X83800230Y-55990500D01*
X83862369Y-56008746D01*
X83862819Y-56007905D01*
X83866859Y-56010064D01*
X83867269Y-56010185D01*
X83868087Y-56010721D01*
X83868190Y-56010776D01*
X83995667Y-56063578D01*
X83995672Y-56063580D01*
X83995676Y-56063580D01*
X83995677Y-56063581D01*
X84131004Y-56090500D01*
X84131007Y-56090500D01*
X84668995Y-56090500D01*
X84760041Y-56072389D01*
X84804328Y-56063580D01*
X84931811Y-56010775D01*
X85046542Y-55934114D01*
X85144114Y-55836542D01*
X85220775Y-55721811D01*
X85273580Y-55594328D01*
X85300500Y-55458993D01*
X85300500Y-55321007D01*
X85300500Y-55321004D01*
X85273581Y-55185677D01*
X85273580Y-55185676D01*
X85273580Y-55185672D01*
X85266348Y-55168213D01*
X85220778Y-55058195D01*
X85220771Y-55058182D01*
X85144114Y-54943458D01*
X85144111Y-54943454D01*
X85046545Y-54845888D01*
X85046541Y-54845885D01*
X84931817Y-54769228D01*
X84931804Y-54769221D01*
X84804332Y-54716421D01*
X84804322Y-54716418D01*
X84668995Y-54689500D01*
X84668993Y-54689500D01*
X84131007Y-54689500D01*
X84131005Y-54689500D01*
X83995677Y-54716418D01*
X83995667Y-54716421D01*
X83868190Y-54769223D01*
X83862819Y-54772095D01*
X83862123Y-54770794D01*
X83802438Y-54789480D01*
X83800230Y-54789500D01*
X45560943Y-54789500D01*
X45408215Y-54830423D01*
X45393195Y-54839094D01*
X45393176Y-54839105D01*
X45390895Y-54840423D01*
X45271284Y-54909480D01*
X45261284Y-54919480D01*
X45251650Y-54929113D01*
X45251648Y-54929115D01*
X45149481Y-55031282D01*
X45149480Y-55031284D01*
X45133947Y-55058189D01*
X45070423Y-55168215D01*
X45029499Y-55320943D01*
X45029499Y-55320945D01*
X45029499Y-55479054D01*
X45029498Y-55479054D01*
X34550500Y-55479054D01*
X34550500Y-50230943D01*
X39959500Y-50230943D01*
X39959500Y-50389057D01*
X39993068Y-50514332D01*
X40000423Y-50541783D01*
X40000426Y-50541790D01*
X40079475Y-50678709D01*
X40079479Y-50678714D01*
X40079480Y-50678716D01*
X40191284Y-50790520D01*
X40191286Y-50790521D01*
X40191290Y-50790524D01*
X40301433Y-50854114D01*
X40328216Y-50869577D01*
X40480943Y-50910500D01*
X41360902Y-50910500D01*
X41377328Y-50915323D01*
X41394449Y-50915124D01*
X41410159Y-50924963D01*
X41427941Y-50930185D01*
X41439150Y-50943121D01*
X41453663Y-50952211D01*
X41461559Y-50968983D01*
X41473696Y-50982989D01*
X41476132Y-50999934D01*
X41483426Y-51015425D01*
X41481002Y-51033801D01*
X41483640Y-51052147D01*
X41476482Y-51068063D01*
X41474289Y-51084694D01*
X41458938Y-51107080D01*
X41455554Y-51114606D01*
X41452227Y-51118536D01*
X41451284Y-51119480D01*
X41339480Y-51231284D01*
X41307842Y-51286083D01*
X41260423Y-51368215D01*
X41219499Y-51520943D01*
X41219499Y-51520945D01*
X41219499Y-51679054D01*
X41219498Y-51679054D01*
X41219499Y-51679057D01*
X41260423Y-51831785D01*
X41284748Y-51873917D01*
X41339477Y-51968712D01*
X41339479Y-51968715D01*
X41339480Y-51968716D01*
X41451284Y-52080520D01*
X41526792Y-52124114D01*
X41588215Y-52159577D01*
X41740943Y-52200501D01*
X41740946Y-52200501D01*
X41899055Y-52200501D01*
X41899057Y-52200501D01*
X41949817Y-52186899D01*
X41957934Y-52184725D01*
X41990027Y-52180500D01*
X42610902Y-52180500D01*
X42677941Y-52200185D01*
X42723696Y-52252989D01*
X42733640Y-52322147D01*
X42704615Y-52385703D01*
X42698583Y-52392181D01*
X42609481Y-52481282D01*
X42609475Y-52481290D01*
X42530426Y-52618209D01*
X42530423Y-52618216D01*
X42489500Y-52770943D01*
X42489500Y-52929057D01*
X42523068Y-53054332D01*
X42530423Y-53081783D01*
X42530426Y-53081790D01*
X42609475Y-53218709D01*
X42609479Y-53218714D01*
X42609480Y-53218716D01*
X42721284Y-53330520D01*
X42721286Y-53330521D01*
X42721290Y-53330524D01*
X42831428Y-53394111D01*
X42858216Y-53409577D01*
X43010943Y-53450500D01*
X83800230Y-53450500D01*
X83862369Y-53468746D01*
X83862819Y-53467905D01*
X83866859Y-53470064D01*
X83867269Y-53470185D01*
X83868087Y-53470721D01*
X83868190Y-53470776D01*
X83995667Y-53523578D01*
X83995672Y-53523580D01*
X83995676Y-53523580D01*
X83995677Y-53523581D01*
X84131004Y-53550500D01*
X84131007Y-53550500D01*
X84668995Y-53550500D01*
X84760041Y-53532389D01*
X84804328Y-53523580D01*
X84931811Y-53470775D01*
X85046542Y-53394114D01*
X85144114Y-53296542D01*
X85220775Y-53181811D01*
X85273580Y-53054328D01*
X85298498Y-52929057D01*
X85300500Y-52918995D01*
X85300500Y-52781004D01*
X85273581Y-52645677D01*
X85273580Y-52645676D01*
X85273580Y-52645672D01*
X85273578Y-52645667D01*
X85220778Y-52518195D01*
X85220771Y-52518182D01*
X85144114Y-52403458D01*
X85144111Y-52403454D01*
X85043338Y-52302681D01*
X85009853Y-52241358D01*
X85014837Y-52171666D01*
X85043338Y-52127319D01*
X85144111Y-52026545D01*
X85144114Y-52026542D01*
X85220775Y-51911811D01*
X85273580Y-51784328D01*
X85294520Y-51679057D01*
X85300500Y-51648995D01*
X85300500Y-51511004D01*
X85273581Y-51375677D01*
X85273580Y-51375676D01*
X85273580Y-51375672D01*
X85270490Y-51368213D01*
X85220778Y-51248195D01*
X85220771Y-51248182D01*
X85144114Y-51133458D01*
X85144111Y-51133454D01*
X85043338Y-51032681D01*
X85009853Y-50971358D01*
X85014837Y-50901666D01*
X85043338Y-50857319D01*
X85144111Y-50756545D01*
X85144114Y-50756542D01*
X85220775Y-50641811D01*
X85273580Y-50514328D01*
X85298498Y-50389057D01*
X85300500Y-50378995D01*
X85300500Y-50241004D01*
X85273581Y-50105677D01*
X85273580Y-50105676D01*
X85273580Y-50105672D01*
X85273578Y-50105667D01*
X85220778Y-49978195D01*
X85220771Y-49978182D01*
X85144114Y-49863458D01*
X85144111Y-49863454D01*
X85046545Y-49765888D01*
X85046541Y-49765885D01*
X84931817Y-49689228D01*
X84931804Y-49689221D01*
X84804332Y-49636421D01*
X84804322Y-49636418D01*
X84668995Y-49609500D01*
X84668993Y-49609500D01*
X84131007Y-49609500D01*
X84131005Y-49609500D01*
X83995677Y-49636418D01*
X83995667Y-49636421D01*
X83868190Y-49689223D01*
X83862819Y-49692095D01*
X83862123Y-49690794D01*
X83802438Y-49709480D01*
X83800230Y-49709500D01*
X40480943Y-49709500D01*
X40328216Y-49750423D01*
X40328209Y-49750426D01*
X40191290Y-49829475D01*
X40191282Y-49829481D01*
X40079481Y-49941282D01*
X40079475Y-49941290D01*
X40000426Y-50078209D01*
X40000423Y-50078216D01*
X39959500Y-50230943D01*
X34550500Y-50230943D01*
X34550500Y-47087648D01*
X83099500Y-47087648D01*
X83099500Y-47292351D01*
X83131522Y-47494534D01*
X83194781Y-47689223D01*
X83287715Y-47871613D01*
X83408028Y-48037213D01*
X83552786Y-48181971D01*
X83707749Y-48294556D01*
X83718390Y-48302287D01*
X83834607Y-48361503D01*
X83900776Y-48395218D01*
X83900778Y-48395218D01*
X83900781Y-48395220D01*
X84005137Y-48429127D01*
X84095465Y-48458477D01*
X84196557Y-48474488D01*
X84297648Y-48490500D01*
X84297649Y-48490500D01*
X84502351Y-48490500D01*
X84502352Y-48490500D01*
X84704534Y-48458477D01*
X84899219Y-48395220D01*
X85081610Y-48302287D01*
X85168513Y-48239147D01*
X124270800Y-48239147D01*
X124270800Y-50640852D01*
X124282431Y-50699329D01*
X124282432Y-50699330D01*
X124326747Y-50765652D01*
X124393069Y-50809967D01*
X124393070Y-50809968D01*
X124451547Y-50821599D01*
X124451550Y-50821600D01*
X124451552Y-50821600D01*
X126548450Y-50821600D01*
X126548451Y-50821599D01*
X126563268Y-50818652D01*
X126606929Y-50809968D01*
X126606929Y-50809967D01*
X126606931Y-50809967D01*
X126673252Y-50765652D01*
X126717567Y-50699331D01*
X126717567Y-50699329D01*
X126717568Y-50699329D01*
X126729199Y-50640852D01*
X126729200Y-50640850D01*
X126729200Y-48239149D01*
X126729199Y-48239147D01*
X126717568Y-48180670D01*
X126717567Y-48180669D01*
X126673252Y-48114347D01*
X126606930Y-48070032D01*
X126606929Y-48070031D01*
X126548452Y-48058400D01*
X126548448Y-48058400D01*
X124451552Y-48058400D01*
X124451547Y-48058400D01*
X124393070Y-48070031D01*
X124393069Y-48070032D01*
X124326747Y-48114347D01*
X124282432Y-48180669D01*
X124282431Y-48180670D01*
X124270800Y-48239147D01*
X85168513Y-48239147D01*
X85174590Y-48234732D01*
X85247213Y-48181971D01*
X85247215Y-48181968D01*
X85247219Y-48181966D01*
X85391966Y-48037219D01*
X85391968Y-48037215D01*
X85391971Y-48037213D01*
X85444732Y-47964590D01*
X85512287Y-47871610D01*
X85605220Y-47689219D01*
X85668477Y-47494534D01*
X85700500Y-47292352D01*
X85700500Y-47087648D01*
X85668477Y-46885466D01*
X85605220Y-46690781D01*
X85605218Y-46690778D01*
X85605218Y-46690776D01*
X85571503Y-46624607D01*
X85512287Y-46508390D01*
X85504556Y-46497749D01*
X85391971Y-46342786D01*
X85247213Y-46198028D01*
X85081613Y-46077715D01*
X85081612Y-46077714D01*
X85081610Y-46077713D01*
X85024653Y-46048691D01*
X84899223Y-45984781D01*
X84704534Y-45921522D01*
X84529995Y-45893878D01*
X84502352Y-45889500D01*
X84297648Y-45889500D01*
X84273329Y-45893351D01*
X84095465Y-45921522D01*
X83900776Y-45984781D01*
X83718386Y-46077715D01*
X83552786Y-46198028D01*
X83408028Y-46342786D01*
X83287715Y-46508386D01*
X83194781Y-46690776D01*
X83131522Y-46885465D01*
X83099500Y-47087648D01*
X34550500Y-47087648D01*
X34550500Y-37478329D01*
X35514102Y-37478329D01*
X35514102Y-37721670D01*
X35552166Y-37961999D01*
X35592870Y-38087270D01*
X35627360Y-38193420D01*
X35737830Y-38410228D01*
X35880856Y-38607086D01*
X36052916Y-38779146D01*
X36249774Y-38922172D01*
X36466582Y-39032642D01*
X36642309Y-39089739D01*
X36698002Y-39107835D01*
X36938332Y-39145900D01*
X36938337Y-39145900D01*
X37181672Y-39145900D01*
X37422001Y-39107835D01*
X37653422Y-39032642D01*
X37870230Y-38922172D01*
X38067088Y-38779146D01*
X38239148Y-38607086D01*
X38382174Y-38410228D01*
X38492644Y-38193420D01*
X38567837Y-37961999D01*
X38577522Y-37900850D01*
X38605902Y-37721670D01*
X38605902Y-37718239D01*
X39865299Y-37718239D01*
X39891611Y-37850514D01*
X39891613Y-37850520D01*
X39943225Y-37975124D01*
X39943230Y-37975133D01*
X40018158Y-38087270D01*
X40018161Y-38087274D01*
X40113525Y-38182638D01*
X40113529Y-38182641D01*
X40225666Y-38257569D01*
X40225672Y-38257572D01*
X40225673Y-38257573D01*
X40350280Y-38309187D01*
X40350284Y-38309187D01*
X40350285Y-38309188D01*
X40482560Y-38335500D01*
X40482563Y-38335500D01*
X40617439Y-38335500D01*
X40706431Y-38317797D01*
X40749720Y-38309187D01*
X40874327Y-38257573D01*
X40986471Y-38182641D01*
X41081841Y-38087271D01*
X41081863Y-38087237D01*
X41081897Y-38087188D01*
X41081936Y-38087154D01*
X41085705Y-38082563D01*
X41086575Y-38083277D01*
X41135508Y-38042382D01*
X41204833Y-38033673D01*
X41267861Y-38063827D01*
X41284178Y-38082658D01*
X41284295Y-38082563D01*
X41287867Y-38086916D01*
X41288103Y-38087188D01*
X41288157Y-38087269D01*
X41288161Y-38087274D01*
X41383525Y-38182638D01*
X41383529Y-38182641D01*
X41495666Y-38257569D01*
X41495672Y-38257572D01*
X41495673Y-38257573D01*
X41620280Y-38309187D01*
X41620284Y-38309187D01*
X41620285Y-38309188D01*
X41752560Y-38335500D01*
X41752563Y-38335500D01*
X41887439Y-38335500D01*
X41976431Y-38317797D01*
X42019720Y-38309187D01*
X42144327Y-38257573D01*
X42256471Y-38182641D01*
X42351841Y-38087271D01*
X42351863Y-38087237D01*
X42351897Y-38087188D01*
X42351936Y-38087154D01*
X42355705Y-38082563D01*
X42356575Y-38083277D01*
X42405508Y-38042382D01*
X42474833Y-38033673D01*
X42537861Y-38063827D01*
X42554178Y-38082658D01*
X42554295Y-38082563D01*
X42557867Y-38086916D01*
X42558103Y-38087188D01*
X42558157Y-38087269D01*
X42558161Y-38087274D01*
X42653525Y-38182638D01*
X42653529Y-38182641D01*
X42765666Y-38257569D01*
X42765672Y-38257572D01*
X42765673Y-38257573D01*
X42890280Y-38309187D01*
X42890284Y-38309187D01*
X42890285Y-38309188D01*
X43022560Y-38335500D01*
X43022563Y-38335500D01*
X43157439Y-38335500D01*
X43246431Y-38317797D01*
X43289720Y-38309187D01*
X43414327Y-38257573D01*
X43526471Y-38182641D01*
X43621841Y-38087271D01*
X43696773Y-37975127D01*
X43748387Y-37850520D01*
X43756997Y-37807231D01*
X43774700Y-37718239D01*
X44945299Y-37718239D01*
X44971611Y-37850514D01*
X44971613Y-37850520D01*
X45023225Y-37975124D01*
X45023230Y-37975133D01*
X45098158Y-38087270D01*
X45098161Y-38087274D01*
X45193525Y-38182638D01*
X45193529Y-38182641D01*
X45305666Y-38257569D01*
X45305672Y-38257572D01*
X45305673Y-38257573D01*
X45430280Y-38309187D01*
X45430284Y-38309187D01*
X45430285Y-38309188D01*
X45562560Y-38335500D01*
X45562563Y-38335500D01*
X45697439Y-38335500D01*
X45786431Y-38317797D01*
X45829720Y-38309187D01*
X45954327Y-38257573D01*
X46066471Y-38182641D01*
X46161841Y-38087271D01*
X46236773Y-37975127D01*
X46288387Y-37850520D01*
X46296997Y-37807231D01*
X46314700Y-37718239D01*
X47485299Y-37718239D01*
X47511611Y-37850514D01*
X47511613Y-37850520D01*
X47563225Y-37975124D01*
X47563230Y-37975133D01*
X47638158Y-38087270D01*
X47638161Y-38087274D01*
X47733525Y-38182638D01*
X47733529Y-38182641D01*
X47845666Y-38257569D01*
X47845672Y-38257572D01*
X47845673Y-38257573D01*
X47970280Y-38309187D01*
X47970284Y-38309187D01*
X47970285Y-38309188D01*
X48102560Y-38335500D01*
X48102563Y-38335500D01*
X48237439Y-38335500D01*
X48326431Y-38317797D01*
X48369720Y-38309187D01*
X48494327Y-38257573D01*
X48606471Y-38182641D01*
X48701841Y-38087271D01*
X48701863Y-38087237D01*
X48701897Y-38087188D01*
X48701936Y-38087154D01*
X48705705Y-38082563D01*
X48706575Y-38083277D01*
X48755508Y-38042382D01*
X48824833Y-38033673D01*
X48887861Y-38063827D01*
X48904178Y-38082658D01*
X48904295Y-38082563D01*
X48907867Y-38086916D01*
X48908103Y-38087188D01*
X48908157Y-38087269D01*
X48908161Y-38087274D01*
X49003525Y-38182638D01*
X49003529Y-38182641D01*
X49115666Y-38257569D01*
X49115672Y-38257572D01*
X49115673Y-38257573D01*
X49240280Y-38309187D01*
X49240284Y-38309187D01*
X49240285Y-38309188D01*
X49372560Y-38335500D01*
X49372563Y-38335500D01*
X49507439Y-38335500D01*
X49596431Y-38317797D01*
X49639720Y-38309187D01*
X49764327Y-38257573D01*
X49876471Y-38182641D01*
X49971841Y-38087271D01*
X49971863Y-38087237D01*
X49971897Y-38087188D01*
X49971936Y-38087154D01*
X49975705Y-38082563D01*
X49976575Y-38083277D01*
X50025508Y-38042382D01*
X50094833Y-38033673D01*
X50157861Y-38063827D01*
X50174178Y-38082658D01*
X50174295Y-38082563D01*
X50177867Y-38086916D01*
X50178103Y-38087188D01*
X50178157Y-38087269D01*
X50178161Y-38087274D01*
X50273525Y-38182638D01*
X50273529Y-38182641D01*
X50385666Y-38257569D01*
X50385672Y-38257572D01*
X50385673Y-38257573D01*
X50510280Y-38309187D01*
X50510284Y-38309187D01*
X50510285Y-38309188D01*
X50642560Y-38335500D01*
X50642563Y-38335500D01*
X50777439Y-38335500D01*
X50866431Y-38317797D01*
X50909720Y-38309187D01*
X51034327Y-38257573D01*
X51146471Y-38182641D01*
X51241841Y-38087271D01*
X51316773Y-37975127D01*
X51368387Y-37850520D01*
X51376997Y-37807231D01*
X51394700Y-37718239D01*
X55105299Y-37718239D01*
X55131611Y-37850514D01*
X55131613Y-37850520D01*
X55183225Y-37975124D01*
X55183230Y-37975133D01*
X55258158Y-38087270D01*
X55258161Y-38087274D01*
X55353525Y-38182638D01*
X55353529Y-38182641D01*
X55465666Y-38257569D01*
X55465672Y-38257572D01*
X55465673Y-38257573D01*
X55590280Y-38309187D01*
X55590284Y-38309187D01*
X55590285Y-38309188D01*
X55722560Y-38335500D01*
X55722563Y-38335500D01*
X55857439Y-38335500D01*
X55946431Y-38317797D01*
X55989720Y-38309187D01*
X56114327Y-38257573D01*
X56226471Y-38182641D01*
X56321841Y-38087271D01*
X56321863Y-38087237D01*
X56321897Y-38087188D01*
X56321936Y-38087154D01*
X56325705Y-38082563D01*
X56326575Y-38083277D01*
X56375508Y-38042382D01*
X56444833Y-38033673D01*
X56507861Y-38063827D01*
X56524178Y-38082658D01*
X56524295Y-38082563D01*
X56527867Y-38086916D01*
X56528103Y-38087188D01*
X56528157Y-38087269D01*
X56528161Y-38087274D01*
X56623525Y-38182638D01*
X56623529Y-38182641D01*
X56735666Y-38257569D01*
X56735672Y-38257572D01*
X56735673Y-38257573D01*
X56860280Y-38309187D01*
X56860284Y-38309187D01*
X56860285Y-38309188D01*
X56992560Y-38335500D01*
X56992563Y-38335500D01*
X57127439Y-38335500D01*
X57216431Y-38317797D01*
X57259720Y-38309187D01*
X57384327Y-38257573D01*
X57496471Y-38182641D01*
X57591841Y-38087271D01*
X57591863Y-38087237D01*
X57591897Y-38087188D01*
X57591936Y-38087154D01*
X57595705Y-38082563D01*
X57596575Y-38083277D01*
X57645508Y-38042382D01*
X57714833Y-38033673D01*
X57777861Y-38063827D01*
X57794178Y-38082658D01*
X57794295Y-38082563D01*
X57797867Y-38086916D01*
X57798103Y-38087188D01*
X57798157Y-38087269D01*
X57798161Y-38087274D01*
X57893525Y-38182638D01*
X57893529Y-38182641D01*
X58005666Y-38257569D01*
X58005672Y-38257572D01*
X58005673Y-38257573D01*
X58130280Y-38309187D01*
X58130284Y-38309187D01*
X58130285Y-38309188D01*
X58262560Y-38335500D01*
X58262563Y-38335500D01*
X58397439Y-38335500D01*
X58486431Y-38317797D01*
X58529720Y-38309187D01*
X58654327Y-38257573D01*
X58766471Y-38182641D01*
X58861841Y-38087271D01*
X58936773Y-37975127D01*
X58988387Y-37850520D01*
X58996997Y-37807231D01*
X59014700Y-37718239D01*
X65265299Y-37718239D01*
X65291611Y-37850514D01*
X65291613Y-37850520D01*
X65343225Y-37975124D01*
X65343230Y-37975133D01*
X65418158Y-38087270D01*
X65418161Y-38087274D01*
X65513525Y-38182638D01*
X65513529Y-38182641D01*
X65625666Y-38257569D01*
X65625672Y-38257572D01*
X65625673Y-38257573D01*
X65750280Y-38309187D01*
X65750284Y-38309187D01*
X65750285Y-38309188D01*
X65882560Y-38335500D01*
X65882563Y-38335500D01*
X66017439Y-38335500D01*
X66106431Y-38317797D01*
X66149720Y-38309187D01*
X66274327Y-38257573D01*
X66386471Y-38182641D01*
X66481841Y-38087271D01*
X66481863Y-38087237D01*
X66481897Y-38087188D01*
X66481936Y-38087154D01*
X66485705Y-38082563D01*
X66486575Y-38083277D01*
X66535508Y-38042382D01*
X66604833Y-38033673D01*
X66667861Y-38063827D01*
X66684178Y-38082658D01*
X66684295Y-38082563D01*
X66687867Y-38086916D01*
X66688103Y-38087188D01*
X66688157Y-38087269D01*
X66688161Y-38087274D01*
X66783525Y-38182638D01*
X66783529Y-38182641D01*
X66895666Y-38257569D01*
X66895672Y-38257572D01*
X66895673Y-38257573D01*
X67020280Y-38309187D01*
X67020284Y-38309187D01*
X67020285Y-38309188D01*
X67152560Y-38335500D01*
X67152563Y-38335500D01*
X67287439Y-38335500D01*
X67376431Y-38317797D01*
X67419720Y-38309187D01*
X67544327Y-38257573D01*
X67656471Y-38182641D01*
X67751841Y-38087271D01*
X67826773Y-37975127D01*
X67878387Y-37850520D01*
X67886997Y-37807231D01*
X67904700Y-37718239D01*
X69075299Y-37718239D01*
X69101611Y-37850514D01*
X69101613Y-37850520D01*
X69153225Y-37975124D01*
X69153230Y-37975133D01*
X69228158Y-38087270D01*
X69228161Y-38087274D01*
X69323525Y-38182638D01*
X69323529Y-38182641D01*
X69435666Y-38257569D01*
X69435672Y-38257572D01*
X69435673Y-38257573D01*
X69560280Y-38309187D01*
X69560284Y-38309187D01*
X69560285Y-38309188D01*
X69692560Y-38335500D01*
X69692563Y-38335500D01*
X69827439Y-38335500D01*
X69916431Y-38317797D01*
X69959720Y-38309187D01*
X70084327Y-38257573D01*
X70196471Y-38182641D01*
X70291841Y-38087271D01*
X70291863Y-38087237D01*
X70291897Y-38087188D01*
X70291936Y-38087154D01*
X70295705Y-38082563D01*
X70296575Y-38083277D01*
X70345508Y-38042382D01*
X70414833Y-38033673D01*
X70477861Y-38063827D01*
X70494178Y-38082658D01*
X70494295Y-38082563D01*
X70497867Y-38086916D01*
X70498103Y-38087188D01*
X70498157Y-38087269D01*
X70498161Y-38087274D01*
X70593525Y-38182638D01*
X70593529Y-38182641D01*
X70705666Y-38257569D01*
X70705672Y-38257572D01*
X70705673Y-38257573D01*
X70830280Y-38309187D01*
X70830284Y-38309187D01*
X70830285Y-38309188D01*
X70962560Y-38335500D01*
X70962563Y-38335500D01*
X71097439Y-38335500D01*
X71186431Y-38317797D01*
X71229720Y-38309187D01*
X71354327Y-38257573D01*
X71466471Y-38182641D01*
X71561841Y-38087271D01*
X71636773Y-37975127D01*
X71688387Y-37850520D01*
X71696997Y-37807231D01*
X71714700Y-37718239D01*
X71714700Y-37481762D01*
X71714699Y-37481758D01*
X71714017Y-37478329D01*
X74254100Y-37478329D01*
X74254100Y-37721670D01*
X74292164Y-37961999D01*
X74332868Y-38087270D01*
X74367358Y-38193420D01*
X74477828Y-38410228D01*
X74620854Y-38607086D01*
X74792914Y-38779146D01*
X74989772Y-38922172D01*
X75206580Y-39032642D01*
X75382307Y-39089739D01*
X75438000Y-39107835D01*
X75678330Y-39145900D01*
X75678335Y-39145900D01*
X75921670Y-39145900D01*
X76161999Y-39107835D01*
X76393420Y-39032642D01*
X76610228Y-38922172D01*
X76807086Y-38779146D01*
X76979146Y-38607086D01*
X77122172Y-38410228D01*
X77232642Y-38193420D01*
X77307835Y-37961999D01*
X77317520Y-37900850D01*
X77345900Y-37721670D01*
X77345900Y-37478329D01*
X77307835Y-37238000D01*
X77281718Y-37157621D01*
X77232642Y-37006580D01*
X77122172Y-36789772D01*
X76979146Y-36592914D01*
X76807086Y-36420854D01*
X76610228Y-36277828D01*
X76393420Y-36167358D01*
X76333402Y-36147857D01*
X76161999Y-36092164D01*
X75921670Y-36054100D01*
X75921665Y-36054100D01*
X75678335Y-36054100D01*
X75678330Y-36054100D01*
X75438000Y-36092164D01*
X75206577Y-36167359D01*
X74989771Y-36277828D01*
X74877457Y-36359429D01*
X74792914Y-36420854D01*
X74792912Y-36420856D01*
X74792911Y-36420856D01*
X74620856Y-36592911D01*
X74620856Y-36592912D01*
X74620854Y-36592914D01*
X74559429Y-36677457D01*
X74477828Y-36789771D01*
X74367359Y-37006577D01*
X74292164Y-37238000D01*
X74254100Y-37478329D01*
X71714017Y-37478329D01*
X71688388Y-37349485D01*
X71688387Y-37349484D01*
X71688387Y-37349480D01*
X71636773Y-37224873D01*
X71636772Y-37224872D01*
X71636769Y-37224866D01*
X71561841Y-37112729D01*
X71561838Y-37112725D01*
X71466474Y-37017361D01*
X71466470Y-37017358D01*
X71354333Y-36942430D01*
X71354324Y-36942425D01*
X71229720Y-36890813D01*
X71229714Y-36890811D01*
X71097439Y-36864500D01*
X71097437Y-36864500D01*
X70962563Y-36864500D01*
X70962561Y-36864500D01*
X70830285Y-36890811D01*
X70830279Y-36890813D01*
X70705675Y-36942425D01*
X70705666Y-36942430D01*
X70593529Y-37017358D01*
X70593525Y-37017361D01*
X70498161Y-37112725D01*
X70498154Y-37112734D01*
X70498097Y-37112820D01*
X70498055Y-37112854D01*
X70494295Y-37117437D01*
X70493425Y-37116723D01*
X70444482Y-37157621D01*
X70375156Y-37166324D01*
X70312131Y-37136165D01*
X70295821Y-37117341D01*
X70295705Y-37117437D01*
X70292148Y-37113103D01*
X70291903Y-37112820D01*
X70291845Y-37112734D01*
X70291838Y-37112725D01*
X70196474Y-37017361D01*
X70196470Y-37017358D01*
X70084333Y-36942430D01*
X70084324Y-36942425D01*
X69959720Y-36890813D01*
X69959714Y-36890811D01*
X69827439Y-36864500D01*
X69827437Y-36864500D01*
X69692563Y-36864500D01*
X69692561Y-36864500D01*
X69560285Y-36890811D01*
X69560279Y-36890813D01*
X69435675Y-36942425D01*
X69435666Y-36942430D01*
X69323529Y-37017358D01*
X69323525Y-37017361D01*
X69228161Y-37112725D01*
X69228158Y-37112729D01*
X69153230Y-37224866D01*
X69153225Y-37224875D01*
X69101613Y-37349479D01*
X69101611Y-37349485D01*
X69075300Y-37481760D01*
X69075300Y-37481762D01*
X69075300Y-37481763D01*
X69075300Y-37718237D01*
X69075300Y-37718239D01*
X69075299Y-37718239D01*
X67904700Y-37718239D01*
X67904700Y-37481760D01*
X67878388Y-37349485D01*
X67878387Y-37349484D01*
X67878387Y-37349480D01*
X67826773Y-37224873D01*
X67826772Y-37224872D01*
X67826769Y-37224866D01*
X67751841Y-37112729D01*
X67751838Y-37112725D01*
X67656474Y-37017361D01*
X67656470Y-37017358D01*
X67544333Y-36942430D01*
X67544324Y-36942425D01*
X67419720Y-36890813D01*
X67419714Y-36890811D01*
X67287439Y-36864500D01*
X67287437Y-36864500D01*
X67152563Y-36864500D01*
X67152561Y-36864500D01*
X67020285Y-36890811D01*
X67020279Y-36890813D01*
X66895675Y-36942425D01*
X66895666Y-36942430D01*
X66783529Y-37017358D01*
X66783525Y-37017361D01*
X66688161Y-37112725D01*
X66688154Y-37112734D01*
X66688097Y-37112820D01*
X66688055Y-37112854D01*
X66684295Y-37117437D01*
X66683425Y-37116723D01*
X66634482Y-37157621D01*
X66565156Y-37166324D01*
X66502131Y-37136165D01*
X66485821Y-37117341D01*
X66485705Y-37117437D01*
X66482148Y-37113103D01*
X66481903Y-37112820D01*
X66481845Y-37112734D01*
X66481838Y-37112725D01*
X66386474Y-37017361D01*
X66386470Y-37017358D01*
X66274333Y-36942430D01*
X66274324Y-36942425D01*
X66149720Y-36890813D01*
X66149714Y-36890811D01*
X66017439Y-36864500D01*
X66017437Y-36864500D01*
X65882563Y-36864500D01*
X65882561Y-36864500D01*
X65750285Y-36890811D01*
X65750279Y-36890813D01*
X65625675Y-36942425D01*
X65625666Y-36942430D01*
X65513529Y-37017358D01*
X65513525Y-37017361D01*
X65418161Y-37112725D01*
X65418158Y-37112729D01*
X65343230Y-37224866D01*
X65343225Y-37224875D01*
X65291613Y-37349479D01*
X65291611Y-37349485D01*
X65265300Y-37481760D01*
X65265300Y-37481762D01*
X65265300Y-37481763D01*
X65265300Y-37718237D01*
X65265300Y-37718239D01*
X65265299Y-37718239D01*
X59014700Y-37718239D01*
X59014700Y-37481760D01*
X58988388Y-37349485D01*
X58988387Y-37349484D01*
X58988387Y-37349480D01*
X58936773Y-37224873D01*
X58936772Y-37224872D01*
X58936769Y-37224866D01*
X58861841Y-37112729D01*
X58861838Y-37112725D01*
X58766474Y-37017361D01*
X58766470Y-37017358D01*
X58654333Y-36942430D01*
X58654324Y-36942425D01*
X58529720Y-36890813D01*
X58529714Y-36890811D01*
X58397439Y-36864500D01*
X58397437Y-36864500D01*
X58262563Y-36864500D01*
X58262561Y-36864500D01*
X58130285Y-36890811D01*
X58130279Y-36890813D01*
X58005675Y-36942425D01*
X58005666Y-36942430D01*
X57893529Y-37017358D01*
X57893525Y-37017361D01*
X57798161Y-37112725D01*
X57798154Y-37112734D01*
X57798097Y-37112820D01*
X57798055Y-37112854D01*
X57794295Y-37117437D01*
X57793425Y-37116723D01*
X57744482Y-37157621D01*
X57675156Y-37166324D01*
X57612131Y-37136165D01*
X57595821Y-37117341D01*
X57595705Y-37117437D01*
X57592148Y-37113103D01*
X57591903Y-37112820D01*
X57591845Y-37112734D01*
X57591838Y-37112725D01*
X57496474Y-37017361D01*
X57496470Y-37017358D01*
X57384333Y-36942430D01*
X57384324Y-36942425D01*
X57259720Y-36890813D01*
X57259714Y-36890811D01*
X57127439Y-36864500D01*
X57127437Y-36864500D01*
X56992563Y-36864500D01*
X56992561Y-36864500D01*
X56860285Y-36890811D01*
X56860279Y-36890813D01*
X56735675Y-36942425D01*
X56735666Y-36942430D01*
X56623529Y-37017358D01*
X56623525Y-37017361D01*
X56528161Y-37112725D01*
X56528154Y-37112734D01*
X56528097Y-37112820D01*
X56528055Y-37112854D01*
X56524295Y-37117437D01*
X56523425Y-37116723D01*
X56474482Y-37157621D01*
X56405156Y-37166324D01*
X56342131Y-37136165D01*
X56325821Y-37117341D01*
X56325705Y-37117437D01*
X56322148Y-37113103D01*
X56321903Y-37112820D01*
X56321845Y-37112734D01*
X56321838Y-37112725D01*
X56226474Y-37017361D01*
X56226470Y-37017358D01*
X56114333Y-36942430D01*
X56114324Y-36942425D01*
X55989720Y-36890813D01*
X55989714Y-36890811D01*
X55857439Y-36864500D01*
X55857437Y-36864500D01*
X55722563Y-36864500D01*
X55722561Y-36864500D01*
X55590285Y-36890811D01*
X55590279Y-36890813D01*
X55465675Y-36942425D01*
X55465666Y-36942430D01*
X55353529Y-37017358D01*
X55353525Y-37017361D01*
X55258161Y-37112725D01*
X55258158Y-37112729D01*
X55183230Y-37224866D01*
X55183225Y-37224875D01*
X55131613Y-37349479D01*
X55131611Y-37349485D01*
X55105300Y-37481760D01*
X55105300Y-37481762D01*
X55105300Y-37481763D01*
X55105300Y-37718237D01*
X55105300Y-37718239D01*
X55105299Y-37718239D01*
X51394700Y-37718239D01*
X51394700Y-37481760D01*
X51368388Y-37349485D01*
X51368387Y-37349484D01*
X51368387Y-37349480D01*
X51316773Y-37224873D01*
X51316772Y-37224872D01*
X51316769Y-37224866D01*
X51241841Y-37112729D01*
X51241838Y-37112725D01*
X51146474Y-37017361D01*
X51146470Y-37017358D01*
X51034333Y-36942430D01*
X51034324Y-36942425D01*
X50909720Y-36890813D01*
X50909714Y-36890811D01*
X50777439Y-36864500D01*
X50777437Y-36864500D01*
X50642563Y-36864500D01*
X50642561Y-36864500D01*
X50510285Y-36890811D01*
X50510279Y-36890813D01*
X50385675Y-36942425D01*
X50385666Y-36942430D01*
X50273529Y-37017358D01*
X50273525Y-37017361D01*
X50178161Y-37112725D01*
X50178154Y-37112734D01*
X50178097Y-37112820D01*
X50178055Y-37112854D01*
X50174295Y-37117437D01*
X50173425Y-37116723D01*
X50124482Y-37157621D01*
X50055156Y-37166324D01*
X49992131Y-37136165D01*
X49975821Y-37117341D01*
X49975705Y-37117437D01*
X49972148Y-37113103D01*
X49971903Y-37112820D01*
X49971845Y-37112734D01*
X49971838Y-37112725D01*
X49876474Y-37017361D01*
X49876470Y-37017358D01*
X49764333Y-36942430D01*
X49764324Y-36942425D01*
X49639720Y-36890813D01*
X49639714Y-36890811D01*
X49507439Y-36864500D01*
X49507437Y-36864500D01*
X49372563Y-36864500D01*
X49372561Y-36864500D01*
X49240285Y-36890811D01*
X49240279Y-36890813D01*
X49115675Y-36942425D01*
X49115666Y-36942430D01*
X49003529Y-37017358D01*
X49003525Y-37017361D01*
X48908161Y-37112725D01*
X48908154Y-37112734D01*
X48908097Y-37112820D01*
X48908055Y-37112854D01*
X48904295Y-37117437D01*
X48903425Y-37116723D01*
X48854482Y-37157621D01*
X48785156Y-37166324D01*
X48722131Y-37136165D01*
X48705821Y-37117341D01*
X48705705Y-37117437D01*
X48702148Y-37113103D01*
X48701903Y-37112820D01*
X48701845Y-37112734D01*
X48701838Y-37112725D01*
X48606474Y-37017361D01*
X48606470Y-37017358D01*
X48494333Y-36942430D01*
X48494324Y-36942425D01*
X48369720Y-36890813D01*
X48369714Y-36890811D01*
X48237439Y-36864500D01*
X48237437Y-36864500D01*
X48102563Y-36864500D01*
X48102561Y-36864500D01*
X47970285Y-36890811D01*
X47970279Y-36890813D01*
X47845675Y-36942425D01*
X47845666Y-36942430D01*
X47733529Y-37017358D01*
X47733525Y-37017361D01*
X47638161Y-37112725D01*
X47638158Y-37112729D01*
X47563230Y-37224866D01*
X47563225Y-37224875D01*
X47511613Y-37349479D01*
X47511611Y-37349485D01*
X47485300Y-37481760D01*
X47485300Y-37481762D01*
X47485300Y-37481763D01*
X47485300Y-37718237D01*
X47485300Y-37718239D01*
X47485299Y-37718239D01*
X46314700Y-37718239D01*
X46314700Y-37481760D01*
X46288388Y-37349485D01*
X46288387Y-37349484D01*
X46288387Y-37349480D01*
X46236773Y-37224873D01*
X46236772Y-37224872D01*
X46236769Y-37224866D01*
X46161841Y-37112729D01*
X46161838Y-37112725D01*
X46066474Y-37017361D01*
X46066470Y-37017358D01*
X45954333Y-36942430D01*
X45954324Y-36942425D01*
X45829720Y-36890813D01*
X45829714Y-36890811D01*
X45697439Y-36864500D01*
X45697437Y-36864500D01*
X45562563Y-36864500D01*
X45562561Y-36864500D01*
X45430285Y-36890811D01*
X45430279Y-36890813D01*
X45305675Y-36942425D01*
X45305666Y-36942430D01*
X45193529Y-37017358D01*
X45193525Y-37017361D01*
X45098161Y-37112725D01*
X45098158Y-37112729D01*
X45023230Y-37224866D01*
X45023225Y-37224875D01*
X44971613Y-37349479D01*
X44971611Y-37349485D01*
X44945300Y-37481760D01*
X44945300Y-37481762D01*
X44945300Y-37481763D01*
X44945300Y-37718237D01*
X44945300Y-37718239D01*
X44945299Y-37718239D01*
X43774700Y-37718239D01*
X43774700Y-37481760D01*
X43748388Y-37349485D01*
X43748387Y-37349484D01*
X43748387Y-37349480D01*
X43696773Y-37224873D01*
X43696772Y-37224872D01*
X43696769Y-37224866D01*
X43621841Y-37112729D01*
X43621838Y-37112725D01*
X43526474Y-37017361D01*
X43526470Y-37017358D01*
X43414333Y-36942430D01*
X43414324Y-36942425D01*
X43289720Y-36890813D01*
X43289714Y-36890811D01*
X43157439Y-36864500D01*
X43157437Y-36864500D01*
X43022563Y-36864500D01*
X43022561Y-36864500D01*
X42890285Y-36890811D01*
X42890279Y-36890813D01*
X42765675Y-36942425D01*
X42765666Y-36942430D01*
X42653529Y-37017358D01*
X42653525Y-37017361D01*
X42558161Y-37112725D01*
X42558154Y-37112734D01*
X42558097Y-37112820D01*
X42558055Y-37112854D01*
X42554295Y-37117437D01*
X42553425Y-37116723D01*
X42504482Y-37157621D01*
X42435156Y-37166324D01*
X42372131Y-37136165D01*
X42355821Y-37117341D01*
X42355705Y-37117437D01*
X42352148Y-37113103D01*
X42351903Y-37112820D01*
X42351845Y-37112734D01*
X42351838Y-37112725D01*
X42256474Y-37017361D01*
X42256470Y-37017358D01*
X42144333Y-36942430D01*
X42144324Y-36942425D01*
X42019720Y-36890813D01*
X42019714Y-36890811D01*
X41887439Y-36864500D01*
X41887437Y-36864500D01*
X41752563Y-36864500D01*
X41752561Y-36864500D01*
X41620285Y-36890811D01*
X41620279Y-36890813D01*
X41495675Y-36942425D01*
X41495666Y-36942430D01*
X41383529Y-37017358D01*
X41383525Y-37017361D01*
X41288161Y-37112725D01*
X41288154Y-37112734D01*
X41288097Y-37112820D01*
X41288055Y-37112854D01*
X41284295Y-37117437D01*
X41283425Y-37116723D01*
X41234482Y-37157621D01*
X41165156Y-37166324D01*
X41102131Y-37136165D01*
X41085821Y-37117341D01*
X41085705Y-37117437D01*
X41082148Y-37113103D01*
X41081903Y-37112820D01*
X41081845Y-37112734D01*
X41081838Y-37112725D01*
X40986474Y-37017361D01*
X40986470Y-37017358D01*
X40874333Y-36942430D01*
X40874324Y-36942425D01*
X40749720Y-36890813D01*
X40749714Y-36890811D01*
X40617439Y-36864500D01*
X40617437Y-36864500D01*
X40482563Y-36864500D01*
X40482561Y-36864500D01*
X40350285Y-36890811D01*
X40350279Y-36890813D01*
X40225675Y-36942425D01*
X40225666Y-36942430D01*
X40113529Y-37017358D01*
X40113525Y-37017361D01*
X40018161Y-37112725D01*
X40018158Y-37112729D01*
X39943230Y-37224866D01*
X39943225Y-37224875D01*
X39891613Y-37349479D01*
X39891611Y-37349485D01*
X39865300Y-37481760D01*
X39865300Y-37481762D01*
X39865300Y-37481763D01*
X39865300Y-37718237D01*
X39865300Y-37718239D01*
X39865299Y-37718239D01*
X38605902Y-37718239D01*
X38605902Y-37478329D01*
X38567837Y-37238000D01*
X38541720Y-37157621D01*
X38492644Y-37006580D01*
X38382174Y-36789772D01*
X38239148Y-36592914D01*
X38067088Y-36420854D01*
X37870230Y-36277828D01*
X37653422Y-36167358D01*
X37593404Y-36147857D01*
X37422001Y-36092164D01*
X37181672Y-36054100D01*
X37181667Y-36054100D01*
X36938337Y-36054100D01*
X36938332Y-36054100D01*
X36698002Y-36092164D01*
X36466579Y-36167359D01*
X36249773Y-36277828D01*
X36137459Y-36359429D01*
X36052916Y-36420854D01*
X36052914Y-36420856D01*
X36052913Y-36420856D01*
X35880858Y-36592911D01*
X35880858Y-36592912D01*
X35880856Y-36592914D01*
X35819431Y-36677457D01*
X35737830Y-36789771D01*
X35627361Y-37006577D01*
X35552166Y-37238000D01*
X35514102Y-37478329D01*
X34550500Y-37478329D01*
X34550500Y-35499147D01*
X124270800Y-35499147D01*
X124270800Y-37900852D01*
X124282431Y-37959329D01*
X124282432Y-37959330D01*
X124326747Y-38025652D01*
X124393069Y-38069967D01*
X124393070Y-38069968D01*
X124451547Y-38081599D01*
X124451550Y-38081600D01*
X124451552Y-38081600D01*
X126548450Y-38081600D01*
X126548451Y-38081599D01*
X126563268Y-38078652D01*
X126606929Y-38069968D01*
X126606929Y-38069967D01*
X126606931Y-38069967D01*
X126673252Y-38025652D01*
X126717567Y-37959331D01*
X126717567Y-37959329D01*
X126717568Y-37959329D01*
X126729199Y-37900852D01*
X126729200Y-37900850D01*
X126729200Y-35499149D01*
X126729199Y-35499147D01*
X126717568Y-35440670D01*
X126717567Y-35440669D01*
X126673252Y-35374347D01*
X126606930Y-35330032D01*
X126606929Y-35330031D01*
X126548452Y-35318400D01*
X126548448Y-35318400D01*
X124451552Y-35318400D01*
X124451547Y-35318400D01*
X124393070Y-35330031D01*
X124393069Y-35330032D01*
X124326747Y-35374347D01*
X124282432Y-35440669D01*
X124282431Y-35440670D01*
X124270800Y-35499147D01*
X34550500Y-35499147D01*
X34550500Y-34124500D01*
X34570185Y-34057461D01*
X34622989Y-34011706D01*
X34674500Y-34000500D01*
X133975500Y-34000500D01*
X134042539Y-34020185D01*
G37*
%TD.AperFunction*%
%TD*%
M02*
