%TF.GenerationSoftware,KiCad,Pcbnew,9.0.7*%
%TF.CreationDate,2026-02-22T17:51:23-06:00*%
%TF.ProjectId,sata-backplane,73617461-2d62-4616-936b-706c616e652e,rev?*%
%TF.SameCoordinates,Original*%
%TF.FileFunction,Copper,L1,Top*%
%TF.FilePolarity,Positive*%
%FSLAX46Y46*%
G04 Gerber Fmt 4.6, Leading zero omitted, Abs format (unit mm)*
G04 Created by KiCad (PCBNEW 9.0.7) date 2026-02-22 17:51:23*
%MOMM*%
%LPD*%
G01*
G04 APERTURE LIST*
%TA.AperFunction,SMDPad,CuDef*%
%ADD10R,2.209800X0.990600*%
%TD*%
%TA.AperFunction,ComponentPad*%
%ADD11R,2.057400X2.362200*%
%TD*%
%TA.AperFunction,WasherPad*%
%ADD12C,2.600000*%
%TD*%
%TA.AperFunction,ComponentPad*%
%ADD13O,1.168400X1.270000*%
%TD*%
%TA.AperFunction,ComponentPad*%
%ADD14C,3.600000*%
%TD*%
%TA.AperFunction,ConnectorPad*%
%ADD15C,6.400000*%
%TD*%
%TA.AperFunction,WasherPad*%
%ADD16C,2.200000*%
%TD*%
%TA.AperFunction,ComponentPad*%
%ADD17O,1.400000X1.000000*%
%TD*%
%TA.AperFunction,ViaPad*%
%ADD18C,0.800000*%
%TD*%
%TA.AperFunction,Conductor*%
%ADD19C,0.205000*%
%TD*%
%TA.AperFunction,Conductor*%
%ADD20C,0.800000*%
%TD*%
G04 APERTURE END LIST*
D10*
%TO.P,J1,1,1*%
%TO.N,GND*%
X123140086Y-71040001D03*
%TO.P,J1,2,2*%
%TO.N,/SATA1_A+*%
X123140086Y-72310001D03*
%TO.P,J1,3,3*%
%TO.N,/SATA1_A-*%
X123140086Y-73580001D03*
%TO.P,J1,4,4*%
%TO.N,GND*%
X123140086Y-74850001D03*
%TO.P,J1,5,5*%
%TO.N,/SATA1_B+*%
X123140086Y-76120001D03*
%TO.P,J1,6,6*%
%TO.N,/SATA1_B-*%
X123140086Y-77390001D03*
%TO.P,J1,7,7*%
%TO.N,GND*%
X123140086Y-78660001D03*
D11*
%TO.P,J1,8*%
%TO.N,N/C*%
X125500000Y-81720000D03*
%TO.P,J1,9*%
X125500000Y-68980000D03*
%TD*%
D10*
%TO.P,J3,1,1*%
%TO.N,GND*%
X123140086Y-38760001D03*
%TO.P,J3,2,2*%
%TO.N,/SATA2_A+*%
X123140086Y-40030001D03*
%TO.P,J3,3,3*%
%TO.N,/SATA2_A-*%
X123140086Y-41300001D03*
%TO.P,J3,4,4*%
%TO.N,GND*%
X123140086Y-42570001D03*
%TO.P,J3,5,5*%
%TO.N,/SATA2_B+*%
X123140086Y-43840001D03*
%TO.P,J3,6,6*%
%TO.N,/SATA2_B-*%
X123140086Y-45110001D03*
%TO.P,J3,7,7*%
%TO.N,GND*%
X123140086Y-46380001D03*
D11*
%TO.P,J3,8*%
%TO.N,N/C*%
X125500000Y-49440000D03*
%TO.P,J3,9*%
X125500000Y-36700000D03*
%TD*%
D12*
%TO.P,J2,*%
%TO.N,*%
X75800000Y-81600000D03*
X37060002Y-81600000D03*
D13*
%TO.P,J2,P1,P1*%
%TO.N,/3V3_A*%
X58330000Y-81600000D03*
%TO.P,J2,P2,P2*%
%TO.N,/3V3_B*%
X57060000Y-81600000D03*
%TO.P,J2,P3,P3*%
%TO.N,/PW_DIS*%
X55790000Y-81600000D03*
%TO.P,J2,P4,P4*%
%TO.N,GND*%
X54520000Y-81600000D03*
%TO.P,J2,P5,P5*%
X53250000Y-81600000D03*
%TO.P,J2,P6,P6*%
X51980000Y-81600000D03*
%TO.P,J2,P7,P7*%
%TO.N,/5V_PRE*%
X50710000Y-81600000D03*
%TO.P,J2,P8,P8*%
%TO.N,/5V_A*%
X49440000Y-81600000D03*
%TO.P,J2,P9,P9*%
%TO.N,/5V_B*%
X48170000Y-81600000D03*
%TO.P,J2,P10,P10*%
%TO.N,GND*%
X46900000Y-81600000D03*
%TO.P,J2,P11,P11*%
%TO.N,/SS{slash}ACT*%
X45630000Y-81600000D03*
%TO.P,J2,P12,P12*%
%TO.N,GND*%
X44360000Y-81600000D03*
%TO.P,J2,P13,P13*%
%TO.N,/12V_PRE*%
X43090000Y-81600000D03*
%TO.P,J2,P14,P14*%
%TO.N,/12V_A*%
X41820000Y-81600000D03*
%TO.P,J2,P15,P15*%
%TO.N,/12V_B*%
X40550000Y-81600000D03*
%TO.P,J2,S1,S1*%
%TO.N,GND*%
X72300000Y-81600000D03*
%TO.P,J2,S2,S2*%
%TO.N,/SATA1_A+*%
X71030000Y-81600000D03*
%TO.P,J2,S3,S3*%
%TO.N,/SATA1_A-*%
X69760000Y-81600000D03*
%TO.P,J2,S4,S4*%
%TO.N,GND*%
X68490000Y-81600000D03*
%TO.P,J2,S5,S5*%
%TO.N,/SATA1_B+*%
X67220000Y-81600000D03*
%TO.P,J2,S6,S6*%
%TO.N,/SATA1_B-*%
X65950000Y-81600000D03*
%TO.P,J2,S7,S7*%
%TO.N,GND*%
X64680000Y-81600000D03*
%TD*%
D12*
%TO.P,J4,*%
%TO.N,*%
X75800000Y-37600000D03*
X37060002Y-37600000D03*
D13*
%TO.P,J4,P1,P1*%
%TO.N,/3V3_A*%
X58330000Y-37600000D03*
%TO.P,J4,P2,P2*%
%TO.N,/3V3_B*%
X57060000Y-37600000D03*
%TO.P,J4,P3,P3*%
%TO.N,/PW_DIS*%
X55790000Y-37600000D03*
%TO.P,J4,P4,P4*%
%TO.N,GND*%
X54520000Y-37600000D03*
%TO.P,J4,P5,P5*%
X53250000Y-37600000D03*
%TO.P,J4,P6,P6*%
X51980000Y-37600000D03*
%TO.P,J4,P7,P7*%
%TO.N,/5V_PRE*%
X50710000Y-37600000D03*
%TO.P,J4,P8,P8*%
%TO.N,/5V_A*%
X49440000Y-37600000D03*
%TO.P,J4,P9,P9*%
%TO.N,/5V_B*%
X48170000Y-37600000D03*
%TO.P,J4,P10,P10*%
%TO.N,GND*%
X46900000Y-37600000D03*
%TO.P,J4,P11,P11*%
%TO.N,/SS{slash}ACT*%
X45630000Y-37600000D03*
%TO.P,J4,P12,P12*%
%TO.N,GND*%
X44360000Y-37600000D03*
%TO.P,J4,P13,P13*%
%TO.N,/12V_PRE*%
X43090000Y-37600000D03*
%TO.P,J4,P14,P14*%
%TO.N,/12V_A*%
X41820000Y-37600000D03*
%TO.P,J4,P15,P15*%
%TO.N,/12V_B*%
X40550000Y-37600000D03*
%TO.P,J4,S1,S1*%
%TO.N,GND*%
X72300000Y-37600000D03*
%TO.P,J4,S2,S2*%
%TO.N,/SATA2_A+*%
X71030000Y-37600000D03*
%TO.P,J4,S3,S3*%
%TO.N,/SATA2_A-*%
X69760000Y-37600000D03*
%TO.P,J4,S4,S4*%
%TO.N,GND*%
X68490000Y-37600000D03*
%TO.P,J4,S5,S5*%
%TO.N,/SATA2_B+*%
X67220000Y-37600000D03*
%TO.P,J4,S6,S6*%
%TO.N,/SATA2_B-*%
X65950000Y-37600000D03*
%TO.P,J4,S7,S7*%
%TO.N,GND*%
X64680000Y-37600000D03*
%TD*%
D14*
%TO.P,H4,1,1*%
%TO.N,GND*%
X66750000Y-73900000D03*
D15*
X66750000Y-73900000D03*
%TD*%
D14*
%TO.P,H2,1,1*%
%TO.N,GND*%
X117063086Y-50436200D03*
D15*
X117063086Y-50436200D03*
%TD*%
D14*
%TO.P,H1,1,1*%
%TO.N,GND*%
X66750000Y-45150000D03*
D15*
X66750000Y-45150000D03*
%TD*%
D14*
%TO.P,H3,1,1*%
%TO.N,GND*%
X117063086Y-67983800D03*
D15*
X117063086Y-67983800D03*
%TD*%
D16*
%TO.P,J5,*%
%TO.N,*%
X84400000Y-71690000D03*
X84400000Y-47190000D03*
D17*
%TO.P,J5,1,V3.3*%
%TO.N,/3V3_A*%
X84400000Y-68090000D03*
%TO.P,J5,2,V3.3*%
%TO.N,/3V3_B*%
X84400000Y-66820000D03*
%TO.P,J5,3,PWDIS*%
%TO.N,/PW_DIS*%
X84400000Y-65550000D03*
%TO.P,J5,4,GND*%
%TO.N,GND*%
X84400000Y-64280000D03*
%TO.P,J5,5,GND*%
X84400000Y-63010000D03*
%TO.P,J5,6,GND*%
X84400000Y-61740000D03*
%TO.P,J5,7,V5.0*%
%TO.N,/5V_PRE*%
X84400000Y-60470000D03*
%TO.P,J5,8,V5.0*%
%TO.N,/5V_A*%
X84400000Y-59200000D03*
%TO.P,J5,9,V5.0*%
%TO.N,/5V_B*%
X84400000Y-57930000D03*
%TO.P,J5,10,GND*%
%TO.N,GND*%
X84400000Y-56660000D03*
%TO.P,J5,11,ACT*%
%TO.N,/SS{slash}ACT*%
X84400000Y-55390000D03*
%TO.P,J5,12,GND*%
%TO.N,GND*%
X84400000Y-54120000D03*
%TO.P,J5,13,V12*%
%TO.N,/12V_PRE*%
X84400000Y-52850000D03*
%TO.P,J5,14,V12*%
%TO.N,/12V_A*%
X84400000Y-51580000D03*
%TO.P,J5,15,V12*%
%TO.N,/12V_B*%
X84400000Y-50310000D03*
%TD*%
D18*
%TO.N,GND*%
X123140086Y-38760001D03*
X123140086Y-42570001D03*
X123140086Y-74850001D03*
X123140086Y-78660001D03*
X123140086Y-46380001D03*
X123140086Y-71040001D03*
%TO.N,/SATA1_A+*%
X123140086Y-72310001D03*
%TO.N,/SATA1_A-*%
X123140086Y-73580001D03*
%TO.N,/3V3_B*%
X57050000Y-66820000D03*
%TO.N,/12V_A*%
X41820000Y-51600000D03*
%TO.N,/SS{slash}ACT*%
X45630000Y-55400000D03*
%TO.N,/PW_DIS*%
X55790000Y-65550000D03*
%TO.N,/12V_PRE*%
X43090000Y-52850000D03*
%TO.N,/3V3_A*%
X58330000Y-68100000D03*
%TO.N,/5V_PRE*%
X50710000Y-60450000D03*
%TO.N,/12V_B*%
X40560000Y-50310000D03*
%TO.N,/5V_B*%
X48170000Y-57900000D03*
%TO.N,/5V_A*%
X49450000Y-59200000D03*
%TD*%
D19*
%TO.N,/SATA1_B+*%
X112465458Y-83495900D02*
X103328369Y-83495900D01*
%TO.N,/SATA1_B-*%
X98528369Y-82927305D02*
X98328369Y-82927305D01*
%TO.N,/SATA1_B+*%
X99724269Y-83300000D02*
G75*
G02*
X99528369Y-83495869I-195869J0D01*
G01*
X97724269Y-83123205D02*
X97724269Y-83300000D01*
X101132469Y-83123187D02*
G75*
G03*
X100528369Y-82519131I-604069J-13D01*
G01*
X121482735Y-76120001D02*
X121051835Y-76550901D01*
%TO.N,/SATA1_B-*%
X101328369Y-83904100D02*
G75*
G02*
X100724300Y-83300000I31J604100D01*
G01*
X98132469Y-83300000D02*
G75*
G02*
X97528369Y-83904069I-604069J0D01*
G01*
%TO.N,/SATA1_B+*%
X100328369Y-82519087D02*
G75*
G03*
X99724287Y-83123187I31J-604113D01*
G01*
X102528369Y-82519105D02*
X102328369Y-82519105D01*
X101132469Y-83300000D02*
X101132469Y-83123187D01*
%TO.N,/SATA1_B-*%
X98724269Y-83123205D02*
G75*
G03*
X98528369Y-82927331I-195869J5D01*
G01*
%TO.N,/SATA1_B+*%
X99724269Y-83123187D02*
X99724269Y-83300000D01*
X99528369Y-83495900D02*
X99328369Y-83495900D01*
X103132469Y-83300000D02*
X103132469Y-83123205D01*
%TO.N,/SATA1_B-*%
X112634542Y-83904100D02*
X103328369Y-83904100D01*
%TO.N,/SATA1_B+*%
X121051835Y-76550901D02*
X119410457Y-76550901D01*
X103328369Y-83495900D02*
G75*
G02*
X103132500Y-83300000I31J195900D01*
G01*
%TO.N,/SATA1_B-*%
X123140086Y-77390001D02*
X121482735Y-77390001D01*
X100132469Y-83300000D02*
G75*
G02*
X99528369Y-83904069I-604069J0D01*
G01*
%TO.N,/SATA1_B+*%
X100528369Y-82519087D02*
X100328369Y-82519087D01*
X101528369Y-83495900D02*
X101328369Y-83495900D01*
%TO.N,/SATA1_B-*%
X100528369Y-82927287D02*
X100328369Y-82927287D01*
X100724269Y-83300000D02*
X100724269Y-83123187D01*
X101528369Y-83904100D02*
X101328369Y-83904100D01*
X102132469Y-83123205D02*
X102132469Y-83300000D01*
X102724269Y-83300000D02*
X102724269Y-83123205D01*
X98724269Y-83300000D02*
X98724269Y-83123205D01*
X98328369Y-82927305D02*
G75*
G03*
X98132505Y-83123205I31J-195895D01*
G01*
%TO.N,/SATA1_B+*%
X101724269Y-83123205D02*
X101724269Y-83300000D01*
%TO.N,/SATA1_B-*%
X97528369Y-83904100D02*
X97328369Y-83904100D01*
X119579541Y-76959101D02*
X112634542Y-83904100D01*
%TO.N,/SATA1_B+*%
X97328369Y-83495900D02*
X96663417Y-83495900D01*
X97724269Y-83300000D02*
G75*
G02*
X97528369Y-83495869I-195869J0D01*
G01*
X99132469Y-83123205D02*
G75*
G03*
X98528369Y-82519131I-604069J5D01*
G01*
X98328369Y-82519105D02*
G75*
G03*
X97724305Y-83123205I31J-604095D01*
G01*
X101724269Y-83300000D02*
G75*
G02*
X101528369Y-83495869I-195869J0D01*
G01*
X123140086Y-76120001D02*
X121482735Y-76120001D01*
X103132469Y-83123205D02*
G75*
G03*
X102528369Y-82519131I-604069J5D01*
G01*
X119410457Y-76550901D02*
X112465458Y-83495900D01*
X102328369Y-82519105D02*
G75*
G03*
X101724305Y-83123205I31J-604095D01*
G01*
X99328369Y-83495900D02*
G75*
G02*
X99132500Y-83300000I31J195900D01*
G01*
%TO.N,/SATA1_B-*%
X102328369Y-82927305D02*
G75*
G03*
X102132505Y-83123205I31J-195895D01*
G01*
X102724269Y-83123205D02*
G75*
G03*
X102528369Y-82927331I-195869J5D01*
G01*
X103328369Y-83904100D02*
G75*
G02*
X102724300Y-83300000I31J604100D01*
G01*
%TO.N,/SATA1_B+*%
X67220000Y-82292718D02*
X67220000Y-81600000D01*
X101328369Y-83495900D02*
G75*
G02*
X101132500Y-83300000I31J195900D01*
G01*
%TO.N,/SATA1_B-*%
X121482735Y-77390001D02*
X121051835Y-76959101D01*
%TO.N,/SATA1_B+*%
X96663417Y-83495900D02*
X68423182Y-83495900D01*
%TO.N,/SATA1_B-*%
X99528369Y-83904100D02*
X99328369Y-83904100D01*
X99328369Y-83904100D02*
G75*
G02*
X98724300Y-83300000I31J604100D01*
G01*
%TO.N,/SATA1_B+*%
X98528369Y-82519105D02*
X98328369Y-82519105D01*
%TO.N,/SATA1_B-*%
X100132469Y-83123187D02*
X100132469Y-83300000D01*
%TO.N,/SATA1_B+*%
X99132469Y-83300000D02*
X99132469Y-83123205D01*
%TO.N,/SATA1_B-*%
X98132469Y-83123205D02*
X98132469Y-83300000D01*
X97328369Y-83904100D02*
X96663417Y-83904100D01*
X96663417Y-83904100D02*
X68254100Y-83904100D01*
X68254100Y-83904100D02*
X65950000Y-81600000D01*
X100328369Y-82927287D02*
G75*
G03*
X100132487Y-83123187I31J-195913D01*
G01*
X100724269Y-83123187D02*
G75*
G03*
X100528369Y-82927331I-195869J-13D01*
G01*
X102528369Y-82927305D02*
X102328369Y-82927305D01*
%TO.N,/SATA1_B+*%
X97528369Y-83495900D02*
X97328369Y-83495900D01*
%TO.N,/SATA1_B-*%
X102132469Y-83300000D02*
G75*
G02*
X101528369Y-83904069I-604069J0D01*
G01*
X121051835Y-76959101D02*
X119579541Y-76959101D01*
%TO.N,/SATA1_B+*%
X68423182Y-83495900D02*
X67220000Y-82292718D01*
%TO.N,/SATA2_A-*%
X70142300Y-37982300D02*
X70142300Y-38018497D01*
%TO.N,/SATA2_A+*%
X92415760Y-40070988D02*
X92415760Y-40173001D01*
X92949660Y-40460901D02*
X97600000Y-40460901D01*
%TO.N,/SATA2_A-*%
X91473660Y-39783088D02*
X91719660Y-39783088D01*
X121482735Y-41300001D02*
X123140086Y-41300001D01*
%TO.N,/SATA2_A+*%
X87495760Y-41259014D02*
G75*
G03*
X87783660Y-41546940I287940J14D01*
G01*
%TO.N,/SATA2_A-*%
X89259660Y-39783088D02*
G75*
G02*
X89547612Y-40070988I40J-287912D01*
G01*
X88725760Y-40070988D02*
G75*
G02*
X89013660Y-39783060I287940J-12D01*
G01*
%TO.N,/SATA2_A+*%
X86553660Y-39374888D02*
X86799660Y-39374888D01*
%TO.N,/SATA2_A-*%
X89547560Y-41259014D02*
G75*
G03*
X90243660Y-41955140I696140J14D01*
G01*
X87783660Y-41955114D02*
X88029660Y-41955114D01*
X72992904Y-40869101D02*
X84339660Y-40869101D01*
%TO.N,/SATA2_A+*%
X85857560Y-40070988D02*
G75*
G02*
X86553660Y-39374860I696140J-12D01*
G01*
%TO.N,/SATA2_A-*%
X92949660Y-40869101D02*
X97600000Y-40869101D01*
X85323660Y-41955114D02*
X85569660Y-41955114D01*
X87087560Y-40070988D02*
X87087560Y-40460901D01*
%TO.N,/SATA2_A+*%
X88317560Y-41259014D02*
X88317560Y-40869101D01*
%TO.N,/SATA2_A-*%
X92703660Y-40869101D02*
X92949660Y-40869101D01*
X86265760Y-41157001D02*
X86265760Y-40460901D01*
%TO.N,/SATA2_A+*%
X85569660Y-41546914D02*
G75*
G03*
X85857614Y-41259014I40J287914D01*
G01*
%TO.N,/SATA2_A-*%
X92007560Y-40173001D02*
G75*
G03*
X92703660Y-40869140I696140J1D01*
G01*
X91719660Y-39783088D02*
G75*
G02*
X92007612Y-40070988I40J-287912D01*
G01*
X86799660Y-39783088D02*
G75*
G02*
X87087612Y-40070988I40J-287912D01*
G01*
%TO.N,/SATA2_A+*%
X71030000Y-38292718D02*
X73198183Y-40460901D01*
X89013660Y-39374888D02*
X89259660Y-39374888D01*
%TO.N,/SATA2_A-*%
X85569660Y-41955114D02*
G75*
G03*
X86265814Y-41259014I40J696114D01*
G01*
%TO.N,/SATA2_A+*%
X90777560Y-40173001D02*
X90777560Y-40070988D01*
%TO.N,/SATA2_A-*%
X84627560Y-41157001D02*
X84627560Y-41259014D01*
%TO.N,/SATA2_A+*%
X87495760Y-40869101D02*
X87495760Y-41259014D01*
%TO.N,/SATA2_A-*%
X89013660Y-39783088D02*
X89259660Y-39783088D01*
%TO.N,/SATA2_A+*%
X90243660Y-41546914D02*
X90489660Y-41546914D01*
%TO.N,/SATA2_A-*%
X89547560Y-40460901D02*
X89547560Y-40869101D01*
%TO.N,/SATA2_A+*%
X90489660Y-41546914D02*
G75*
G03*
X90777614Y-41259014I40J287914D01*
G01*
X89955760Y-40869101D02*
X89955760Y-41259014D01*
X85857560Y-40460901D02*
X85857560Y-40070988D01*
%TO.N,/SATA2_A-*%
X91185760Y-40070988D02*
G75*
G02*
X91473660Y-39783060I287940J-12D01*
G01*
%TO.N,/SATA2_A+*%
X71030000Y-37600000D02*
X71030000Y-38292718D01*
X91719660Y-39374888D02*
G75*
G02*
X92415812Y-40070988I40J-696112D01*
G01*
%TO.N,/SATA2_A-*%
X87087560Y-40460901D02*
X87087560Y-40869101D01*
%TO.N,/SATA2_A+*%
X89955760Y-40070988D02*
X89955760Y-40460901D01*
%TO.N,/SATA2_A-*%
X86265760Y-40070988D02*
G75*
G02*
X86553660Y-39783060I287940J-12D01*
G01*
X91185760Y-40869101D02*
X91185760Y-40173001D01*
X90489660Y-41955114D02*
G75*
G03*
X91185814Y-41259014I40J696114D01*
G01*
X92007560Y-40070988D02*
X92007560Y-40173001D01*
X91185760Y-41259014D02*
X91185760Y-40869101D01*
X88725760Y-41259014D02*
X88725760Y-40869101D01*
X88725760Y-40869101D02*
X88725760Y-40460901D01*
X84627560Y-41259014D02*
G75*
G03*
X85323660Y-41955140I696140J14D01*
G01*
X84339660Y-40869101D02*
G75*
G02*
X84627599Y-41157001I40J-287899D01*
G01*
X90243660Y-41955114D02*
X90489660Y-41955114D01*
X70142300Y-38018497D02*
X72992904Y-40869101D01*
%TO.N,/SATA2_A+*%
X87495760Y-40460901D02*
X87495760Y-40869101D01*
%TO.N,/SATA2_A-*%
X121051835Y-40869101D02*
X121482735Y-41300001D01*
%TO.N,/SATA2_A+*%
X88317560Y-40460901D02*
X88317560Y-40070988D01*
X92703660Y-40460901D02*
X92949660Y-40460901D01*
X87495760Y-40070988D02*
X87495760Y-40460901D01*
X85035760Y-41259014D02*
G75*
G03*
X85323660Y-41546940I287940J14D01*
G01*
%TO.N,/SATA2_A-*%
X88029660Y-41955114D02*
G75*
G03*
X88725814Y-41259014I40J696114D01*
G01*
%TO.N,/SATA2_A+*%
X91473660Y-39374888D02*
X91719660Y-39374888D01*
X85323660Y-41546914D02*
X85569660Y-41546914D01*
%TO.N,/SATA2_A-*%
X87087560Y-41259014D02*
G75*
G03*
X87783660Y-41955140I696140J14D01*
G01*
%TO.N,/SATA2_A+*%
X90777560Y-40869101D02*
X90777560Y-40173001D01*
X73198183Y-40460901D02*
X84339660Y-40460901D01*
X85857560Y-41259014D02*
X85857560Y-41157001D01*
X88317560Y-40070988D02*
G75*
G02*
X89013660Y-39374860I696140J-12D01*
G01*
%TO.N,/SATA2_A-*%
X86265760Y-40460901D02*
X86265760Y-40070988D01*
X89547560Y-40070988D02*
X89547560Y-40460901D01*
%TO.N,/SATA2_A+*%
X97600000Y-40460901D02*
X121051835Y-40460901D01*
X121482735Y-40030001D02*
X123140086Y-40030001D01*
X121051835Y-40460901D02*
X121482735Y-40030001D01*
%TO.N,/SATA2_A-*%
X86265760Y-41259014D02*
X86265760Y-41157001D01*
%TO.N,/SATA2_A+*%
X87783660Y-41546914D02*
X88029660Y-41546914D01*
X90777560Y-41259014D02*
X90777560Y-40869101D01*
X88029660Y-41546914D02*
G75*
G03*
X88317614Y-41259014I40J287914D01*
G01*
%TO.N,/SATA2_A-*%
X97600000Y-40869101D02*
X121051835Y-40869101D01*
X91185760Y-40173001D02*
X91185760Y-40070988D01*
X89547560Y-40869101D02*
X89547560Y-41259014D01*
%TO.N,/SATA2_A+*%
X89955760Y-40460901D02*
X89955760Y-40869101D01*
X92415760Y-40173001D02*
G75*
G03*
X92703660Y-40460940I287940J1D01*
G01*
%TO.N,/SATA2_A-*%
X87087560Y-40869101D02*
X87087560Y-41259014D01*
%TO.N,/SATA2_A+*%
X86799660Y-39374888D02*
G75*
G02*
X87495812Y-40070988I40J-696112D01*
G01*
X88317560Y-40869101D02*
X88317560Y-40460901D01*
X89955760Y-41259014D02*
G75*
G03*
X90243660Y-41546940I287940J14D01*
G01*
%TO.N,/SATA2_A-*%
X69760000Y-37600000D02*
X70142300Y-37982300D01*
%TO.N,/SATA2_A+*%
X90777560Y-40070988D02*
G75*
G02*
X91473660Y-39374860I696140J-12D01*
G01*
X85857560Y-41157001D02*
X85857560Y-40460901D01*
X89259660Y-39374888D02*
G75*
G02*
X89955812Y-40070988I40J-696112D01*
G01*
X84339660Y-40460901D02*
G75*
G02*
X85035799Y-41157001I40J-696099D01*
G01*
X85035760Y-41157001D02*
X85035760Y-41259014D01*
%TO.N,/SATA2_A-*%
X86553660Y-39783088D02*
X86799660Y-39783088D01*
X88725760Y-40460901D02*
X88725760Y-40070988D01*
%TO.N,/SATA2_B+*%
X121051835Y-44270901D02*
X121482735Y-43840001D01*
X103330000Y-44270901D02*
X108400000Y-44270901D01*
X100042100Y-44863001D02*
X100042100Y-45090376D01*
%TO.N,/SATA2_B-*%
X66852303Y-38538500D02*
X66888500Y-38538500D01*
%TO.N,/SATA2_B+*%
X102543900Y-45090376D02*
X102543900Y-44863001D01*
%TO.N,/SATA2_B-*%
X99633900Y-45090376D02*
G75*
G03*
X100226000Y-45682500I592100J-24D01*
G01*
%TO.N,/SATA2_B+*%
X102360000Y-45274276D02*
G75*
G03*
X102543876Y-45090376I0J183876D01*
G01*
%TO.N,/SATA2_B-*%
X99450000Y-44679101D02*
G75*
G02*
X99633899Y-44863001I0J-183899D01*
G01*
X73029101Y-44679101D02*
X99450000Y-44679101D01*
X99633900Y-44863001D02*
X99633900Y-45090376D01*
X101012100Y-45090376D02*
X101012100Y-44863001D01*
X101012100Y-44863001D02*
X101012100Y-44270901D01*
X101196000Y-43675726D02*
X101390000Y-43675726D01*
X102952100Y-45090376D02*
X102952100Y-44863001D01*
X108400000Y-44679101D02*
X121051835Y-44679101D01*
X103136000Y-44679101D02*
X103330000Y-44679101D01*
X103330000Y-44679101D02*
X108400000Y-44679101D01*
%TO.N,/SATA2_B+*%
X67220000Y-38292718D02*
X73198183Y-44270901D01*
X102166000Y-45274276D02*
X102360000Y-45274276D01*
X101982100Y-44863001D02*
X101982100Y-45090376D01*
X101982100Y-44270901D02*
X101982100Y-44863001D01*
%TO.N,/SATA2_B-*%
X102166000Y-45682476D02*
X102360000Y-45682476D01*
%TO.N,/SATA2_B+*%
X101196000Y-43267526D02*
X101390000Y-43267526D01*
X103136000Y-44270901D02*
X103330000Y-44270901D01*
X101982100Y-43859626D02*
X101982100Y-44270901D01*
X100603900Y-45090376D02*
X100603900Y-44863001D01*
X100603900Y-44863001D02*
X100603900Y-44270901D01*
%TO.N,/SATA2_B-*%
X101012100Y-44270901D02*
X101012100Y-43859626D01*
%TO.N,/SATA2_B+*%
X121482735Y-43840001D02*
X123140086Y-43840001D01*
X101390000Y-43267526D02*
G75*
G02*
X101982074Y-43859626I0J-592074D01*
G01*
X67220000Y-37600000D02*
X67220000Y-38292718D01*
X100226000Y-45274276D02*
X100420000Y-45274276D01*
X108400000Y-44270901D02*
X121051835Y-44270901D01*
%TO.N,/SATA2_B-*%
X102360000Y-45682476D02*
G75*
G03*
X102952076Y-45090376I0J592076D01*
G01*
%TO.N,/SATA2_B+*%
X100420000Y-45274276D02*
G75*
G03*
X100603876Y-45090376I0J183876D01*
G01*
X102543900Y-44863001D02*
G75*
G02*
X103136000Y-44270900I592100J1D01*
G01*
X100603900Y-43859626D02*
G75*
G02*
X101196000Y-43267500I592100J26D01*
G01*
%TO.N,/SATA2_B-*%
X101573900Y-43859626D02*
X101573900Y-44270901D01*
X121051835Y-44679101D02*
X121482735Y-45110001D01*
X121482735Y-45110001D02*
X123140086Y-45110001D01*
X101573900Y-44270901D02*
X101573900Y-44863001D01*
X101573900Y-44863001D02*
X101573900Y-45090376D01*
X101573900Y-45090376D02*
G75*
G03*
X102166000Y-45682500I592100J-24D01*
G01*
X102952100Y-44863001D02*
G75*
G02*
X103136000Y-44679100I183900J1D01*
G01*
X65950000Y-37600000D02*
X66332300Y-37982300D01*
X66332300Y-38018497D02*
X66852303Y-38538500D01*
X66888500Y-38538500D02*
X73029101Y-44679101D01*
%TO.N,/SATA2_B+*%
X101982100Y-45090376D02*
G75*
G03*
X102166000Y-45274300I183900J-24D01*
G01*
%TO.N,/SATA2_B-*%
X100226000Y-45682476D02*
X100420000Y-45682476D01*
%TO.N,/SATA2_B+*%
X99450000Y-44270901D02*
G75*
G02*
X100042099Y-44863001I0J-592099D01*
G01*
X100603900Y-44270901D02*
X100603900Y-43859626D01*
X100042100Y-45090376D02*
G75*
G03*
X100226000Y-45274300I183900J-24D01*
G01*
X73198183Y-44270901D02*
X99450000Y-44270901D01*
%TO.N,/SATA2_B-*%
X100420000Y-45682476D02*
G75*
G03*
X101012076Y-45090376I0J592076D01*
G01*
X66332300Y-37982300D02*
X66332300Y-38018497D01*
X101012100Y-43859626D02*
G75*
G02*
X101196000Y-43675700I183900J26D01*
G01*
X101390000Y-43675726D02*
G75*
G02*
X101573874Y-43859626I0J-183874D01*
G01*
D20*
%TO.N,/3V3_B*%
X57060000Y-37600000D02*
X57060000Y-81600000D01*
%TO.N,/12V_A*%
X41820000Y-51600000D02*
X41820000Y-81600000D01*
X41820000Y-37600000D02*
X41820000Y-51600000D01*
%TO.N,/SS{slash}ACT*%
X45630000Y-55400000D02*
X45630000Y-37600000D01*
X45630000Y-81600000D02*
X45630000Y-55400000D01*
%TO.N,/PW_DIS*%
X55790000Y-81600000D02*
X55790000Y-37600000D01*
%TO.N,/12V_PRE*%
X43090000Y-81600000D02*
X43090000Y-37600000D01*
%TO.N,/3V3_A*%
X58330000Y-68150000D02*
X58330000Y-37600000D01*
X58330000Y-81600000D02*
X58330000Y-68150000D01*
%TO.N,/5V_PRE*%
X50710000Y-60500000D02*
X50710000Y-81600000D01*
X50710000Y-37600000D02*
X50710000Y-60500000D01*
%TO.N,/12V_B*%
X40550000Y-81600000D02*
X40550000Y-37600000D01*
%TO.N,/5V_B*%
X48170000Y-37600000D02*
X48170000Y-57900000D01*
X48170000Y-57900000D02*
X48170000Y-81600000D01*
%TO.N,/5V_A*%
X49440000Y-81600000D02*
X49440000Y-37600000D01*
%TD*%
%TA.AperFunction,Conductor*%
%TO.N,GND*%
G36*
X134042539Y-34020185D02*
G01*
X134088294Y-34072989D01*
X134099500Y-34124500D01*
X134099500Y-84275500D01*
X134079815Y-84342539D01*
X134027011Y-84388294D01*
X133975500Y-84399500D01*
X112845259Y-84399500D01*
X112778220Y-84379815D01*
X112732465Y-84327011D01*
X112722521Y-84257853D01*
X112751546Y-84194297D01*
X112783261Y-84168112D01*
X112795688Y-84160937D01*
X112820589Y-84146561D01*
X112877003Y-84090147D01*
X112877003Y-84090145D01*
X112887207Y-84079942D01*
X112887210Y-84079937D01*
X116448001Y-80519147D01*
X124270800Y-80519147D01*
X124270800Y-82920852D01*
X124282431Y-82979329D01*
X124282432Y-82979330D01*
X124326747Y-83045652D01*
X124393069Y-83089967D01*
X124393070Y-83089968D01*
X124451547Y-83101599D01*
X124451550Y-83101600D01*
X124451552Y-83101600D01*
X126548450Y-83101600D01*
X126548451Y-83101599D01*
X126563268Y-83098652D01*
X126606929Y-83089968D01*
X126606929Y-83089967D01*
X126606931Y-83089967D01*
X126673252Y-83045652D01*
X126717567Y-82979331D01*
X126717567Y-82979329D01*
X126717568Y-82979329D01*
X126728936Y-82922173D01*
X126729200Y-82920848D01*
X126729200Y-80519152D01*
X126729200Y-80519149D01*
X126729199Y-80519147D01*
X126717568Y-80460670D01*
X126717567Y-80460669D01*
X126673252Y-80394347D01*
X126606930Y-80350032D01*
X126606929Y-80350031D01*
X126548452Y-80338400D01*
X126548448Y-80338400D01*
X124451552Y-80338400D01*
X124451547Y-80338400D01*
X124393070Y-80350031D01*
X124393069Y-80350032D01*
X124326747Y-80394347D01*
X124282432Y-80460669D01*
X124282431Y-80460670D01*
X124270800Y-80519147D01*
X116448001Y-80519147D01*
X119668729Y-77298420D01*
X119730052Y-77264935D01*
X119756410Y-77262101D01*
X120874966Y-77262101D01*
X120942005Y-77281786D01*
X120962647Y-77298420D01*
X121240272Y-77576045D01*
X121240274Y-77576048D01*
X121296688Y-77632462D01*
X121336579Y-77655492D01*
X121345339Y-77660550D01*
X121345342Y-77660552D01*
X121365780Y-77672352D01*
X121365782Y-77672353D01*
X121442845Y-77693002D01*
X121442847Y-77693002D01*
X121530222Y-77693002D01*
X121530238Y-77693001D01*
X121710686Y-77693001D01*
X121777725Y-77712686D01*
X121823480Y-77765490D01*
X121834686Y-77817001D01*
X121834686Y-77905053D01*
X121846317Y-77963530D01*
X121846318Y-77963531D01*
X121890633Y-78029853D01*
X121956955Y-78074168D01*
X121956956Y-78074169D01*
X122015433Y-78085800D01*
X122015436Y-78085801D01*
X122015438Y-78085801D01*
X124264736Y-78085801D01*
X124264737Y-78085800D01*
X124279554Y-78082853D01*
X124323215Y-78074169D01*
X124323215Y-78074168D01*
X124323217Y-78074168D01*
X124389538Y-78029853D01*
X124433853Y-77963532D01*
X124433853Y-77963530D01*
X124433854Y-77963530D01*
X124445485Y-77905053D01*
X124445486Y-77905051D01*
X124445486Y-76874950D01*
X124445485Y-76874948D01*
X124433854Y-76816471D01*
X124429180Y-76805188D01*
X124432523Y-76803803D01*
X124417934Y-76757231D01*
X124431987Y-76705976D01*
X124429180Y-76704814D01*
X124433854Y-76693530D01*
X124445485Y-76635053D01*
X124445486Y-76635051D01*
X124445486Y-75604950D01*
X124445485Y-75604948D01*
X124433854Y-75546471D01*
X124433853Y-75546470D01*
X124389538Y-75480148D01*
X124323216Y-75435833D01*
X124323215Y-75435832D01*
X124264738Y-75424201D01*
X124264734Y-75424201D01*
X122015438Y-75424201D01*
X122015433Y-75424201D01*
X121956956Y-75435832D01*
X121956955Y-75435833D01*
X121890633Y-75480148D01*
X121846318Y-75546470D01*
X121846317Y-75546471D01*
X121834686Y-75604948D01*
X121834686Y-75693001D01*
X121832135Y-75701686D01*
X121833424Y-75710648D01*
X121822445Y-75734688D01*
X121815001Y-75760040D01*
X121808160Y-75765967D01*
X121804399Y-75774204D01*
X121782164Y-75788493D01*
X121762197Y-75805795D01*
X121751682Y-75808082D01*
X121745621Y-75811978D01*
X121710686Y-75817001D01*
X121530238Y-75817001D01*
X121530222Y-75817000D01*
X121522626Y-75817000D01*
X121442845Y-75817000D01*
X121391469Y-75830766D01*
X121365781Y-75837649D01*
X121356047Y-75843269D01*
X121336579Y-75854509D01*
X121326606Y-75860266D01*
X121296691Y-75877537D01*
X121296686Y-75877541D01*
X121240272Y-75933956D01*
X120962647Y-76211582D01*
X120901324Y-76245067D01*
X120874966Y-76247901D01*
X119450352Y-76247901D01*
X119450348Y-76247900D01*
X119370566Y-76247900D01*
X119309789Y-76264186D01*
X119299255Y-76267008D01*
X119293504Y-76268549D01*
X119293502Y-76268550D01*
X119224410Y-76308439D01*
X119224408Y-76308441D01*
X119167994Y-76364856D01*
X112376270Y-83156581D01*
X112314947Y-83190066D01*
X112288589Y-83192900D01*
X103559495Y-83192900D01*
X103492456Y-83173215D01*
X103446701Y-83120411D01*
X103435495Y-83068900D01*
X103435495Y-83033862D01*
X103435494Y-83033858D01*
X103420488Y-82958416D01*
X103400635Y-82858608D01*
X103332253Y-82693521D01*
X103325264Y-82683062D01*
X103232979Y-82544951D01*
X103106622Y-82418599D01*
X102958047Y-82319331D01*
X102958046Y-82319330D01*
X102958044Y-82319329D01*
X102958041Y-82319328D01*
X102958038Y-82319326D01*
X102792960Y-82250956D01*
X102792959Y-82250955D01*
X102792955Y-82250954D01*
X102792950Y-82250953D01*
X102792947Y-82250952D01*
X102617703Y-82216101D01*
X102617698Y-82216101D01*
X102543243Y-82216104D01*
X102528352Y-82216105D01*
X102386359Y-82216105D01*
X102386309Y-82216101D01*
X102379746Y-82216101D01*
X102379626Y-82216066D01*
X102239012Y-82216073D01*
X102239008Y-82216074D01*
X102063767Y-82250939D01*
X102063758Y-82250941D01*
X101898686Y-82319324D01*
X101750109Y-82418608D01*
X101623772Y-82544954D01*
X101623768Y-82544958D01*
X101531496Y-82683062D01*
X101477885Y-82727869D01*
X101408560Y-82736578D01*
X101345532Y-82706425D01*
X101325292Y-82683068D01*
X101274519Y-82607087D01*
X101232981Y-82544925D01*
X101232979Y-82544923D01*
X101232976Y-82544919D01*
X101106625Y-82418578D01*
X101106619Y-82418573D01*
X100958051Y-82319313D01*
X100958050Y-82319312D01*
X100958045Y-82319309D01*
X100947428Y-82314912D01*
X100876350Y-82285474D01*
X100792955Y-82250935D01*
X100792947Y-82250933D01*
X100792946Y-82250933D01*
X100617703Y-82216083D01*
X100617698Y-82216083D01*
X100543243Y-82216086D01*
X100528352Y-82216087D01*
X100386359Y-82216087D01*
X100386309Y-82216083D01*
X100379728Y-82216083D01*
X100379673Y-82216067D01*
X100239013Y-82216072D01*
X100063770Y-82250938D01*
X100063768Y-82250939D01*
X99898688Y-82319323D01*
X99898681Y-82319327D01*
X99750126Y-82418595D01*
X99750121Y-82418599D01*
X99623785Y-82544938D01*
X99623781Y-82544943D01*
X99531481Y-82683081D01*
X99477869Y-82727886D01*
X99408544Y-82736593D01*
X99345517Y-82706439D01*
X99325278Y-82683082D01*
X99232979Y-82544951D01*
X99106622Y-82418599D01*
X98958047Y-82319331D01*
X98958046Y-82319330D01*
X98958044Y-82319329D01*
X98958041Y-82319328D01*
X98958038Y-82319326D01*
X98792960Y-82250956D01*
X98792959Y-82250955D01*
X98792955Y-82250954D01*
X98792950Y-82250953D01*
X98792947Y-82250952D01*
X98617703Y-82216101D01*
X98617698Y-82216101D01*
X98543243Y-82216104D01*
X98528352Y-82216105D01*
X98386359Y-82216105D01*
X98386309Y-82216101D01*
X98379746Y-82216101D01*
X98379626Y-82216066D01*
X98239012Y-82216073D01*
X98239008Y-82216074D01*
X98063767Y-82250939D01*
X98063758Y-82250941D01*
X97898686Y-82319324D01*
X97750109Y-82418608D01*
X97623772Y-82544954D01*
X97623768Y-82544958D01*
X97524501Y-82693530D01*
X97489040Y-82779146D01*
X97456125Y-82858614D01*
X97421268Y-83033865D01*
X97421268Y-83033866D01*
X97421269Y-83068897D01*
X97401586Y-83135937D01*
X97348783Y-83181693D01*
X97297269Y-83192900D01*
X76595393Y-83192900D01*
X76528354Y-83173215D01*
X76482599Y-83120411D01*
X76472655Y-83051253D01*
X76501680Y-82987697D01*
X76539097Y-82958416D01*
X76610226Y-82922173D01*
X76610225Y-82922173D01*
X76610228Y-82922172D01*
X76807086Y-82779146D01*
X76979146Y-82607086D01*
X77122172Y-82410228D01*
X77232642Y-82193420D01*
X77307835Y-81961999D01*
X77316549Y-81906981D01*
X77345900Y-81721670D01*
X77345900Y-81478329D01*
X77307835Y-81238000D01*
X77281718Y-81157621D01*
X77232642Y-81006580D01*
X77122172Y-80789772D01*
X76979146Y-80592914D01*
X76807086Y-80420854D01*
X76610228Y-80277828D01*
X76393420Y-80167358D01*
X76333402Y-80147857D01*
X76161999Y-80092164D01*
X75921670Y-80054100D01*
X75921665Y-80054100D01*
X75678335Y-80054100D01*
X75678330Y-80054100D01*
X75438000Y-80092164D01*
X75206577Y-80167359D01*
X74989771Y-80277828D01*
X74877457Y-80359429D01*
X74792914Y-80420854D01*
X74792912Y-80420856D01*
X74792911Y-80420856D01*
X74620856Y-80592911D01*
X74620856Y-80592912D01*
X74620854Y-80592914D01*
X74559429Y-80677457D01*
X74477828Y-80789771D01*
X74367359Y-81006577D01*
X74292164Y-81238000D01*
X74254100Y-81478329D01*
X74254100Y-81721670D01*
X74292164Y-81961999D01*
X74332868Y-82087270D01*
X74367358Y-82193420D01*
X74477828Y-82410228D01*
X74620854Y-82607086D01*
X74792914Y-82779146D01*
X74940557Y-82886415D01*
X74989773Y-82922173D01*
X75060903Y-82958416D01*
X75111698Y-83006390D01*
X75128493Y-83074211D01*
X75105955Y-83140346D01*
X75051240Y-83183797D01*
X75004607Y-83192900D01*
X68600050Y-83192900D01*
X68533011Y-83173215D01*
X68512369Y-83156581D01*
X68083657Y-82727869D01*
X67685129Y-82329341D01*
X67651646Y-82268020D01*
X67656630Y-82198328D01*
X67685129Y-82153982D01*
X67751841Y-82087271D01*
X67826773Y-81975127D01*
X67878387Y-81850520D01*
X67886997Y-81807231D01*
X67904700Y-81718239D01*
X69075299Y-81718239D01*
X69101611Y-81850514D01*
X69101613Y-81850520D01*
X69153225Y-81975124D01*
X69153230Y-81975133D01*
X69228158Y-82087270D01*
X69228161Y-82087274D01*
X69323525Y-82182638D01*
X69323529Y-82182641D01*
X69435666Y-82257569D01*
X69435672Y-82257572D01*
X69435673Y-82257573D01*
X69560280Y-82309187D01*
X69560284Y-82309187D01*
X69560285Y-82309188D01*
X69692560Y-82335500D01*
X69692563Y-82335500D01*
X69827439Y-82335500D01*
X69916431Y-82317797D01*
X69959720Y-82309187D01*
X70084327Y-82257573D01*
X70196471Y-82182641D01*
X70291841Y-82087271D01*
X70291863Y-82087237D01*
X70291897Y-82087188D01*
X70291936Y-82087154D01*
X70295705Y-82082563D01*
X70296575Y-82083277D01*
X70345508Y-82042382D01*
X70414833Y-82033673D01*
X70477861Y-82063827D01*
X70494178Y-82082658D01*
X70494295Y-82082563D01*
X70497867Y-82086916D01*
X70498103Y-82087188D01*
X70498157Y-82087269D01*
X70498161Y-82087274D01*
X70593525Y-82182638D01*
X70593529Y-82182641D01*
X70705666Y-82257569D01*
X70705672Y-82257572D01*
X70705673Y-82257573D01*
X70830280Y-82309187D01*
X70830284Y-82309187D01*
X70830285Y-82309188D01*
X70962560Y-82335500D01*
X70962563Y-82335500D01*
X71097439Y-82335500D01*
X71186431Y-82317797D01*
X71229720Y-82309187D01*
X71354327Y-82257573D01*
X71466471Y-82182641D01*
X71561841Y-82087271D01*
X71636773Y-81975127D01*
X71688387Y-81850520D01*
X71696997Y-81807231D01*
X71714700Y-81718239D01*
X71714700Y-81481760D01*
X71688388Y-81349485D01*
X71688387Y-81349484D01*
X71688387Y-81349480D01*
X71636773Y-81224873D01*
X71636772Y-81224872D01*
X71636769Y-81224866D01*
X71561841Y-81112729D01*
X71561838Y-81112725D01*
X71466474Y-81017361D01*
X71466470Y-81017358D01*
X71354333Y-80942430D01*
X71354324Y-80942425D01*
X71229720Y-80890813D01*
X71229714Y-80890811D01*
X71097439Y-80864500D01*
X71097437Y-80864500D01*
X70962563Y-80864500D01*
X70962561Y-80864500D01*
X70830285Y-80890811D01*
X70830279Y-80890813D01*
X70705675Y-80942425D01*
X70705666Y-80942430D01*
X70593529Y-81017358D01*
X70593525Y-81017361D01*
X70498161Y-81112725D01*
X70498154Y-81112734D01*
X70498097Y-81112820D01*
X70498055Y-81112854D01*
X70494295Y-81117437D01*
X70493425Y-81116723D01*
X70444482Y-81157621D01*
X70375156Y-81166324D01*
X70312131Y-81136165D01*
X70295821Y-81117341D01*
X70295705Y-81117437D01*
X70292148Y-81113103D01*
X70291903Y-81112820D01*
X70291845Y-81112734D01*
X70291838Y-81112725D01*
X70196474Y-81017361D01*
X70196470Y-81017358D01*
X70084333Y-80942430D01*
X70084324Y-80942425D01*
X69959720Y-80890813D01*
X69959714Y-80890811D01*
X69827439Y-80864500D01*
X69827437Y-80864500D01*
X69692563Y-80864500D01*
X69692561Y-80864500D01*
X69560285Y-80890811D01*
X69560279Y-80890813D01*
X69435675Y-80942425D01*
X69435666Y-80942430D01*
X69323529Y-81017358D01*
X69323525Y-81017361D01*
X69228161Y-81112725D01*
X69228158Y-81112729D01*
X69153230Y-81224866D01*
X69153225Y-81224875D01*
X69101613Y-81349479D01*
X69101611Y-81349485D01*
X69075300Y-81481760D01*
X69075300Y-81481763D01*
X69075300Y-81718237D01*
X69075300Y-81718239D01*
X69075299Y-81718239D01*
X67904700Y-81718239D01*
X67904700Y-81481760D01*
X67878388Y-81349485D01*
X67878387Y-81349484D01*
X67878387Y-81349480D01*
X67826773Y-81224873D01*
X67826772Y-81224872D01*
X67826769Y-81224866D01*
X67751841Y-81112729D01*
X67751838Y-81112725D01*
X67656474Y-81017361D01*
X67656470Y-81017358D01*
X67544333Y-80942430D01*
X67544324Y-80942425D01*
X67419720Y-80890813D01*
X67419714Y-80890811D01*
X67287439Y-80864500D01*
X67287437Y-80864500D01*
X67152563Y-80864500D01*
X67152561Y-80864500D01*
X67020285Y-80890811D01*
X67020279Y-80890813D01*
X66895675Y-80942425D01*
X66895666Y-80942430D01*
X66783529Y-81017358D01*
X66783525Y-81017361D01*
X66688161Y-81112725D01*
X66688154Y-81112734D01*
X66688097Y-81112820D01*
X66688055Y-81112854D01*
X66684295Y-81117437D01*
X66683425Y-81116723D01*
X66634482Y-81157621D01*
X66565156Y-81166324D01*
X66502131Y-81136165D01*
X66485821Y-81117341D01*
X66485705Y-81117437D01*
X66482148Y-81113103D01*
X66481903Y-81112820D01*
X66481845Y-81112734D01*
X66481838Y-81112725D01*
X66386474Y-81017361D01*
X66386470Y-81017358D01*
X66274333Y-80942430D01*
X66274324Y-80942425D01*
X66149720Y-80890813D01*
X66149714Y-80890811D01*
X66017439Y-80864500D01*
X66017437Y-80864500D01*
X65882563Y-80864500D01*
X65882561Y-80864500D01*
X65750285Y-80890811D01*
X65750279Y-80890813D01*
X65625675Y-80942425D01*
X65625666Y-80942430D01*
X65513529Y-81017358D01*
X65513525Y-81017361D01*
X65418161Y-81112725D01*
X65418158Y-81112729D01*
X65343230Y-81224866D01*
X65343225Y-81224875D01*
X65291613Y-81349479D01*
X65291611Y-81349485D01*
X65265300Y-81481760D01*
X65265300Y-81481763D01*
X65265300Y-81718237D01*
X65265300Y-81718239D01*
X65265299Y-81718239D01*
X65291611Y-81850514D01*
X65291613Y-81850520D01*
X65343225Y-81975124D01*
X65343230Y-81975133D01*
X65418158Y-82087270D01*
X65418161Y-82087274D01*
X65513525Y-82182638D01*
X65513529Y-82182641D01*
X65625666Y-82257569D01*
X65625672Y-82257572D01*
X65625673Y-82257573D01*
X65750280Y-82309187D01*
X65750284Y-82309187D01*
X65750285Y-82309188D01*
X65882560Y-82335500D01*
X65882563Y-82335500D01*
X66017438Y-82335500D01*
X66053890Y-82328248D01*
X66149720Y-82309187D01*
X66149722Y-82309185D01*
X66152241Y-82308685D01*
X66221832Y-82314912D01*
X66264114Y-82342621D01*
X67346449Y-83424955D01*
X68011636Y-84090142D01*
X68011639Y-84090147D01*
X68068053Y-84146561D01*
X68114351Y-84173290D01*
X68122336Y-84179884D01*
X68136345Y-84200585D01*
X68153598Y-84218678D01*
X68155592Y-84229024D01*
X68161496Y-84237748D01*
X68162090Y-84262736D01*
X68166822Y-84287285D01*
X68162906Y-84297065D01*
X68163157Y-84307598D01*
X68150144Y-84328943D01*
X68140855Y-84352150D01*
X68132273Y-84358260D01*
X68126790Y-84367257D01*
X68104304Y-84378178D01*
X68083941Y-84392680D01*
X68069423Y-84395121D01*
X68063941Y-84397784D01*
X68057891Y-84397060D01*
X68043383Y-84399500D01*
X34674500Y-84399500D01*
X34607461Y-84379815D01*
X34561706Y-84327011D01*
X34550500Y-84275500D01*
X34550500Y-81478329D01*
X35514102Y-81478329D01*
X35514102Y-81721670D01*
X35552166Y-81961999D01*
X35592870Y-82087270D01*
X35627360Y-82193420D01*
X35737830Y-82410228D01*
X35880856Y-82607086D01*
X36052916Y-82779146D01*
X36249774Y-82922172D01*
X36466582Y-83032642D01*
X36594519Y-83074211D01*
X36698002Y-83107835D01*
X36938332Y-83145900D01*
X36938337Y-83145900D01*
X37181672Y-83145900D01*
X37422001Y-83107835D01*
X37441193Y-83101599D01*
X37653422Y-83032642D01*
X37870230Y-82922172D01*
X38067088Y-82779146D01*
X38239148Y-82607086D01*
X38382174Y-82410228D01*
X38492644Y-82193420D01*
X38567837Y-81961999D01*
X38576551Y-81906981D01*
X38605902Y-81721670D01*
X38605902Y-81478329D01*
X38567837Y-81238000D01*
X38541720Y-81157621D01*
X38492644Y-81006580D01*
X38382174Y-80789772D01*
X38239148Y-80592914D01*
X38067088Y-80420854D01*
X37870230Y-80277828D01*
X37653422Y-80167358D01*
X37593404Y-80147857D01*
X37422001Y-80092164D01*
X37181672Y-80054100D01*
X37181667Y-80054100D01*
X36938337Y-80054100D01*
X36938332Y-80054100D01*
X36698002Y-80092164D01*
X36466579Y-80167359D01*
X36249773Y-80277828D01*
X36137459Y-80359429D01*
X36052916Y-80420854D01*
X36052914Y-80420856D01*
X36052913Y-80420856D01*
X35880858Y-80592911D01*
X35880858Y-80592912D01*
X35880856Y-80592914D01*
X35819431Y-80677457D01*
X35737830Y-80789771D01*
X35627361Y-81006577D01*
X35552166Y-81238000D01*
X35514102Y-81478329D01*
X34550500Y-81478329D01*
X34550500Y-37478329D01*
X35514102Y-37478329D01*
X35514102Y-37721670D01*
X35552166Y-37961999D01*
X35592870Y-38087270D01*
X35627360Y-38193420D01*
X35737830Y-38410228D01*
X35880856Y-38607086D01*
X36052916Y-38779146D01*
X36249774Y-38922172D01*
X36466582Y-39032642D01*
X36642309Y-39089739D01*
X36698002Y-39107835D01*
X36938332Y-39145900D01*
X36938337Y-39145900D01*
X37181672Y-39145900D01*
X37422001Y-39107835D01*
X37439251Y-39102230D01*
X37653422Y-39032642D01*
X37870230Y-38922172D01*
X38067088Y-38779146D01*
X38239148Y-38607086D01*
X38382174Y-38410228D01*
X38492644Y-38193420D01*
X38567837Y-37961999D01*
X38577522Y-37900850D01*
X38605902Y-37721670D01*
X38605902Y-37718239D01*
X39865299Y-37718239D01*
X39891611Y-37850514D01*
X39891613Y-37850520D01*
X39912460Y-37900850D01*
X39940061Y-37967483D01*
X39949500Y-38014936D01*
X39949500Y-81185063D01*
X39940061Y-81232516D01*
X39891613Y-81349479D01*
X39891611Y-81349485D01*
X39865300Y-81481760D01*
X39865300Y-81481763D01*
X39865300Y-81718237D01*
X39865300Y-81718239D01*
X39865299Y-81718239D01*
X39891611Y-81850514D01*
X39891613Y-81850520D01*
X39943225Y-81975124D01*
X39943230Y-81975133D01*
X40018158Y-82087270D01*
X40018161Y-82087274D01*
X40113525Y-82182638D01*
X40113529Y-82182641D01*
X40225666Y-82257569D01*
X40225672Y-82257572D01*
X40225673Y-82257573D01*
X40350280Y-82309187D01*
X40350284Y-82309187D01*
X40350285Y-82309188D01*
X40482560Y-82335500D01*
X40482563Y-82335500D01*
X40617439Y-82335500D01*
X40706431Y-82317797D01*
X40749720Y-82309187D01*
X40874327Y-82257573D01*
X40986471Y-82182641D01*
X41081841Y-82087271D01*
X41081863Y-82087237D01*
X41081897Y-82087188D01*
X41081936Y-82087154D01*
X41085705Y-82082563D01*
X41086575Y-82083277D01*
X41135508Y-82042382D01*
X41204833Y-82033673D01*
X41267861Y-82063827D01*
X41284178Y-82082658D01*
X41284295Y-82082563D01*
X41287867Y-82086916D01*
X41288103Y-82087188D01*
X41288157Y-82087269D01*
X41288161Y-82087274D01*
X41383525Y-82182638D01*
X41383529Y-82182641D01*
X41495666Y-82257569D01*
X41495672Y-82257572D01*
X41495673Y-82257573D01*
X41620280Y-82309187D01*
X41620284Y-82309187D01*
X41620285Y-82309188D01*
X41752560Y-82335500D01*
X41752563Y-82335500D01*
X41887439Y-82335500D01*
X41976431Y-82317797D01*
X42019720Y-82309187D01*
X42144327Y-82257573D01*
X42256471Y-82182641D01*
X42351841Y-82087271D01*
X42351863Y-82087237D01*
X42351897Y-82087188D01*
X42351936Y-82087154D01*
X42355705Y-82082563D01*
X42356575Y-82083277D01*
X42405508Y-82042382D01*
X42474833Y-82033673D01*
X42537861Y-82063827D01*
X42554178Y-82082658D01*
X42554295Y-82082563D01*
X42557867Y-82086916D01*
X42558103Y-82087188D01*
X42558157Y-82087269D01*
X42558161Y-82087274D01*
X42653525Y-82182638D01*
X42653529Y-82182641D01*
X42765666Y-82257569D01*
X42765672Y-82257572D01*
X42765673Y-82257573D01*
X42890280Y-82309187D01*
X42890284Y-82309187D01*
X42890285Y-82309188D01*
X43022560Y-82335500D01*
X43022563Y-82335500D01*
X43157439Y-82335500D01*
X43246431Y-82317797D01*
X43289720Y-82309187D01*
X43414327Y-82257573D01*
X43526471Y-82182641D01*
X43621841Y-82087271D01*
X43696773Y-81975127D01*
X43748387Y-81850520D01*
X43756997Y-81807231D01*
X43774700Y-81718239D01*
X43774700Y-81481760D01*
X43748388Y-81349485D01*
X43748387Y-81349484D01*
X43748387Y-81349480D01*
X43702211Y-81238001D01*
X43699939Y-81232516D01*
X43690500Y-81185063D01*
X43690500Y-38014936D01*
X43699939Y-37967483D01*
X43703316Y-37959330D01*
X43748387Y-37850520D01*
X43756997Y-37807231D01*
X43774700Y-37718239D01*
X44945299Y-37718239D01*
X44971611Y-37850514D01*
X44971613Y-37850520D01*
X44992460Y-37900850D01*
X45020061Y-37967483D01*
X45029500Y-38014936D01*
X45029500Y-81185063D01*
X45020061Y-81232516D01*
X44971613Y-81349479D01*
X44971611Y-81349485D01*
X44945300Y-81481760D01*
X44945300Y-81481763D01*
X44945300Y-81718237D01*
X44945300Y-81718239D01*
X44945299Y-81718239D01*
X44971611Y-81850514D01*
X44971613Y-81850520D01*
X45023225Y-81975124D01*
X45023230Y-81975133D01*
X45098158Y-82087270D01*
X45098161Y-82087274D01*
X45193525Y-82182638D01*
X45193529Y-82182641D01*
X45305666Y-82257569D01*
X45305672Y-82257572D01*
X45305673Y-82257573D01*
X45430280Y-82309187D01*
X45430284Y-82309187D01*
X45430285Y-82309188D01*
X45562560Y-82335500D01*
X45562563Y-82335500D01*
X45697439Y-82335500D01*
X45786431Y-82317797D01*
X45829720Y-82309187D01*
X45954327Y-82257573D01*
X46066471Y-82182641D01*
X46161841Y-82087271D01*
X46236773Y-81975127D01*
X46288387Y-81850520D01*
X46296997Y-81807231D01*
X46314700Y-81718239D01*
X46314700Y-81481760D01*
X46288388Y-81349485D01*
X46288387Y-81349484D01*
X46288387Y-81349480D01*
X46242211Y-81238001D01*
X46239939Y-81232516D01*
X46230500Y-81185063D01*
X46230500Y-38014936D01*
X46239939Y-37967483D01*
X46243316Y-37959330D01*
X46288387Y-37850520D01*
X46296997Y-37807231D01*
X46314700Y-37718239D01*
X47485299Y-37718239D01*
X47511611Y-37850514D01*
X47511613Y-37850520D01*
X47532460Y-37900850D01*
X47560061Y-37967483D01*
X47569500Y-38014936D01*
X47569500Y-81185063D01*
X47560061Y-81232516D01*
X47511613Y-81349479D01*
X47511611Y-81349485D01*
X47485300Y-81481760D01*
X47485300Y-81481763D01*
X47485300Y-81718237D01*
X47485300Y-81718239D01*
X47485299Y-81718239D01*
X47511611Y-81850514D01*
X47511613Y-81850520D01*
X47563225Y-81975124D01*
X47563230Y-81975133D01*
X47638158Y-82087270D01*
X47638161Y-82087274D01*
X47733525Y-82182638D01*
X47733529Y-82182641D01*
X47845666Y-82257569D01*
X47845672Y-82257572D01*
X47845673Y-82257573D01*
X47970280Y-82309187D01*
X47970284Y-82309187D01*
X47970285Y-82309188D01*
X48102560Y-82335500D01*
X48102563Y-82335500D01*
X48237439Y-82335500D01*
X48326431Y-82317797D01*
X48369720Y-82309187D01*
X48494327Y-82257573D01*
X48606471Y-82182641D01*
X48701841Y-82087271D01*
X48701863Y-82087237D01*
X48701897Y-82087188D01*
X48701936Y-82087154D01*
X48705705Y-82082563D01*
X48706575Y-82083277D01*
X48755508Y-82042382D01*
X48824833Y-82033673D01*
X48887861Y-82063827D01*
X48904178Y-82082658D01*
X48904295Y-82082563D01*
X48907867Y-82086916D01*
X48908103Y-82087188D01*
X48908157Y-82087269D01*
X48908161Y-82087274D01*
X49003525Y-82182638D01*
X49003529Y-82182641D01*
X49115666Y-82257569D01*
X49115672Y-82257572D01*
X49115673Y-82257573D01*
X49240280Y-82309187D01*
X49240284Y-82309187D01*
X49240285Y-82309188D01*
X49372560Y-82335500D01*
X49372563Y-82335500D01*
X49507439Y-82335500D01*
X49596431Y-82317797D01*
X49639720Y-82309187D01*
X49764327Y-82257573D01*
X49876471Y-82182641D01*
X49971841Y-82087271D01*
X49971863Y-82087237D01*
X49971897Y-82087188D01*
X49971936Y-82087154D01*
X49975705Y-82082563D01*
X49976575Y-82083277D01*
X50025508Y-82042382D01*
X50094833Y-82033673D01*
X50157861Y-82063827D01*
X50174178Y-82082658D01*
X50174295Y-82082563D01*
X50177867Y-82086916D01*
X50178103Y-82087188D01*
X50178157Y-82087269D01*
X50178161Y-82087274D01*
X50273525Y-82182638D01*
X50273529Y-82182641D01*
X50385666Y-82257569D01*
X50385672Y-82257572D01*
X50385673Y-82257573D01*
X50510280Y-82309187D01*
X50510284Y-82309187D01*
X50510285Y-82309188D01*
X50642560Y-82335500D01*
X50642563Y-82335500D01*
X50777439Y-82335500D01*
X50866431Y-82317797D01*
X50909720Y-82309187D01*
X51034327Y-82257573D01*
X51146471Y-82182641D01*
X51241841Y-82087271D01*
X51316773Y-81975127D01*
X51368387Y-81850520D01*
X51376997Y-81807231D01*
X51394700Y-81718239D01*
X51394700Y-81481760D01*
X51368388Y-81349485D01*
X51368387Y-81349484D01*
X51368387Y-81349480D01*
X51322211Y-81238001D01*
X51319939Y-81232516D01*
X51310500Y-81185063D01*
X51310500Y-38014936D01*
X51319939Y-37967483D01*
X51323316Y-37959330D01*
X51368387Y-37850520D01*
X51376997Y-37807231D01*
X51394700Y-37718239D01*
X55105299Y-37718239D01*
X55131611Y-37850514D01*
X55131613Y-37850520D01*
X55152460Y-37900850D01*
X55180061Y-37967483D01*
X55189500Y-38014936D01*
X55189500Y-81185063D01*
X55180061Y-81232516D01*
X55131613Y-81349479D01*
X55131611Y-81349485D01*
X55105300Y-81481760D01*
X55105300Y-81481763D01*
X55105300Y-81718237D01*
X55105300Y-81718239D01*
X55105299Y-81718239D01*
X55131611Y-81850514D01*
X55131613Y-81850520D01*
X55183225Y-81975124D01*
X55183230Y-81975133D01*
X55258158Y-82087270D01*
X55258161Y-82087274D01*
X55353525Y-82182638D01*
X55353529Y-82182641D01*
X55465666Y-82257569D01*
X55465672Y-82257572D01*
X55465673Y-82257573D01*
X55590280Y-82309187D01*
X55590284Y-82309187D01*
X55590285Y-82309188D01*
X55722560Y-82335500D01*
X55722563Y-82335500D01*
X55857439Y-82335500D01*
X55946431Y-82317797D01*
X55989720Y-82309187D01*
X56114327Y-82257573D01*
X56226471Y-82182641D01*
X56321841Y-82087271D01*
X56321863Y-82087237D01*
X56321897Y-82087188D01*
X56321936Y-82087154D01*
X56325705Y-82082563D01*
X56326575Y-82083277D01*
X56375508Y-82042382D01*
X56444833Y-82033673D01*
X56507861Y-82063827D01*
X56524178Y-82082658D01*
X56524295Y-82082563D01*
X56527867Y-82086916D01*
X56528103Y-82087188D01*
X56528157Y-82087269D01*
X56528161Y-82087274D01*
X56623525Y-82182638D01*
X56623529Y-82182641D01*
X56735666Y-82257569D01*
X56735672Y-82257572D01*
X56735673Y-82257573D01*
X56860280Y-82309187D01*
X56860284Y-82309187D01*
X56860285Y-82309188D01*
X56992560Y-82335500D01*
X56992563Y-82335500D01*
X57127439Y-82335500D01*
X57216431Y-82317797D01*
X57259720Y-82309187D01*
X57384327Y-82257573D01*
X57496471Y-82182641D01*
X57591841Y-82087271D01*
X57591863Y-82087237D01*
X57591897Y-82087188D01*
X57591936Y-82087154D01*
X57595705Y-82082563D01*
X57596575Y-82083277D01*
X57645508Y-82042382D01*
X57714833Y-82033673D01*
X57777861Y-82063827D01*
X57794178Y-82082658D01*
X57794295Y-82082563D01*
X57797867Y-82086916D01*
X57798103Y-82087188D01*
X57798157Y-82087269D01*
X57798161Y-82087274D01*
X57893525Y-82182638D01*
X57893529Y-82182641D01*
X58005666Y-82257569D01*
X58005672Y-82257572D01*
X58005673Y-82257573D01*
X58130280Y-82309187D01*
X58130284Y-82309187D01*
X58130285Y-82309188D01*
X58262560Y-82335500D01*
X58262563Y-82335500D01*
X58397439Y-82335500D01*
X58486431Y-82317797D01*
X58529720Y-82309187D01*
X58654327Y-82257573D01*
X58766471Y-82182641D01*
X58861841Y-82087271D01*
X58936773Y-81975127D01*
X58988387Y-81850520D01*
X58996997Y-81807231D01*
X59014700Y-81718239D01*
X59014700Y-81481760D01*
X58988388Y-81349485D01*
X58988387Y-81349484D01*
X58988387Y-81349480D01*
X58942211Y-81238001D01*
X58939939Y-81232516D01*
X58930500Y-81185063D01*
X58930500Y-71587648D01*
X83099500Y-71587648D01*
X83099500Y-71792352D01*
X83099912Y-71794953D01*
X83131522Y-71994534D01*
X83194781Y-72189223D01*
X83287715Y-72371613D01*
X83408028Y-72537213D01*
X83552786Y-72681971D01*
X83707749Y-72794556D01*
X83718390Y-72802287D01*
X83834607Y-72861503D01*
X83900776Y-72895218D01*
X83900778Y-72895218D01*
X83900781Y-72895220D01*
X84005137Y-72929127D01*
X84095465Y-72958477D01*
X84196557Y-72974488D01*
X84297648Y-72990500D01*
X84297649Y-72990500D01*
X84502351Y-72990500D01*
X84502352Y-72990500D01*
X84704534Y-72958477D01*
X84899219Y-72895220D01*
X85081610Y-72802287D01*
X85174590Y-72734732D01*
X85247213Y-72681971D01*
X85247215Y-72681968D01*
X85247219Y-72681966D01*
X85391966Y-72537219D01*
X85391968Y-72537215D01*
X85391971Y-72537213D01*
X85444732Y-72464590D01*
X85512287Y-72371610D01*
X85605220Y-72189219D01*
X85668477Y-71994534D01*
X85700089Y-71794948D01*
X121834686Y-71794948D01*
X121834686Y-72825053D01*
X121846317Y-72883529D01*
X121850992Y-72894813D01*
X121847650Y-72896197D01*
X121862238Y-72942792D01*
X121848181Y-72994024D01*
X121850992Y-72995189D01*
X121846317Y-73006472D01*
X121834686Y-73064948D01*
X121834686Y-74095053D01*
X121846317Y-74153530D01*
X121846318Y-74153531D01*
X121890633Y-74219853D01*
X121956955Y-74264168D01*
X121956956Y-74264169D01*
X122015433Y-74275800D01*
X122015436Y-74275801D01*
X122015438Y-74275801D01*
X124264736Y-74275801D01*
X124264737Y-74275800D01*
X124279554Y-74272853D01*
X124323215Y-74264169D01*
X124323215Y-74264168D01*
X124323217Y-74264168D01*
X124389538Y-74219853D01*
X124433853Y-74153532D01*
X124433853Y-74153530D01*
X124433854Y-74153530D01*
X124445485Y-74095053D01*
X124445486Y-74095051D01*
X124445486Y-73064950D01*
X124445485Y-73064948D01*
X124433854Y-73006471D01*
X124429180Y-72995188D01*
X124432523Y-72993803D01*
X124417934Y-72947231D01*
X124431987Y-72895976D01*
X124429180Y-72894814D01*
X124433854Y-72883530D01*
X124445485Y-72825053D01*
X124445486Y-72825051D01*
X124445486Y-71794950D01*
X124445485Y-71794948D01*
X124433854Y-71736471D01*
X124433853Y-71736470D01*
X124389538Y-71670148D01*
X124323216Y-71625833D01*
X124323215Y-71625832D01*
X124264738Y-71614201D01*
X124264734Y-71614201D01*
X122015438Y-71614201D01*
X122015433Y-71614201D01*
X121956956Y-71625832D01*
X121956955Y-71625833D01*
X121890633Y-71670148D01*
X121846318Y-71736470D01*
X121846317Y-71736471D01*
X121834686Y-71794948D01*
X85700089Y-71794948D01*
X85700500Y-71792352D01*
X85700500Y-71587648D01*
X85668477Y-71385466D01*
X85605220Y-71190781D01*
X85605218Y-71190778D01*
X85605218Y-71190776D01*
X85571503Y-71124607D01*
X85512287Y-71008390D01*
X85504556Y-70997749D01*
X85391971Y-70842786D01*
X85247213Y-70698028D01*
X85081613Y-70577715D01*
X85081612Y-70577714D01*
X85081610Y-70577713D01*
X85024653Y-70548691D01*
X84899223Y-70484781D01*
X84704534Y-70421522D01*
X84529995Y-70393878D01*
X84502352Y-70389500D01*
X84297648Y-70389500D01*
X84273329Y-70393351D01*
X84095465Y-70421522D01*
X83900776Y-70484781D01*
X83718386Y-70577715D01*
X83552786Y-70698028D01*
X83408028Y-70842786D01*
X83287715Y-71008386D01*
X83194781Y-71190776D01*
X83131522Y-71385465D01*
X83099500Y-71587648D01*
X58930500Y-71587648D01*
X58930500Y-65618995D01*
X83499499Y-65618995D01*
X83526418Y-65754322D01*
X83526421Y-65754332D01*
X83579221Y-65881804D01*
X83579228Y-65881817D01*
X83655885Y-65996541D01*
X83655888Y-65996545D01*
X83756662Y-66097319D01*
X83790147Y-66158642D01*
X83785163Y-66228334D01*
X83756662Y-66272681D01*
X83655888Y-66373454D01*
X83655885Y-66373458D01*
X83579228Y-66488182D01*
X83579221Y-66488195D01*
X83526421Y-66615667D01*
X83526418Y-66615677D01*
X83499500Y-66751004D01*
X83499500Y-66751007D01*
X83499500Y-66888993D01*
X83499500Y-66888995D01*
X83499499Y-66888995D01*
X83526418Y-67024322D01*
X83526421Y-67024332D01*
X83579221Y-67151804D01*
X83579228Y-67151817D01*
X83655885Y-67266541D01*
X83655888Y-67266545D01*
X83756662Y-67367319D01*
X83790147Y-67428642D01*
X83785163Y-67498334D01*
X83756662Y-67542681D01*
X83655888Y-67643454D01*
X83655885Y-67643458D01*
X83579228Y-67758182D01*
X83579221Y-67758195D01*
X83526421Y-67885667D01*
X83526418Y-67885677D01*
X83499500Y-68021004D01*
X83499500Y-68021007D01*
X83499500Y-68158993D01*
X83499500Y-68158995D01*
X83499499Y-68158995D01*
X83526418Y-68294322D01*
X83526421Y-68294332D01*
X83579221Y-68421804D01*
X83579228Y-68421817D01*
X83655885Y-68536541D01*
X83655888Y-68536545D01*
X83753454Y-68634111D01*
X83753458Y-68634114D01*
X83868182Y-68710771D01*
X83868195Y-68710778D01*
X83995667Y-68763578D01*
X83995672Y-68763580D01*
X83995676Y-68763580D01*
X83995677Y-68763581D01*
X84131004Y-68790500D01*
X84131007Y-68790500D01*
X84668995Y-68790500D01*
X84760041Y-68772389D01*
X84804328Y-68763580D01*
X84931811Y-68710775D01*
X85046542Y-68634114D01*
X85144114Y-68536542D01*
X85220775Y-68421811D01*
X85273580Y-68294328D01*
X85300500Y-68158993D01*
X85300500Y-68021007D01*
X85300500Y-68021004D01*
X85273581Y-67885677D01*
X85273580Y-67885676D01*
X85273580Y-67885672D01*
X85237258Y-67797983D01*
X85229456Y-67779147D01*
X124270800Y-67779147D01*
X124270800Y-70180852D01*
X124282431Y-70239329D01*
X124282432Y-70239330D01*
X124326747Y-70305652D01*
X124393069Y-70349967D01*
X124393070Y-70349968D01*
X124451547Y-70361599D01*
X124451550Y-70361600D01*
X124451552Y-70361600D01*
X126548450Y-70361600D01*
X126548451Y-70361599D01*
X126563268Y-70358652D01*
X126606929Y-70349968D01*
X126606929Y-70349967D01*
X126606931Y-70349967D01*
X126673252Y-70305652D01*
X126717567Y-70239331D01*
X126717567Y-70239329D01*
X126717568Y-70239329D01*
X126729199Y-70180852D01*
X126729200Y-70180850D01*
X126729200Y-67779149D01*
X126729199Y-67779147D01*
X126717568Y-67720670D01*
X126717567Y-67720669D01*
X126673252Y-67654347D01*
X126606930Y-67610032D01*
X126606929Y-67610031D01*
X126548452Y-67598400D01*
X126548448Y-67598400D01*
X124451552Y-67598400D01*
X124451547Y-67598400D01*
X124393070Y-67610031D01*
X124393069Y-67610032D01*
X124326747Y-67654347D01*
X124282432Y-67720669D01*
X124282431Y-67720670D01*
X124270800Y-67779147D01*
X85229456Y-67779147D01*
X85220778Y-67758194D01*
X85220771Y-67758182D01*
X85144114Y-67643458D01*
X85144111Y-67643454D01*
X85043338Y-67542681D01*
X85009853Y-67481358D01*
X85014837Y-67411666D01*
X85043338Y-67367319D01*
X85144111Y-67266545D01*
X85144114Y-67266542D01*
X85220775Y-67151811D01*
X85273580Y-67024328D01*
X85300500Y-66888993D01*
X85300500Y-66751007D01*
X85300500Y-66751004D01*
X85273581Y-66615677D01*
X85273580Y-66615676D01*
X85273580Y-66615672D01*
X85273578Y-66615667D01*
X85220778Y-66488195D01*
X85220771Y-66488182D01*
X85144114Y-66373458D01*
X85144111Y-66373454D01*
X85043338Y-66272681D01*
X85009853Y-66211358D01*
X85014837Y-66141666D01*
X85043338Y-66097319D01*
X85144111Y-65996545D01*
X85144114Y-65996542D01*
X85220775Y-65881811D01*
X85273580Y-65754328D01*
X85300500Y-65618993D01*
X85300500Y-65481007D01*
X85300500Y-65481004D01*
X85273581Y-65345677D01*
X85273580Y-65345676D01*
X85273580Y-65345672D01*
X85273578Y-65345667D01*
X85220778Y-65218195D01*
X85220771Y-65218182D01*
X85144114Y-65103458D01*
X85144111Y-65103454D01*
X85046545Y-65005888D01*
X85046541Y-65005885D01*
X84931817Y-64929228D01*
X84931804Y-64929221D01*
X84804332Y-64876421D01*
X84804322Y-64876418D01*
X84668995Y-64849500D01*
X84668993Y-64849500D01*
X84131007Y-64849500D01*
X84131005Y-64849500D01*
X83995677Y-64876418D01*
X83995667Y-64876421D01*
X83868195Y-64929221D01*
X83868182Y-64929228D01*
X83753458Y-65005885D01*
X83753454Y-65005888D01*
X83655888Y-65103454D01*
X83655885Y-65103458D01*
X83579228Y-65218182D01*
X83579221Y-65218195D01*
X83526421Y-65345667D01*
X83526418Y-65345677D01*
X83499500Y-65481004D01*
X83499500Y-65481007D01*
X83499500Y-65618993D01*
X83499500Y-65618995D01*
X83499499Y-65618995D01*
X58930500Y-65618995D01*
X58930500Y-57998995D01*
X83499499Y-57998995D01*
X83526418Y-58134322D01*
X83526421Y-58134332D01*
X83579221Y-58261804D01*
X83579228Y-58261817D01*
X83655885Y-58376541D01*
X83655888Y-58376545D01*
X83756662Y-58477319D01*
X83790147Y-58538642D01*
X83785163Y-58608334D01*
X83756662Y-58652681D01*
X83655888Y-58753454D01*
X83655885Y-58753458D01*
X83579228Y-58868182D01*
X83579221Y-58868195D01*
X83526421Y-58995667D01*
X83526418Y-58995677D01*
X83499500Y-59131004D01*
X83499500Y-59131007D01*
X83499500Y-59268993D01*
X83499500Y-59268995D01*
X83499499Y-59268995D01*
X83526418Y-59404322D01*
X83526421Y-59404332D01*
X83579221Y-59531804D01*
X83579228Y-59531817D01*
X83655885Y-59646541D01*
X83655888Y-59646545D01*
X83756662Y-59747319D01*
X83790147Y-59808642D01*
X83785163Y-59878334D01*
X83756662Y-59922681D01*
X83655888Y-60023454D01*
X83655885Y-60023458D01*
X83579228Y-60138182D01*
X83579221Y-60138195D01*
X83526421Y-60265667D01*
X83526418Y-60265677D01*
X83499500Y-60401004D01*
X83499500Y-60401007D01*
X83499500Y-60538993D01*
X83499500Y-60538995D01*
X83499499Y-60538995D01*
X83526418Y-60674322D01*
X83526421Y-60674332D01*
X83579221Y-60801804D01*
X83579228Y-60801817D01*
X83655885Y-60916541D01*
X83655888Y-60916545D01*
X83753454Y-61014111D01*
X83753458Y-61014114D01*
X83868182Y-61090771D01*
X83868195Y-61090778D01*
X83995667Y-61143578D01*
X83995672Y-61143580D01*
X83995676Y-61143580D01*
X83995677Y-61143581D01*
X84131004Y-61170500D01*
X84131007Y-61170500D01*
X84668995Y-61170500D01*
X84760041Y-61152389D01*
X84804328Y-61143580D01*
X84931811Y-61090775D01*
X85046542Y-61014114D01*
X85144114Y-60916542D01*
X85220775Y-60801811D01*
X85273580Y-60674328D01*
X85300500Y-60538993D01*
X85300500Y-60401007D01*
X85300500Y-60401004D01*
X85273581Y-60265677D01*
X85273580Y-60265676D01*
X85273580Y-60265672D01*
X85273578Y-60265667D01*
X85220778Y-60138195D01*
X85220771Y-60138182D01*
X85144114Y-60023458D01*
X85144111Y-60023454D01*
X85043338Y-59922681D01*
X85009853Y-59861358D01*
X85014837Y-59791666D01*
X85043338Y-59747319D01*
X85144111Y-59646545D01*
X85144114Y-59646542D01*
X85220775Y-59531811D01*
X85273580Y-59404328D01*
X85300500Y-59268993D01*
X85300500Y-59131007D01*
X85300500Y-59131004D01*
X85273581Y-58995677D01*
X85273580Y-58995676D01*
X85273580Y-58995672D01*
X85273578Y-58995667D01*
X85220778Y-58868195D01*
X85220771Y-58868182D01*
X85144114Y-58753458D01*
X85144111Y-58753454D01*
X85043338Y-58652681D01*
X85009853Y-58591358D01*
X85014837Y-58521666D01*
X85043338Y-58477319D01*
X85144111Y-58376545D01*
X85144114Y-58376542D01*
X85220775Y-58261811D01*
X85273580Y-58134328D01*
X85300500Y-57998993D01*
X85300500Y-57861007D01*
X85300500Y-57861004D01*
X85273581Y-57725677D01*
X85273580Y-57725676D01*
X85273580Y-57725672D01*
X85273578Y-57725667D01*
X85220778Y-57598195D01*
X85220771Y-57598182D01*
X85144114Y-57483458D01*
X85144111Y-57483454D01*
X85046545Y-57385888D01*
X85046541Y-57385885D01*
X84931817Y-57309228D01*
X84931804Y-57309221D01*
X84804332Y-57256421D01*
X84804322Y-57256418D01*
X84668995Y-57229500D01*
X84668993Y-57229500D01*
X84131007Y-57229500D01*
X84131005Y-57229500D01*
X83995677Y-57256418D01*
X83995667Y-57256421D01*
X83868195Y-57309221D01*
X83868182Y-57309228D01*
X83753458Y-57385885D01*
X83753454Y-57385888D01*
X83655888Y-57483454D01*
X83655885Y-57483458D01*
X83579228Y-57598182D01*
X83579221Y-57598195D01*
X83526421Y-57725667D01*
X83526418Y-57725677D01*
X83499500Y-57861004D01*
X83499500Y-57861007D01*
X83499500Y-57998993D01*
X83499500Y-57998995D01*
X83499499Y-57998995D01*
X58930500Y-57998995D01*
X58930500Y-55458995D01*
X83499499Y-55458995D01*
X83526418Y-55594322D01*
X83526421Y-55594332D01*
X83579221Y-55721804D01*
X83579228Y-55721817D01*
X83655885Y-55836541D01*
X83655888Y-55836545D01*
X83753454Y-55934111D01*
X83753458Y-55934114D01*
X83868182Y-56010771D01*
X83868195Y-56010778D01*
X83995667Y-56063578D01*
X83995672Y-56063580D01*
X83995676Y-56063580D01*
X83995677Y-56063581D01*
X84131004Y-56090500D01*
X84131007Y-56090500D01*
X84668995Y-56090500D01*
X84760041Y-56072389D01*
X84804328Y-56063580D01*
X84931811Y-56010775D01*
X85046542Y-55934114D01*
X85144114Y-55836542D01*
X85220775Y-55721811D01*
X85273580Y-55594328D01*
X85300500Y-55458993D01*
X85300500Y-55321007D01*
X85300500Y-55321004D01*
X85273581Y-55185677D01*
X85273580Y-55185676D01*
X85273580Y-55185672D01*
X85273578Y-55185667D01*
X85220778Y-55058195D01*
X85220771Y-55058182D01*
X85144114Y-54943458D01*
X85144111Y-54943454D01*
X85046545Y-54845888D01*
X85046541Y-54845885D01*
X84931817Y-54769228D01*
X84931804Y-54769221D01*
X84804332Y-54716421D01*
X84804322Y-54716418D01*
X84668995Y-54689500D01*
X84668993Y-54689500D01*
X84131007Y-54689500D01*
X84131005Y-54689500D01*
X83995677Y-54716418D01*
X83995667Y-54716421D01*
X83868195Y-54769221D01*
X83868182Y-54769228D01*
X83753458Y-54845885D01*
X83753454Y-54845888D01*
X83655888Y-54943454D01*
X83655885Y-54943458D01*
X83579228Y-55058182D01*
X83579221Y-55058195D01*
X83526421Y-55185667D01*
X83526418Y-55185677D01*
X83499500Y-55321004D01*
X83499500Y-55321007D01*
X83499500Y-55458993D01*
X83499500Y-55458995D01*
X83499499Y-55458995D01*
X58930500Y-55458995D01*
X58930500Y-50378995D01*
X83499499Y-50378995D01*
X83526418Y-50514322D01*
X83526421Y-50514332D01*
X83579221Y-50641804D01*
X83579228Y-50641817D01*
X83655885Y-50756541D01*
X83655888Y-50756545D01*
X83756662Y-50857319D01*
X83790147Y-50918642D01*
X83785163Y-50988334D01*
X83756662Y-51032681D01*
X83655888Y-51133454D01*
X83655885Y-51133458D01*
X83579228Y-51248182D01*
X83579221Y-51248195D01*
X83526421Y-51375667D01*
X83526418Y-51375677D01*
X83499500Y-51511004D01*
X83499500Y-51511007D01*
X83499500Y-51648993D01*
X83499500Y-51648995D01*
X83499499Y-51648995D01*
X83526418Y-51784322D01*
X83526421Y-51784332D01*
X83579221Y-51911804D01*
X83579228Y-51911817D01*
X83655885Y-52026541D01*
X83655888Y-52026545D01*
X83756662Y-52127319D01*
X83790147Y-52188642D01*
X83785163Y-52258334D01*
X83756662Y-52302681D01*
X83655888Y-52403454D01*
X83655885Y-52403458D01*
X83579228Y-52518182D01*
X83579221Y-52518195D01*
X83526421Y-52645667D01*
X83526418Y-52645677D01*
X83499500Y-52781004D01*
X83499500Y-52781007D01*
X83499500Y-52918993D01*
X83499500Y-52918995D01*
X83499499Y-52918995D01*
X83526418Y-53054322D01*
X83526421Y-53054332D01*
X83579221Y-53181804D01*
X83579228Y-53181817D01*
X83655885Y-53296541D01*
X83655888Y-53296545D01*
X83753454Y-53394111D01*
X83753458Y-53394114D01*
X83868182Y-53470771D01*
X83868195Y-53470778D01*
X83995667Y-53523578D01*
X83995672Y-53523580D01*
X83995676Y-53523580D01*
X83995677Y-53523581D01*
X84131004Y-53550500D01*
X84131007Y-53550500D01*
X84668995Y-53550500D01*
X84760041Y-53532389D01*
X84804328Y-53523580D01*
X84931811Y-53470775D01*
X85046542Y-53394114D01*
X85144114Y-53296542D01*
X85220775Y-53181811D01*
X85273580Y-53054328D01*
X85300500Y-52918993D01*
X85300500Y-52781007D01*
X85300500Y-52781004D01*
X85273581Y-52645677D01*
X85273580Y-52645676D01*
X85273580Y-52645672D01*
X85273578Y-52645667D01*
X85220778Y-52518195D01*
X85220771Y-52518182D01*
X85144114Y-52403458D01*
X85144111Y-52403454D01*
X85043338Y-52302681D01*
X85009853Y-52241358D01*
X85014837Y-52171666D01*
X85043338Y-52127319D01*
X85144111Y-52026545D01*
X85144114Y-52026542D01*
X85220775Y-51911811D01*
X85273580Y-51784328D01*
X85300500Y-51648993D01*
X85300500Y-51511007D01*
X85300500Y-51511004D01*
X85273581Y-51375677D01*
X85273580Y-51375676D01*
X85273580Y-51375672D01*
X85273578Y-51375667D01*
X85220778Y-51248195D01*
X85220771Y-51248182D01*
X85144114Y-51133458D01*
X85144111Y-51133454D01*
X85043338Y-51032681D01*
X85009853Y-50971358D01*
X85014837Y-50901666D01*
X85043338Y-50857319D01*
X85144111Y-50756545D01*
X85144114Y-50756542D01*
X85220775Y-50641811D01*
X85273580Y-50514328D01*
X85300500Y-50378993D01*
X85300500Y-50241007D01*
X85300500Y-50241004D01*
X85273581Y-50105677D01*
X85273580Y-50105676D01*
X85273580Y-50105672D01*
X85273578Y-50105667D01*
X85220778Y-49978195D01*
X85220771Y-49978182D01*
X85144114Y-49863458D01*
X85144111Y-49863454D01*
X85046545Y-49765888D01*
X85046541Y-49765885D01*
X84931817Y-49689228D01*
X84931804Y-49689221D01*
X84804332Y-49636421D01*
X84804322Y-49636418D01*
X84668995Y-49609500D01*
X84668993Y-49609500D01*
X84131007Y-49609500D01*
X84131005Y-49609500D01*
X83995677Y-49636418D01*
X83995667Y-49636421D01*
X83868195Y-49689221D01*
X83868182Y-49689228D01*
X83753458Y-49765885D01*
X83753454Y-49765888D01*
X83655888Y-49863454D01*
X83655885Y-49863458D01*
X83579228Y-49978182D01*
X83579221Y-49978195D01*
X83526421Y-50105667D01*
X83526418Y-50105677D01*
X83499500Y-50241004D01*
X83499500Y-50241007D01*
X83499500Y-50378993D01*
X83499500Y-50378995D01*
X83499499Y-50378995D01*
X58930500Y-50378995D01*
X58930500Y-47087648D01*
X83099500Y-47087648D01*
X83099500Y-47292351D01*
X83131522Y-47494534D01*
X83194781Y-47689223D01*
X83287715Y-47871613D01*
X83408028Y-48037213D01*
X83552786Y-48181971D01*
X83707749Y-48294556D01*
X83718390Y-48302287D01*
X83834607Y-48361503D01*
X83900776Y-48395218D01*
X83900778Y-48395218D01*
X83900781Y-48395220D01*
X84005137Y-48429127D01*
X84095465Y-48458477D01*
X84196557Y-48474488D01*
X84297648Y-48490500D01*
X84297649Y-48490500D01*
X84502351Y-48490500D01*
X84502352Y-48490500D01*
X84704534Y-48458477D01*
X84899219Y-48395220D01*
X85081610Y-48302287D01*
X85168513Y-48239147D01*
X124270800Y-48239147D01*
X124270800Y-50640852D01*
X124282431Y-50699329D01*
X124282432Y-50699330D01*
X124326747Y-50765652D01*
X124393069Y-50809967D01*
X124393070Y-50809968D01*
X124451547Y-50821599D01*
X124451550Y-50821600D01*
X124451552Y-50821600D01*
X126548450Y-50821600D01*
X126548451Y-50821599D01*
X126563268Y-50818652D01*
X126606929Y-50809968D01*
X126606929Y-50809967D01*
X126606931Y-50809967D01*
X126673252Y-50765652D01*
X126717567Y-50699331D01*
X126717567Y-50699329D01*
X126717568Y-50699329D01*
X126729199Y-50640852D01*
X126729200Y-50640850D01*
X126729200Y-48239149D01*
X126729199Y-48239147D01*
X126717568Y-48180670D01*
X126717567Y-48180669D01*
X126673252Y-48114347D01*
X126606930Y-48070032D01*
X126606929Y-48070031D01*
X126548452Y-48058400D01*
X126548448Y-48058400D01*
X124451552Y-48058400D01*
X124451547Y-48058400D01*
X124393070Y-48070031D01*
X124393069Y-48070032D01*
X124326747Y-48114347D01*
X124282432Y-48180669D01*
X124282431Y-48180670D01*
X124270800Y-48239147D01*
X85168513Y-48239147D01*
X85174590Y-48234732D01*
X85247213Y-48181971D01*
X85247215Y-48181968D01*
X85247219Y-48181966D01*
X85391966Y-48037219D01*
X85391968Y-48037215D01*
X85391971Y-48037213D01*
X85444732Y-47964590D01*
X85512287Y-47871610D01*
X85605220Y-47689219D01*
X85668477Y-47494534D01*
X85700500Y-47292352D01*
X85700500Y-47087648D01*
X85668477Y-46885466D01*
X85605220Y-46690781D01*
X85605218Y-46690778D01*
X85605218Y-46690776D01*
X85571503Y-46624607D01*
X85512287Y-46508390D01*
X85504556Y-46497749D01*
X85391971Y-46342786D01*
X85247213Y-46198028D01*
X85081613Y-46077715D01*
X85081612Y-46077714D01*
X85081610Y-46077713D01*
X85024653Y-46048691D01*
X84899223Y-45984781D01*
X84704534Y-45921522D01*
X84529995Y-45893878D01*
X84502352Y-45889500D01*
X84297648Y-45889500D01*
X84273329Y-45893351D01*
X84095465Y-45921522D01*
X83900776Y-45984781D01*
X83718386Y-46077715D01*
X83552786Y-46198028D01*
X83408028Y-46342786D01*
X83287715Y-46508386D01*
X83194781Y-46690776D01*
X83131522Y-46885465D01*
X83099500Y-47087648D01*
X58930500Y-47087648D01*
X58930500Y-38014936D01*
X58939939Y-37967483D01*
X58943316Y-37959330D01*
X58988387Y-37850520D01*
X58996997Y-37807231D01*
X59014700Y-37718239D01*
X65265299Y-37718239D01*
X65291611Y-37850514D01*
X65291613Y-37850520D01*
X65343225Y-37975124D01*
X65343230Y-37975133D01*
X65418158Y-38087270D01*
X65418161Y-38087274D01*
X65513525Y-38182638D01*
X65513529Y-38182641D01*
X65625666Y-38257569D01*
X65625672Y-38257572D01*
X65625673Y-38257573D01*
X65750280Y-38309187D01*
X65750284Y-38309187D01*
X65750285Y-38309188D01*
X65882560Y-38335500D01*
X65882563Y-38335500D01*
X66017439Y-38335500D01*
X66122050Y-38314691D01*
X66191642Y-38320918D01*
X66233923Y-38348627D01*
X66609839Y-38724542D01*
X66609842Y-38724547D01*
X66666256Y-38780961D01*
X66735349Y-38820851D01*
X66739069Y-38821847D01*
X66751559Y-38831494D01*
X66753746Y-38834509D01*
X66763444Y-38841951D01*
X72781252Y-44859758D01*
X72781267Y-44859775D01*
X72786639Y-44865147D01*
X72786640Y-44865148D01*
X72843054Y-44921562D01*
X72912147Y-44961452D01*
X72928433Y-44965815D01*
X72989210Y-44982102D01*
X73068992Y-44982102D01*
X73068996Y-44982101D01*
X99206900Y-44982101D01*
X99273939Y-45001786D01*
X99319694Y-45054590D01*
X99330900Y-45106101D01*
X99330900Y-45138048D01*
X99330921Y-45138388D01*
X99330921Y-45178524D01*
X99365311Y-45351451D01*
X99365315Y-45351463D01*
X99420827Y-45485490D01*
X99432782Y-45514355D01*
X99447913Y-45537001D01*
X99530735Y-45660962D01*
X99655413Y-45785644D01*
X99802003Y-45883595D01*
X99802012Y-45883601D01*
X99802018Y-45883603D01*
X99802019Y-45883604D01*
X99964902Y-45951075D01*
X99964913Y-45951078D01*
X100137837Y-45985476D01*
X100137840Y-45985476D01*
X100186109Y-45985476D01*
X100368614Y-45985476D01*
X100368696Y-45985500D01*
X100420000Y-45985500D01*
X100508164Y-45985500D01*
X100681093Y-45951101D01*
X100681093Y-45951100D01*
X100681098Y-45951100D01*
X100681100Y-45951098D01*
X100681104Y-45951098D01*
X100780029Y-45910119D01*
X100843999Y-45883622D01*
X100990605Y-45785659D01*
X101115283Y-45660977D01*
X101189910Y-45549282D01*
X101243520Y-45504476D01*
X101312845Y-45495766D01*
X101375873Y-45525919D01*
X101396118Y-45549282D01*
X101470735Y-45660962D01*
X101595413Y-45785644D01*
X101742003Y-45883595D01*
X101742012Y-45883601D01*
X101742018Y-45883603D01*
X101742019Y-45883604D01*
X101904902Y-45951075D01*
X101904913Y-45951078D01*
X102077837Y-45985476D01*
X102077840Y-45985476D01*
X102126109Y-45985476D01*
X102308614Y-45985476D01*
X102308696Y-45985500D01*
X102360000Y-45985500D01*
X102448164Y-45985500D01*
X102621093Y-45951101D01*
X102621093Y-45951100D01*
X102621098Y-45951100D01*
X102621100Y-45951098D01*
X102621104Y-45951098D01*
X102720029Y-45910119D01*
X102783999Y-45883622D01*
X102930605Y-45785659D01*
X103055283Y-45660977D01*
X103153239Y-45514367D01*
X103220710Y-45351463D01*
X103255103Y-45178526D01*
X103255101Y-45106104D01*
X103274784Y-45039064D01*
X103327587Y-44993308D01*
X103379101Y-44982101D01*
X108360109Y-44982101D01*
X120874966Y-44982101D01*
X120942005Y-45001786D01*
X120962647Y-45018420D01*
X121240272Y-45296045D01*
X121240274Y-45296048D01*
X121296688Y-45352462D01*
X121331789Y-45372727D01*
X121365782Y-45392353D01*
X121442845Y-45413002D01*
X121442847Y-45413002D01*
X121530222Y-45413002D01*
X121530238Y-45413001D01*
X121710686Y-45413001D01*
X121777725Y-45432686D01*
X121823480Y-45485490D01*
X121834686Y-45537001D01*
X121834686Y-45625053D01*
X121846317Y-45683530D01*
X121846318Y-45683531D01*
X121890633Y-45749853D01*
X121956955Y-45794168D01*
X121956956Y-45794169D01*
X122015433Y-45805800D01*
X122015436Y-45805801D01*
X122015438Y-45805801D01*
X124264736Y-45805801D01*
X124264737Y-45805800D01*
X124279554Y-45802853D01*
X124323215Y-45794169D01*
X124323215Y-45794168D01*
X124323217Y-45794168D01*
X124389538Y-45749853D01*
X124433853Y-45683532D01*
X124433853Y-45683530D01*
X124433854Y-45683530D01*
X124445485Y-45625053D01*
X124445486Y-45625051D01*
X124445486Y-44594950D01*
X124445485Y-44594948D01*
X124433854Y-44536471D01*
X124429180Y-44525188D01*
X124432523Y-44523803D01*
X124417934Y-44477231D01*
X124431987Y-44425976D01*
X124429180Y-44424814D01*
X124433854Y-44413530D01*
X124445485Y-44355053D01*
X124445486Y-44355051D01*
X124445486Y-43324950D01*
X124445485Y-43324948D01*
X124433854Y-43266471D01*
X124433853Y-43266470D01*
X124389538Y-43200148D01*
X124323216Y-43155833D01*
X124323215Y-43155832D01*
X124264738Y-43144201D01*
X124264734Y-43144201D01*
X122015438Y-43144201D01*
X122015433Y-43144201D01*
X121956956Y-43155832D01*
X121956955Y-43155833D01*
X121890633Y-43200148D01*
X121846318Y-43266470D01*
X121846317Y-43266471D01*
X121834686Y-43324948D01*
X121834686Y-43413001D01*
X121832135Y-43421686D01*
X121833424Y-43430648D01*
X121822445Y-43454688D01*
X121815001Y-43480040D01*
X121808160Y-43485967D01*
X121804399Y-43494204D01*
X121782164Y-43508493D01*
X121762197Y-43525795D01*
X121751682Y-43528082D01*
X121745621Y-43531978D01*
X121710686Y-43537001D01*
X121530238Y-43537001D01*
X121530222Y-43537000D01*
X121522626Y-43537000D01*
X121442845Y-43537000D01*
X121391469Y-43550766D01*
X121365781Y-43557649D01*
X121356047Y-43563269D01*
X121336579Y-43574509D01*
X121326606Y-43580266D01*
X121296691Y-43597537D01*
X121296686Y-43597541D01*
X121240272Y-43653956D01*
X120962647Y-43931582D01*
X120901324Y-43965067D01*
X120874966Y-43967901D01*
X103187363Y-43967901D01*
X103187360Y-43967900D01*
X103136000Y-43967900D01*
X103047840Y-43967900D01*
X103047835Y-43967900D01*
X102874916Y-44002296D01*
X102874908Y-44002298D01*
X102712013Y-44069771D01*
X102712004Y-44069776D01*
X102565407Y-44167730D01*
X102565403Y-44167733D01*
X102496781Y-44236356D01*
X102435458Y-44269841D01*
X102365766Y-44264857D01*
X102309833Y-44222985D01*
X102285416Y-44157521D01*
X102285100Y-44148675D01*
X102285100Y-43811586D01*
X102285075Y-43811228D01*
X102285078Y-43771480D01*
X102250686Y-43598547D01*
X102250269Y-43597541D01*
X102213388Y-43508493D01*
X102183217Y-43435647D01*
X102085264Y-43289041D01*
X101960590Y-43164361D01*
X101960589Y-43164360D01*
X101960588Y-43164359D01*
X101813995Y-43066406D01*
X101813991Y-43066404D01*
X101813987Y-43066401D01*
X101813983Y-43066399D01*
X101813979Y-43066397D01*
X101651097Y-42998926D01*
X101651086Y-42998923D01*
X101478162Y-42964526D01*
X101478160Y-42964526D01*
X101429891Y-42964526D01*
X101247388Y-42964526D01*
X101247299Y-42964500D01*
X101196000Y-42964500D01*
X101107838Y-42964500D01*
X101107836Y-42964500D01*
X100934906Y-42998898D01*
X100934904Y-42998899D01*
X100934839Y-42998926D01*
X100772000Y-43066378D01*
X100771999Y-43066379D01*
X100771996Y-43066380D01*
X100625392Y-43164342D01*
X100500715Y-43289023D01*
X100402762Y-43435631D01*
X100402759Y-43435637D01*
X100335289Y-43598537D01*
X100335287Y-43598545D01*
X100300896Y-43771472D01*
X100300900Y-43859584D01*
X100300900Y-44148676D01*
X100281215Y-44215715D01*
X100228411Y-44261470D01*
X100159253Y-44271414D01*
X100095697Y-44242389D01*
X100089219Y-44236357D01*
X100020596Y-44167734D01*
X100020592Y-44167731D01*
X99873995Y-44069777D01*
X99873986Y-44069772D01*
X99711091Y-44002299D01*
X99711083Y-44002297D01*
X99538164Y-43967901D01*
X99538160Y-43967901D01*
X99489891Y-43967901D01*
X73375051Y-43967901D01*
X73308012Y-43948216D01*
X73287370Y-43931582D01*
X70467350Y-41111562D01*
X67685129Y-38329340D01*
X67651646Y-38268020D01*
X67656630Y-38198328D01*
X67685129Y-38153982D01*
X67751841Y-38087271D01*
X67826773Y-37975127D01*
X67878387Y-37850520D01*
X67886997Y-37807231D01*
X67904700Y-37718239D01*
X69075299Y-37718239D01*
X69101611Y-37850514D01*
X69101613Y-37850520D01*
X69153225Y-37975124D01*
X69153230Y-37975133D01*
X69228158Y-38087270D01*
X69228161Y-38087274D01*
X69323525Y-38182638D01*
X69323529Y-38182641D01*
X69435666Y-38257569D01*
X69435672Y-38257572D01*
X69435673Y-38257573D01*
X69560280Y-38309187D01*
X69560284Y-38309187D01*
X69560285Y-38309188D01*
X69692560Y-38335500D01*
X69692563Y-38335500D01*
X69827439Y-38335500D01*
X69932050Y-38314691D01*
X70001642Y-38320918D01*
X70043923Y-38348627D01*
X72750441Y-41055145D01*
X72750443Y-41055148D01*
X72806857Y-41111562D01*
X72875950Y-41151452D01*
X72892236Y-41155815D01*
X72953013Y-41172102D01*
X73040391Y-41172102D01*
X73040407Y-41172101D01*
X84200560Y-41172101D01*
X84209102Y-41174609D01*
X84217914Y-41173321D01*
X84242110Y-41184301D01*
X84267599Y-41191786D01*
X84273429Y-41198514D01*
X84281539Y-41202195D01*
X84295956Y-41224512D01*
X84313354Y-41244590D01*
X84315621Y-41254951D01*
X84319453Y-41260883D01*
X84324432Y-41295223D01*
X84324560Y-41295805D01*
X84324560Y-41298905D01*
X84324567Y-41298933D01*
X84324586Y-41306710D01*
X84324570Y-41306761D01*
X84324586Y-41307000D01*
X84324587Y-41346422D01*
X84324588Y-41346427D01*
X84349208Y-41486048D01*
X84354946Y-41518584D01*
X84414736Y-41682855D01*
X84502142Y-41834249D01*
X84535102Y-41873530D01*
X84614506Y-41968163D01*
X84748419Y-42080535D01*
X84748421Y-42080536D01*
X84899811Y-42167948D01*
X85033960Y-42216780D01*
X85064073Y-42227742D01*
X85064074Y-42227742D01*
X85064079Y-42227744D01*
X85064085Y-42227745D01*
X85236233Y-42258109D01*
X85236241Y-42258109D01*
X85283760Y-42258111D01*
X85283769Y-42258114D01*
X85323643Y-42258114D01*
X85371633Y-42258117D01*
X85371634Y-42258116D01*
X85381597Y-42258117D01*
X85381648Y-42258114D01*
X85617379Y-42258114D01*
X85618149Y-42258062D01*
X85657051Y-42258065D01*
X85829214Y-42227717D01*
X85993491Y-42167934D01*
X86144891Y-42080533D01*
X86278813Y-41968168D01*
X86391188Y-41834254D01*
X86478601Y-41682861D01*
X86538397Y-41518589D01*
X86554557Y-41426951D01*
X86585585Y-41364353D01*
X86645532Y-41328464D01*
X86715367Y-41330682D01*
X86772916Y-41370304D01*
X86798788Y-41426956D01*
X86814945Y-41518580D01*
X86814946Y-41518584D01*
X86874736Y-41682855D01*
X86962142Y-41834249D01*
X86995102Y-41873530D01*
X87074506Y-41968163D01*
X87208419Y-42080535D01*
X87208421Y-42080536D01*
X87359811Y-42167948D01*
X87493960Y-42216780D01*
X87524073Y-42227742D01*
X87524074Y-42227742D01*
X87524079Y-42227744D01*
X87524085Y-42227745D01*
X87696233Y-42258109D01*
X87696241Y-42258109D01*
X87743760Y-42258111D01*
X87743769Y-42258114D01*
X87783643Y-42258114D01*
X87831633Y-42258117D01*
X87831634Y-42258116D01*
X87841597Y-42258117D01*
X87841648Y-42258114D01*
X88077379Y-42258114D01*
X88078149Y-42258062D01*
X88117051Y-42258065D01*
X88289214Y-42227717D01*
X88453491Y-42167934D01*
X88604891Y-42080533D01*
X88738813Y-41968168D01*
X88851188Y-41834254D01*
X88938601Y-41682861D01*
X88998397Y-41518589D01*
X89014557Y-41426951D01*
X89045585Y-41364353D01*
X89105532Y-41328464D01*
X89175367Y-41330682D01*
X89232916Y-41370304D01*
X89258788Y-41426956D01*
X89274945Y-41518580D01*
X89274946Y-41518584D01*
X89334736Y-41682855D01*
X89422142Y-41834249D01*
X89455102Y-41873530D01*
X89534506Y-41968163D01*
X89668419Y-42080535D01*
X89668421Y-42080536D01*
X89819811Y-42167948D01*
X89953960Y-42216780D01*
X89984073Y-42227742D01*
X89984074Y-42227742D01*
X89984079Y-42227744D01*
X89984085Y-42227745D01*
X90156233Y-42258109D01*
X90156241Y-42258109D01*
X90203760Y-42258111D01*
X90203769Y-42258114D01*
X90243643Y-42258114D01*
X90291633Y-42258117D01*
X90291634Y-42258116D01*
X90301597Y-42258117D01*
X90301648Y-42258114D01*
X90537379Y-42258114D01*
X90538149Y-42258062D01*
X90577051Y-42258065D01*
X90749214Y-42227717D01*
X90913491Y-42167934D01*
X91064891Y-42080533D01*
X91198813Y-41968168D01*
X91311188Y-41834254D01*
X91398601Y-41682861D01*
X91458397Y-41518589D01*
X91488758Y-41346429D01*
X91488759Y-41298908D01*
X91488760Y-41298905D01*
X91488760Y-41243907D01*
X91488761Y-41211030D01*
X91488760Y-41211026D01*
X91488760Y-40829210D01*
X91488760Y-40453655D01*
X91508445Y-40386616D01*
X91561249Y-40340861D01*
X91630407Y-40330917D01*
X91693963Y-40359942D01*
X91731737Y-40418720D01*
X91734873Y-40432111D01*
X91734949Y-40432540D01*
X91734955Y-40432572D01*
X91794737Y-40596826D01*
X91794738Y-40596829D01*
X91794740Y-40596834D01*
X91794742Y-40596837D01*
X91882146Y-40748232D01*
X91994511Y-40882150D01*
X92128422Y-40994522D01*
X92279812Y-41081934D01*
X92444080Y-41141731D01*
X92616236Y-41172096D01*
X92663760Y-41172098D01*
X92663769Y-41172101D01*
X92703643Y-41172101D01*
X92751633Y-41172104D01*
X92751634Y-41172103D01*
X92761597Y-41172104D01*
X92761648Y-41172101D01*
X92909769Y-41172101D01*
X97560109Y-41172101D01*
X120874966Y-41172101D01*
X120942005Y-41191786D01*
X120962647Y-41208420D01*
X121240272Y-41486045D01*
X121240274Y-41486048D01*
X121296688Y-41542462D01*
X121330554Y-41562014D01*
X121365782Y-41582353D01*
X121442845Y-41603002D01*
X121442847Y-41603002D01*
X121530222Y-41603002D01*
X121530238Y-41603001D01*
X121710686Y-41603001D01*
X121777725Y-41622686D01*
X121823480Y-41675490D01*
X121834686Y-41727001D01*
X121834686Y-41815053D01*
X121846317Y-41873530D01*
X121846318Y-41873531D01*
X121890633Y-41939853D01*
X121956955Y-41984168D01*
X121956956Y-41984169D01*
X122015433Y-41995800D01*
X122015436Y-41995801D01*
X122015438Y-41995801D01*
X124264736Y-41995801D01*
X124264737Y-41995800D01*
X124279554Y-41992853D01*
X124323215Y-41984169D01*
X124323215Y-41984168D01*
X124323217Y-41984168D01*
X124389538Y-41939853D01*
X124433853Y-41873532D01*
X124433853Y-41873530D01*
X124433854Y-41873530D01*
X124445485Y-41815053D01*
X124445486Y-41815051D01*
X124445486Y-40784950D01*
X124445485Y-40784948D01*
X124433854Y-40726471D01*
X124429180Y-40715188D01*
X124432523Y-40713803D01*
X124417934Y-40667231D01*
X124431987Y-40615976D01*
X124429180Y-40614814D01*
X124433854Y-40603530D01*
X124445485Y-40545053D01*
X124445486Y-40545051D01*
X124445486Y-39514950D01*
X124445485Y-39514948D01*
X124433854Y-39456471D01*
X124433853Y-39456470D01*
X124389538Y-39390148D01*
X124323216Y-39345833D01*
X124323215Y-39345832D01*
X124264738Y-39334201D01*
X124264734Y-39334201D01*
X122015438Y-39334201D01*
X122015433Y-39334201D01*
X121956956Y-39345832D01*
X121956955Y-39345833D01*
X121890633Y-39390148D01*
X121846318Y-39456470D01*
X121846317Y-39456471D01*
X121834686Y-39514948D01*
X121834686Y-39603001D01*
X121832135Y-39611686D01*
X121833424Y-39620648D01*
X121822445Y-39644688D01*
X121815001Y-39670040D01*
X121808160Y-39675967D01*
X121804399Y-39684204D01*
X121782164Y-39698493D01*
X121762197Y-39715795D01*
X121751682Y-39718082D01*
X121745621Y-39721978D01*
X121710686Y-39727001D01*
X121530238Y-39727001D01*
X121530222Y-39727000D01*
X121522626Y-39727000D01*
X121442845Y-39727000D01*
X121391469Y-39740766D01*
X121365781Y-39747649D01*
X121353702Y-39754622D01*
X121353703Y-39754623D01*
X121296689Y-39787539D01*
X121296686Y-39787541D01*
X121240274Y-39843954D01*
X121240272Y-39843956D01*
X121085137Y-39999092D01*
X120962647Y-40121582D01*
X120901324Y-40155067D01*
X120874966Y-40157901D01*
X92842811Y-40157901D01*
X92775772Y-40138216D01*
X92730017Y-40085412D01*
X92718811Y-40033903D01*
X92718810Y-39983572D01*
X92704569Y-39902818D01*
X92688448Y-39811400D01*
X92628649Y-39647118D01*
X92608191Y-39611686D01*
X92541234Y-39495720D01*
X92541226Y-39495709D01*
X92476101Y-39418102D01*
X92428851Y-39361796D01*
X92428848Y-39361794D01*
X92428846Y-39361791D01*
X92294921Y-39249424D01*
X92143514Y-39162019D01*
X92143509Y-39162016D01*
X92017938Y-39116320D01*
X91979228Y-39102233D01*
X91893142Y-39087058D01*
X91807057Y-39071884D01*
X91807056Y-39071884D01*
X91763349Y-39071886D01*
X91719642Y-39071888D01*
X91531648Y-39071888D01*
X91531598Y-39071884D01*
X91525027Y-39071884D01*
X91524938Y-39071858D01*
X91386238Y-39071863D01*
X91386233Y-39071864D01*
X91214080Y-39102228D01*
X91214070Y-39102230D01*
X91049801Y-39162027D01*
X91049789Y-39162033D01*
X90898406Y-39249440D01*
X90898403Y-39249442D01*
X90764489Y-39361816D01*
X90652117Y-39495739D01*
X90564712Y-39647133D01*
X90564710Y-39647137D01*
X90504918Y-39811413D01*
X90504917Y-39811420D01*
X90488801Y-39902816D01*
X90457774Y-39965419D01*
X90397827Y-40001309D01*
X90327992Y-39999092D01*
X90270442Y-39959471D01*
X90244569Y-39902818D01*
X90244569Y-39902816D01*
X90228448Y-39811400D01*
X90168649Y-39647118D01*
X90148191Y-39611686D01*
X90081234Y-39495720D01*
X90081226Y-39495709D01*
X90016101Y-39418102D01*
X89968851Y-39361796D01*
X89968848Y-39361794D01*
X89968846Y-39361791D01*
X89834921Y-39249424D01*
X89683514Y-39162019D01*
X89683509Y-39162016D01*
X89557938Y-39116320D01*
X89519228Y-39102233D01*
X89433142Y-39087058D01*
X89347057Y-39071884D01*
X89347056Y-39071884D01*
X89303349Y-39071886D01*
X89259642Y-39071888D01*
X89071648Y-39071888D01*
X89071598Y-39071884D01*
X89065027Y-39071884D01*
X89064938Y-39071858D01*
X88926238Y-39071863D01*
X88926233Y-39071864D01*
X88754080Y-39102228D01*
X88754070Y-39102230D01*
X88589801Y-39162027D01*
X88589789Y-39162033D01*
X88438406Y-39249440D01*
X88438403Y-39249442D01*
X88304489Y-39361816D01*
X88192117Y-39495739D01*
X88104712Y-39647133D01*
X88104710Y-39647137D01*
X88044918Y-39811413D01*
X88044917Y-39811420D01*
X88028801Y-39902816D01*
X87997774Y-39965419D01*
X87937827Y-40001309D01*
X87867992Y-39999092D01*
X87810442Y-39959471D01*
X87784569Y-39902818D01*
X87784569Y-39902816D01*
X87768448Y-39811400D01*
X87708649Y-39647118D01*
X87688191Y-39611686D01*
X87621234Y-39495720D01*
X87621226Y-39495709D01*
X87556101Y-39418102D01*
X87508851Y-39361796D01*
X87508848Y-39361794D01*
X87508846Y-39361791D01*
X87374921Y-39249424D01*
X87223514Y-39162019D01*
X87223509Y-39162016D01*
X87097938Y-39116320D01*
X87059228Y-39102233D01*
X86973142Y-39087058D01*
X86887057Y-39071884D01*
X86887056Y-39071884D01*
X86843349Y-39071886D01*
X86799642Y-39071888D01*
X86611648Y-39071888D01*
X86611598Y-39071884D01*
X86605027Y-39071884D01*
X86604938Y-39071858D01*
X86466238Y-39071863D01*
X86466233Y-39071864D01*
X86294080Y-39102228D01*
X86294070Y-39102230D01*
X86129801Y-39162027D01*
X86129789Y-39162033D01*
X85978406Y-39249440D01*
X85978403Y-39249442D01*
X85844489Y-39361816D01*
X85732117Y-39495739D01*
X85644712Y-39647133D01*
X85644710Y-39647137D01*
X85584918Y-39811413D01*
X85584917Y-39811420D01*
X85554561Y-39983571D01*
X85554560Y-39983575D01*
X85554560Y-40033903D01*
X85554560Y-40070983D01*
X85554559Y-40118973D01*
X85554560Y-40118976D01*
X85554560Y-40875912D01*
X85534875Y-40942951D01*
X85482071Y-40988706D01*
X85412913Y-40998650D01*
X85349357Y-40969625D01*
X85311583Y-40910847D01*
X85308444Y-40897446D01*
X85308439Y-40897417D01*
X85248645Y-40733139D01*
X85248642Y-40733134D01*
X85161231Y-40581739D01*
X85161223Y-40581727D01*
X85048855Y-40447819D01*
X85048850Y-40447815D01*
X85048848Y-40447812D01*
X84914920Y-40335440D01*
X84763513Y-40248033D01*
X84599227Y-40188246D01*
X84599224Y-40188245D01*
X84599223Y-40188245D01*
X84427057Y-40157897D01*
X84427056Y-40157897D01*
X84383349Y-40157899D01*
X84339642Y-40157901D01*
X73375052Y-40157901D01*
X73308013Y-40138216D01*
X73287371Y-40121582D01*
X71495132Y-38329343D01*
X71461647Y-38268020D01*
X71466631Y-38198328D01*
X71495132Y-38153981D01*
X71561838Y-38087274D01*
X71561841Y-38087271D01*
X71636773Y-37975127D01*
X71688387Y-37850520D01*
X71696997Y-37807231D01*
X71714700Y-37718239D01*
X71714700Y-37481762D01*
X71714699Y-37481758D01*
X71714017Y-37478329D01*
X74254100Y-37478329D01*
X74254100Y-37721670D01*
X74292164Y-37961999D01*
X74332868Y-38087270D01*
X74367358Y-38193420D01*
X74477828Y-38410228D01*
X74620854Y-38607086D01*
X74792914Y-38779146D01*
X74989772Y-38922172D01*
X75206580Y-39032642D01*
X75382307Y-39089739D01*
X75438000Y-39107835D01*
X75678330Y-39145900D01*
X75678335Y-39145900D01*
X75921670Y-39145900D01*
X76161999Y-39107835D01*
X76179249Y-39102230D01*
X76393420Y-39032642D01*
X76610228Y-38922172D01*
X76807086Y-38779146D01*
X76979146Y-38607086D01*
X77122172Y-38410228D01*
X77232642Y-38193420D01*
X77307835Y-37961999D01*
X77317520Y-37900850D01*
X77345900Y-37721670D01*
X77345900Y-37478329D01*
X77307835Y-37238000D01*
X77281718Y-37157621D01*
X77232642Y-37006580D01*
X77122172Y-36789772D01*
X76979146Y-36592914D01*
X76807086Y-36420854D01*
X76610228Y-36277828D01*
X76393420Y-36167358D01*
X76333402Y-36147857D01*
X76161999Y-36092164D01*
X75921670Y-36054100D01*
X75921665Y-36054100D01*
X75678335Y-36054100D01*
X75678330Y-36054100D01*
X75438000Y-36092164D01*
X75206577Y-36167359D01*
X74989771Y-36277828D01*
X74877457Y-36359429D01*
X74792914Y-36420854D01*
X74792912Y-36420856D01*
X74792911Y-36420856D01*
X74620856Y-36592911D01*
X74620856Y-36592912D01*
X74620854Y-36592914D01*
X74559429Y-36677457D01*
X74477828Y-36789771D01*
X74367359Y-37006577D01*
X74292164Y-37238000D01*
X74254100Y-37478329D01*
X71714017Y-37478329D01*
X71688388Y-37349485D01*
X71688387Y-37349484D01*
X71688387Y-37349480D01*
X71636773Y-37224873D01*
X71636772Y-37224872D01*
X71636769Y-37224866D01*
X71561841Y-37112729D01*
X71561838Y-37112725D01*
X71466474Y-37017361D01*
X71466470Y-37017358D01*
X71354333Y-36942430D01*
X71354324Y-36942425D01*
X71229720Y-36890813D01*
X71229714Y-36890811D01*
X71097439Y-36864500D01*
X71097437Y-36864500D01*
X70962563Y-36864500D01*
X70962561Y-36864500D01*
X70830285Y-36890811D01*
X70830279Y-36890813D01*
X70705675Y-36942425D01*
X70705666Y-36942430D01*
X70593529Y-37017358D01*
X70593525Y-37017361D01*
X70498161Y-37112725D01*
X70498154Y-37112734D01*
X70498097Y-37112820D01*
X70498055Y-37112854D01*
X70494295Y-37117437D01*
X70493425Y-37116723D01*
X70444482Y-37157621D01*
X70375156Y-37166324D01*
X70312131Y-37136165D01*
X70295821Y-37117341D01*
X70295705Y-37117437D01*
X70292148Y-37113103D01*
X70291903Y-37112820D01*
X70291845Y-37112734D01*
X70291838Y-37112725D01*
X70196474Y-37017361D01*
X70196470Y-37017358D01*
X70084333Y-36942430D01*
X70084324Y-36942425D01*
X69959720Y-36890813D01*
X69959714Y-36890811D01*
X69827439Y-36864500D01*
X69827437Y-36864500D01*
X69692563Y-36864500D01*
X69692561Y-36864500D01*
X69560285Y-36890811D01*
X69560279Y-36890813D01*
X69435675Y-36942425D01*
X69435666Y-36942430D01*
X69323529Y-37017358D01*
X69323525Y-37017361D01*
X69228161Y-37112725D01*
X69228158Y-37112729D01*
X69153230Y-37224866D01*
X69153225Y-37224875D01*
X69101613Y-37349479D01*
X69101611Y-37349485D01*
X69075300Y-37481760D01*
X69075300Y-37481762D01*
X69075300Y-37481763D01*
X69075300Y-37718237D01*
X69075300Y-37718239D01*
X69075299Y-37718239D01*
X67904700Y-37718239D01*
X67904700Y-37481760D01*
X67878388Y-37349485D01*
X67878387Y-37349484D01*
X67878387Y-37349480D01*
X67826773Y-37224873D01*
X67826772Y-37224872D01*
X67826769Y-37224866D01*
X67751841Y-37112729D01*
X67751838Y-37112725D01*
X67656474Y-37017361D01*
X67656470Y-37017358D01*
X67544333Y-36942430D01*
X67544324Y-36942425D01*
X67419720Y-36890813D01*
X67419714Y-36890811D01*
X67287439Y-36864500D01*
X67287437Y-36864500D01*
X67152563Y-36864500D01*
X67152561Y-36864500D01*
X67020285Y-36890811D01*
X67020279Y-36890813D01*
X66895675Y-36942425D01*
X66895666Y-36942430D01*
X66783529Y-37017358D01*
X66783525Y-37017361D01*
X66688161Y-37112725D01*
X66688154Y-37112734D01*
X66688097Y-37112820D01*
X66688055Y-37112854D01*
X66684295Y-37117437D01*
X66683425Y-37116723D01*
X66634482Y-37157621D01*
X66565156Y-37166324D01*
X66502131Y-37136165D01*
X66485821Y-37117341D01*
X66485705Y-37117437D01*
X66482148Y-37113103D01*
X66481903Y-37112820D01*
X66481845Y-37112734D01*
X66481838Y-37112725D01*
X66386474Y-37017361D01*
X66386470Y-37017358D01*
X66274333Y-36942430D01*
X66274324Y-36942425D01*
X66149720Y-36890813D01*
X66149714Y-36890811D01*
X66017439Y-36864500D01*
X66017437Y-36864500D01*
X65882563Y-36864500D01*
X65882561Y-36864500D01*
X65750285Y-36890811D01*
X65750279Y-36890813D01*
X65625675Y-36942425D01*
X65625666Y-36942430D01*
X65513529Y-37017358D01*
X65513525Y-37017361D01*
X65418161Y-37112725D01*
X65418158Y-37112729D01*
X65343230Y-37224866D01*
X65343225Y-37224875D01*
X65291613Y-37349479D01*
X65291611Y-37349485D01*
X65265300Y-37481760D01*
X65265300Y-37481762D01*
X65265300Y-37481763D01*
X65265300Y-37718237D01*
X65265300Y-37718239D01*
X65265299Y-37718239D01*
X59014700Y-37718239D01*
X59014700Y-37481760D01*
X58988388Y-37349485D01*
X58988387Y-37349484D01*
X58988387Y-37349480D01*
X58936773Y-37224873D01*
X58936772Y-37224872D01*
X58936769Y-37224866D01*
X58861841Y-37112729D01*
X58861838Y-37112725D01*
X58766474Y-37017361D01*
X58766470Y-37017358D01*
X58654333Y-36942430D01*
X58654324Y-36942425D01*
X58529720Y-36890813D01*
X58529714Y-36890811D01*
X58397439Y-36864500D01*
X58397437Y-36864500D01*
X58262563Y-36864500D01*
X58262561Y-36864500D01*
X58130285Y-36890811D01*
X58130279Y-36890813D01*
X58005675Y-36942425D01*
X58005666Y-36942430D01*
X57893529Y-37017358D01*
X57893525Y-37017361D01*
X57798161Y-37112725D01*
X57798154Y-37112734D01*
X57798097Y-37112820D01*
X57798055Y-37112854D01*
X57794295Y-37117437D01*
X57793425Y-37116723D01*
X57744482Y-37157621D01*
X57675156Y-37166324D01*
X57612131Y-37136165D01*
X57595821Y-37117341D01*
X57595705Y-37117437D01*
X57592148Y-37113103D01*
X57591903Y-37112820D01*
X57591845Y-37112734D01*
X57591838Y-37112725D01*
X57496474Y-37017361D01*
X57496470Y-37017358D01*
X57384333Y-36942430D01*
X57384324Y-36942425D01*
X57259720Y-36890813D01*
X57259714Y-36890811D01*
X57127439Y-36864500D01*
X57127437Y-36864500D01*
X56992563Y-36864500D01*
X56992561Y-36864500D01*
X56860285Y-36890811D01*
X56860279Y-36890813D01*
X56735675Y-36942425D01*
X56735666Y-36942430D01*
X56623529Y-37017358D01*
X56623525Y-37017361D01*
X56528161Y-37112725D01*
X56528154Y-37112734D01*
X56528097Y-37112820D01*
X56528055Y-37112854D01*
X56524295Y-37117437D01*
X56523425Y-37116723D01*
X56474482Y-37157621D01*
X56405156Y-37166324D01*
X56342131Y-37136165D01*
X56325821Y-37117341D01*
X56325705Y-37117437D01*
X56322148Y-37113103D01*
X56321903Y-37112820D01*
X56321845Y-37112734D01*
X56321838Y-37112725D01*
X56226474Y-37017361D01*
X56226470Y-37017358D01*
X56114333Y-36942430D01*
X56114324Y-36942425D01*
X55989720Y-36890813D01*
X55989714Y-36890811D01*
X55857439Y-36864500D01*
X55857437Y-36864500D01*
X55722563Y-36864500D01*
X55722561Y-36864500D01*
X55590285Y-36890811D01*
X55590279Y-36890813D01*
X55465675Y-36942425D01*
X55465666Y-36942430D01*
X55353529Y-37017358D01*
X55353525Y-37017361D01*
X55258161Y-37112725D01*
X55258158Y-37112729D01*
X55183230Y-37224866D01*
X55183225Y-37224875D01*
X55131613Y-37349479D01*
X55131611Y-37349485D01*
X55105300Y-37481760D01*
X55105300Y-37481762D01*
X55105300Y-37481763D01*
X55105300Y-37718237D01*
X55105300Y-37718239D01*
X55105299Y-37718239D01*
X51394700Y-37718239D01*
X51394700Y-37481760D01*
X51368388Y-37349485D01*
X51368387Y-37349484D01*
X51368387Y-37349480D01*
X51316773Y-37224873D01*
X51316772Y-37224872D01*
X51316769Y-37224866D01*
X51241841Y-37112729D01*
X51241838Y-37112725D01*
X51146474Y-37017361D01*
X51146470Y-37017358D01*
X51034333Y-36942430D01*
X51034324Y-36942425D01*
X50909720Y-36890813D01*
X50909714Y-36890811D01*
X50777439Y-36864500D01*
X50777437Y-36864500D01*
X50642563Y-36864500D01*
X50642561Y-36864500D01*
X50510285Y-36890811D01*
X50510279Y-36890813D01*
X50385675Y-36942425D01*
X50385666Y-36942430D01*
X50273529Y-37017358D01*
X50273525Y-37017361D01*
X50178161Y-37112725D01*
X50178154Y-37112734D01*
X50178097Y-37112820D01*
X50178055Y-37112854D01*
X50174295Y-37117437D01*
X50173425Y-37116723D01*
X50124482Y-37157621D01*
X50055156Y-37166324D01*
X49992131Y-37136165D01*
X49975821Y-37117341D01*
X49975705Y-37117437D01*
X49972148Y-37113103D01*
X49971903Y-37112820D01*
X49971845Y-37112734D01*
X49971838Y-37112725D01*
X49876474Y-37017361D01*
X49876470Y-37017358D01*
X49764333Y-36942430D01*
X49764324Y-36942425D01*
X49639720Y-36890813D01*
X49639714Y-36890811D01*
X49507439Y-36864500D01*
X49507437Y-36864500D01*
X49372563Y-36864500D01*
X49372561Y-36864500D01*
X49240285Y-36890811D01*
X49240279Y-36890813D01*
X49115675Y-36942425D01*
X49115666Y-36942430D01*
X49003529Y-37017358D01*
X49003525Y-37017361D01*
X48908161Y-37112725D01*
X48908154Y-37112734D01*
X48908097Y-37112820D01*
X48908055Y-37112854D01*
X48904295Y-37117437D01*
X48903425Y-37116723D01*
X48854482Y-37157621D01*
X48785156Y-37166324D01*
X48722131Y-37136165D01*
X48705821Y-37117341D01*
X48705705Y-37117437D01*
X48702148Y-37113103D01*
X48701903Y-37112820D01*
X48701845Y-37112734D01*
X48701838Y-37112725D01*
X48606474Y-37017361D01*
X48606470Y-37017358D01*
X48494333Y-36942430D01*
X48494324Y-36942425D01*
X48369720Y-36890813D01*
X48369714Y-36890811D01*
X48237439Y-36864500D01*
X48237437Y-36864500D01*
X48102563Y-36864500D01*
X48102561Y-36864500D01*
X47970285Y-36890811D01*
X47970279Y-36890813D01*
X47845675Y-36942425D01*
X47845666Y-36942430D01*
X47733529Y-37017358D01*
X47733525Y-37017361D01*
X47638161Y-37112725D01*
X47638158Y-37112729D01*
X47563230Y-37224866D01*
X47563225Y-37224875D01*
X47511613Y-37349479D01*
X47511611Y-37349485D01*
X47485300Y-37481760D01*
X47485300Y-37481762D01*
X47485300Y-37481763D01*
X47485300Y-37718237D01*
X47485300Y-37718239D01*
X47485299Y-37718239D01*
X46314700Y-37718239D01*
X46314700Y-37481760D01*
X46288388Y-37349485D01*
X46288387Y-37349484D01*
X46288387Y-37349480D01*
X46236773Y-37224873D01*
X46236772Y-37224872D01*
X46236769Y-37224866D01*
X46161841Y-37112729D01*
X46161838Y-37112725D01*
X46066474Y-37017361D01*
X46066470Y-37017358D01*
X45954333Y-36942430D01*
X45954324Y-36942425D01*
X45829720Y-36890813D01*
X45829714Y-36890811D01*
X45697439Y-36864500D01*
X45697437Y-36864500D01*
X45562563Y-36864500D01*
X45562561Y-36864500D01*
X45430285Y-36890811D01*
X45430279Y-36890813D01*
X45305675Y-36942425D01*
X45305666Y-36942430D01*
X45193529Y-37017358D01*
X45193525Y-37017361D01*
X45098161Y-37112725D01*
X45098158Y-37112729D01*
X45023230Y-37224866D01*
X45023225Y-37224875D01*
X44971613Y-37349479D01*
X44971611Y-37349485D01*
X44945300Y-37481760D01*
X44945300Y-37481762D01*
X44945300Y-37481763D01*
X44945300Y-37718237D01*
X44945300Y-37718239D01*
X44945299Y-37718239D01*
X43774700Y-37718239D01*
X43774700Y-37481760D01*
X43748388Y-37349485D01*
X43748387Y-37349484D01*
X43748387Y-37349480D01*
X43696773Y-37224873D01*
X43696772Y-37224872D01*
X43696769Y-37224866D01*
X43621841Y-37112729D01*
X43621838Y-37112725D01*
X43526474Y-37017361D01*
X43526470Y-37017358D01*
X43414333Y-36942430D01*
X43414324Y-36942425D01*
X43289720Y-36890813D01*
X43289714Y-36890811D01*
X43157439Y-36864500D01*
X43157437Y-36864500D01*
X43022563Y-36864500D01*
X43022561Y-36864500D01*
X42890285Y-36890811D01*
X42890279Y-36890813D01*
X42765675Y-36942425D01*
X42765666Y-36942430D01*
X42653529Y-37017358D01*
X42653525Y-37017361D01*
X42558161Y-37112725D01*
X42558154Y-37112734D01*
X42558097Y-37112820D01*
X42558055Y-37112854D01*
X42554295Y-37117437D01*
X42553425Y-37116723D01*
X42504482Y-37157621D01*
X42435156Y-37166324D01*
X42372131Y-37136165D01*
X42355821Y-37117341D01*
X42355705Y-37117437D01*
X42352148Y-37113103D01*
X42351903Y-37112820D01*
X42351845Y-37112734D01*
X42351838Y-37112725D01*
X42256474Y-37017361D01*
X42256470Y-37017358D01*
X42144333Y-36942430D01*
X42144324Y-36942425D01*
X42019720Y-36890813D01*
X42019714Y-36890811D01*
X41887439Y-36864500D01*
X41887437Y-36864500D01*
X41752563Y-36864500D01*
X41752561Y-36864500D01*
X41620285Y-36890811D01*
X41620279Y-36890813D01*
X41495675Y-36942425D01*
X41495666Y-36942430D01*
X41383529Y-37017358D01*
X41383525Y-37017361D01*
X41288161Y-37112725D01*
X41288154Y-37112734D01*
X41288097Y-37112820D01*
X41288055Y-37112854D01*
X41284295Y-37117437D01*
X41283425Y-37116723D01*
X41234482Y-37157621D01*
X41165156Y-37166324D01*
X41102131Y-37136165D01*
X41085821Y-37117341D01*
X41085705Y-37117437D01*
X41082148Y-37113103D01*
X41081903Y-37112820D01*
X41081845Y-37112734D01*
X41081838Y-37112725D01*
X40986474Y-37017361D01*
X40986470Y-37017358D01*
X40874333Y-36942430D01*
X40874324Y-36942425D01*
X40749720Y-36890813D01*
X40749714Y-36890811D01*
X40617439Y-36864500D01*
X40617437Y-36864500D01*
X40482563Y-36864500D01*
X40482561Y-36864500D01*
X40350285Y-36890811D01*
X40350279Y-36890813D01*
X40225675Y-36942425D01*
X40225666Y-36942430D01*
X40113529Y-37017358D01*
X40113525Y-37017361D01*
X40018161Y-37112725D01*
X40018158Y-37112729D01*
X39943230Y-37224866D01*
X39943225Y-37224875D01*
X39891613Y-37349479D01*
X39891611Y-37349485D01*
X39865300Y-37481760D01*
X39865300Y-37481762D01*
X39865300Y-37481763D01*
X39865300Y-37718237D01*
X39865300Y-37718239D01*
X39865299Y-37718239D01*
X38605902Y-37718239D01*
X38605902Y-37478329D01*
X38567837Y-37238000D01*
X38541720Y-37157621D01*
X38492644Y-37006580D01*
X38382174Y-36789772D01*
X38239148Y-36592914D01*
X38067088Y-36420854D01*
X37870230Y-36277828D01*
X37653422Y-36167358D01*
X37593404Y-36147857D01*
X37422001Y-36092164D01*
X37181672Y-36054100D01*
X37181667Y-36054100D01*
X36938337Y-36054100D01*
X36938332Y-36054100D01*
X36698002Y-36092164D01*
X36466579Y-36167359D01*
X36249773Y-36277828D01*
X36137459Y-36359429D01*
X36052916Y-36420854D01*
X36052914Y-36420856D01*
X36052913Y-36420856D01*
X35880858Y-36592911D01*
X35880858Y-36592912D01*
X35880856Y-36592914D01*
X35819431Y-36677457D01*
X35737830Y-36789771D01*
X35627361Y-37006577D01*
X35552166Y-37238000D01*
X35514102Y-37478329D01*
X34550500Y-37478329D01*
X34550500Y-35499147D01*
X124270800Y-35499147D01*
X124270800Y-37900852D01*
X124282431Y-37959329D01*
X124282432Y-37959330D01*
X124326747Y-38025652D01*
X124393069Y-38069967D01*
X124393070Y-38069968D01*
X124451547Y-38081599D01*
X124451550Y-38081600D01*
X124451552Y-38081600D01*
X126548450Y-38081600D01*
X126548451Y-38081599D01*
X126563268Y-38078652D01*
X126606929Y-38069968D01*
X126606929Y-38069967D01*
X126606931Y-38069967D01*
X126673252Y-38025652D01*
X126717567Y-37959331D01*
X126717567Y-37959329D01*
X126717568Y-37959329D01*
X126729199Y-37900852D01*
X126729200Y-37900850D01*
X126729200Y-35499149D01*
X126729199Y-35499147D01*
X126717568Y-35440670D01*
X126717567Y-35440669D01*
X126673252Y-35374347D01*
X126606930Y-35330032D01*
X126606929Y-35330031D01*
X126548452Y-35318400D01*
X126548448Y-35318400D01*
X124451552Y-35318400D01*
X124451547Y-35318400D01*
X124393070Y-35330031D01*
X124393069Y-35330032D01*
X124326747Y-35374347D01*
X124282432Y-35440669D01*
X124282431Y-35440670D01*
X124270800Y-35499147D01*
X34550500Y-35499147D01*
X34550500Y-34124500D01*
X34570185Y-34057461D01*
X34622989Y-34011706D01*
X34674500Y-34000500D01*
X133975500Y-34000500D01*
X134042539Y-34020185D01*
G37*
%TD.AperFunction*%
%TD*%
M02*
