%TF.GenerationSoftware,KiCad,Pcbnew,9.0.7*%
%TF.CreationDate,2026-02-22T17:51:24-06:00*%
%TF.ProjectId,sata-backplane,73617461-2d62-4616-936b-706c616e652e,rev?*%
%TF.SameCoordinates,Original*%
%TF.FileFunction,Copper,L3,Inr*%
%TF.FilePolarity,Positive*%
%FSLAX46Y46*%
G04 Gerber Fmt 4.6, Leading zero omitted, Abs format (unit mm)*
G04 Created by KiCad (PCBNEW 9.0.7) date 2026-02-22 17:51:24*
%MOMM*%
%LPD*%
G01*
G04 APERTURE LIST*
%TA.AperFunction,ComponentPad*%
%ADD10R,2.057400X2.362200*%
%TD*%
%TA.AperFunction,WasherPad*%
%ADD11C,2.600000*%
%TD*%
%TA.AperFunction,ComponentPad*%
%ADD12O,1.168400X1.270000*%
%TD*%
%TA.AperFunction,ComponentPad*%
%ADD13C,3.600000*%
%TD*%
%TA.AperFunction,WasherPad*%
%ADD14C,2.200000*%
%TD*%
%TA.AperFunction,ComponentPad*%
%ADD15O,1.400000X1.000000*%
%TD*%
%TA.AperFunction,ViaPad*%
%ADD16C,0.800000*%
%TD*%
G04 APERTURE END LIST*
D10*
%TO.N,N/C*%
%TO.C,J1*%
X125500000Y-81720000D03*
X125500000Y-68980000D03*
%TD*%
%TO.N,N/C*%
%TO.C,J3*%
X125500000Y-49440000D03*
X125500000Y-36700000D03*
%TD*%
D11*
%TO.N,*%
%TO.C,J2*%
X75800000Y-81600000D03*
X37060002Y-81600000D03*
D12*
%TO.N,/3V3_A*%
X58330000Y-81600000D03*
%TO.N,/3V3_B*%
X57060000Y-81600000D03*
%TO.N,/PW_DIS*%
X55790000Y-81600000D03*
%TO.N,GND*%
X54520000Y-81600000D03*
X53250000Y-81600000D03*
X51980000Y-81600000D03*
%TO.N,/5V_PRE*%
X50710000Y-81600000D03*
%TO.N,/5V_A*%
X49440000Y-81600000D03*
%TO.N,/5V_B*%
X48170000Y-81600000D03*
%TO.N,GND*%
X46900000Y-81600000D03*
%TO.N,/SS{slash}ACT*%
X45630000Y-81600000D03*
%TO.N,GND*%
X44360000Y-81600000D03*
%TO.N,/12V_PRE*%
X43090000Y-81600000D03*
%TO.N,/12V_A*%
X41820000Y-81600000D03*
%TO.N,/12V_B*%
X40550000Y-81600000D03*
%TO.N,GND*%
X72300000Y-81600000D03*
%TO.N,/SATA1_A+*%
X71030000Y-81600000D03*
%TO.N,/SATA1_A-*%
X69760000Y-81600000D03*
%TO.N,GND*%
X68490000Y-81600000D03*
%TO.N,/SATA1_B+*%
X67220000Y-81600000D03*
%TO.N,/SATA1_B-*%
X65950000Y-81600000D03*
%TO.N,GND*%
X64680000Y-81600000D03*
%TD*%
D11*
%TO.N,*%
%TO.C,J4*%
X75800000Y-37600000D03*
X37060002Y-37600000D03*
D12*
%TO.N,/3V3_A*%
X58330000Y-37600000D03*
%TO.N,/3V3_B*%
X57060000Y-37600000D03*
%TO.N,/PW_DIS*%
X55790000Y-37600000D03*
%TO.N,GND*%
X54520000Y-37600000D03*
X53250000Y-37600000D03*
X51980000Y-37600000D03*
%TO.N,/5V_PRE*%
X50710000Y-37600000D03*
%TO.N,/5V_A*%
X49440000Y-37600000D03*
%TO.N,/5V_B*%
X48170000Y-37600000D03*
%TO.N,GND*%
X46900000Y-37600000D03*
%TO.N,/SS{slash}ACT*%
X45630000Y-37600000D03*
%TO.N,GND*%
X44360000Y-37600000D03*
%TO.N,/12V_PRE*%
X43090000Y-37600000D03*
%TO.N,/12V_A*%
X41820000Y-37600000D03*
%TO.N,/12V_B*%
X40550000Y-37600000D03*
%TO.N,GND*%
X72300000Y-37600000D03*
%TO.N,/SATA2_A+*%
X71030000Y-37600000D03*
%TO.N,/SATA2_A-*%
X69760000Y-37600000D03*
%TO.N,GND*%
X68490000Y-37600000D03*
%TO.N,/SATA2_B+*%
X67220000Y-37600000D03*
%TO.N,/SATA2_B-*%
X65950000Y-37600000D03*
%TO.N,GND*%
X64680000Y-37600000D03*
%TD*%
D13*
%TO.N,GND*%
%TO.C,H4*%
X66750000Y-73900000D03*
%TD*%
%TO.N,GND*%
%TO.C,H2*%
X117063086Y-50436200D03*
%TD*%
%TO.N,GND*%
%TO.C,H1*%
X66750000Y-45150000D03*
%TD*%
%TO.N,GND*%
%TO.C,H3*%
X117063086Y-67983800D03*
%TD*%
D14*
%TO.N,*%
%TO.C,J5*%
X84400000Y-71690000D03*
X84400000Y-47190000D03*
D15*
%TO.N,/3V3_A*%
X84400000Y-68090000D03*
%TO.N,/3V3_B*%
X84400000Y-66820000D03*
%TO.N,/PW_DIS*%
X84400000Y-65550000D03*
%TO.N,GND*%
X84400000Y-64280000D03*
X84400000Y-63010000D03*
X84400000Y-61740000D03*
%TO.N,/5V_PRE*%
X84400000Y-60470000D03*
%TO.N,/5V_A*%
X84400000Y-59200000D03*
%TO.N,/5V_B*%
X84400000Y-57930000D03*
%TO.N,GND*%
X84400000Y-56660000D03*
%TO.N,/SS{slash}ACT*%
X84400000Y-55390000D03*
%TO.N,GND*%
X84400000Y-54120000D03*
%TO.N,/12V_PRE*%
X84400000Y-52850000D03*
%TO.N,/12V_A*%
X84400000Y-51580000D03*
%TO.N,/12V_B*%
X84400000Y-50310000D03*
%TD*%
D16*
%TO.N,GND*%
X123140086Y-38760001D03*
X123140086Y-42570001D03*
X123140086Y-74850001D03*
X123140086Y-78660001D03*
X123140086Y-46380001D03*
X123140086Y-71040001D03*
%TO.N,/SATA1_A+*%
X123140086Y-72310001D03*
%TO.N,/SATA1_A-*%
X123140086Y-73580001D03*
%TO.N,/3V3_B*%
X57050000Y-66820000D03*
%TO.N,/12V_A*%
X41820000Y-51600000D03*
%TO.N,/SS{slash}ACT*%
X45630000Y-55400000D03*
%TO.N,/PW_DIS*%
X55790000Y-65550000D03*
%TO.N,/12V_PRE*%
X43090000Y-52850000D03*
%TO.N,/3V3_A*%
X58330000Y-68100000D03*
%TO.N,/5V_PRE*%
X50710000Y-60450000D03*
%TO.N,/12V_B*%
X40560000Y-50310000D03*
%TO.N,/5V_B*%
X48170000Y-57900000D03*
%TO.N,/5V_A*%
X49450000Y-59200000D03*
%TD*%
M02*
