M48
; DRILL file {KiCad 9.0.7} date 2026-02-22T20:08:27-0600
; FORMAT={-:-/ absolute / metric / decimal}
; #@! TF.CreationDate,2026-02-22T20:08:27-06:00
; #@! TF.GenerationSoftware,Kicad,Pcbnew,9.0.7
; #@! TF.FileFunction,Plated,1,2,PTH
FMAT,2
METRIC
; #@! TA.AperFunction,Plated,PTH,ViaDrill
T1C0.400
; #@! TA.AperFunction,Plated,PTH,ComponentDrill
T2C0.740
; #@! TA.AperFunction,Plated,PTH,ComponentDrill
T3C0.762
; #@! TA.AperFunction,Plated,PTH,ComponentDrill
T4C1.549
; #@! TA.AperFunction,Plated,PTH,ComponentDrill
T5C3.200
%
G90
G05
T1
X40.56Y-50.31
X41.82Y-51.6
X43.09Y-52.85
X45.63Y-55.4
X48.17Y-57.9
X49.45Y-59.2
X50.71Y-60.45
X55.79Y-65.55
X57.05Y-66.82
X58.33Y-68.1
X123.14Y-38.76
X123.14Y-42.57
X123.14Y-46.38
X123.14Y-71.04
X123.14Y-72.31
X123.14Y-73.58
X123.14Y-74.85
X123.14Y-78.66
T2
X84.4Y-50.31
X84.4Y-51.58
X84.4Y-52.85
X84.4Y-54.12
X84.4Y-55.39
X84.4Y-56.66
X84.4Y-57.93
X84.4Y-59.2
X84.4Y-60.47
X84.4Y-61.74
X84.4Y-63.01
X84.4Y-64.28
X84.4Y-65.55
X84.4Y-66.82
X84.4Y-68.09
T3
X40.55Y-37.6
X40.55Y-81.6
X41.82Y-37.6
X41.82Y-81.6
X43.09Y-37.6
X43.09Y-81.6
X44.36Y-37.6
X44.36Y-81.6
X45.63Y-37.6
X45.63Y-81.6
X46.9Y-37.6
X46.9Y-81.6
X48.17Y-37.6
X48.17Y-81.6
X49.44Y-37.6
X49.44Y-81.6
X50.71Y-37.6
X50.71Y-81.6
X51.98Y-37.6
X51.98Y-81.6
X53.25Y-37.6
X53.25Y-81.6
X54.52Y-37.6
X54.52Y-81.6
X55.79Y-37.6
X55.79Y-81.6
X57.06Y-37.6
X57.06Y-81.6
X58.33Y-37.6
X58.33Y-81.6
X64.68Y-37.6
X64.68Y-81.6
X65.95Y-37.6
X65.95Y-81.6
X67.22Y-37.6
X67.22Y-81.6
X68.49Y-37.6
X68.49Y-81.6
X69.76Y-37.6
X69.76Y-81.6
X71.03Y-37.6
X71.03Y-81.6
X72.3Y-37.6
X72.3Y-81.6
T4
X125.5Y-36.7
X125.5Y-49.44
X125.5Y-68.98
X125.5Y-81.72
T5
X66.75Y-45.15
X66.75Y-73.9
X117.063Y-50.436
X117.063Y-67.984
M30
